<?xml version="1.0" encoding="UTF-8" standalone="no"?>
<!DOCTYPE svg PUBLIC "-//W3C//DTD SVG 1.1//EN"
 "http://www.w3.org/Graphics/SVG/1.1/DTD/svg11.dtd">
<!-- Generated by graphviz version 2.38.0 (20140413.2041)
 -->
<!-- Title: godep Pages: 1 -->
<svg width="473pt" height="260pt"
 viewBox="0.00 0.00 472.57 260.00" xmlns="http://www.w3.org/2000/svg" xmlns:xlink="http://www.w3.org/1999/xlink">
<g id="graph0" class="graph" transform="scale(1 1) rotate(0) translate(4 256)">
<title>godep</title>
<polygon fill="white" stroke="none" points="-4,4 -4,-256 468.574,-256 468.574,4 -4,4"/>
<!-- 0 -->
<g id="node1" class="node"><title>0</title>
<ellipse fill="paleturquoise" stroke="paleturquoise" cx="107.109" cy="-90" rx="107.217" ry="18"/>
<text text-anchor="middle" x="107.109" y="-85.8" font-family="Times,serif" font-size="14.00">github.com/moul/cleanarch</text>
</g>
<!-- 1 -->
<g id="node2" class="node"><title>1</title>
<ellipse fill="paleturquoise" stroke="paleturquoise" cx="227.109" cy="-234" rx="111.587" ry="18"/>
<text text-anchor="middle" x="227.109" y="-229.8" font-family="Times,serif" font-size="14.00">./app/view&#45;models/api/sprint</text>
</g>
<!-- 2 -->
<g id="node3" class="node"><title>2</title>
<ellipse fill="paleturquoise" stroke="paleturquoise" cx="227.109" cy="-162" rx="128" ry="18"/>
<text text-anchor="middle" x="227.109" y="-157.8" font-family="Times,serif" font-size="14.00">./business&#45;rules/responders/sprint</text>
</g>
<!-- 1&#45;&gt;2 -->
<g id="edge1" class="edge"><title>1&#45;&gt;2</title>
<path fill="none" stroke="black" d="M227.109,-215.697C227.109,-207.983 227.109,-198.712 227.109,-190.112"/>
<polygon fill="black" stroke="black" points="230.609,-190.104 227.109,-180.104 223.609,-190.104 230.609,-190.104"/>
</g>
<!-- 2&#45;&gt;0 -->
<g id="edge3" class="edge"><title>2&#45;&gt;0</title>
<path fill="none" stroke="black" d="M198.67,-144.411C182.381,-134.909 161.752,-122.876 144.201,-112.637"/>
<polygon fill="black" stroke="black" points="145.744,-109.485 135.343,-107.47 142.217,-115.532 145.744,-109.485"/>
</g>
<!-- 4 -->
<g id="node5" class="node"><title>4</title>
<ellipse fill="paleturquoise" stroke="paleturquoise" cx="348.109" cy="-90" rx="115.463" ry="18"/>
<text text-anchor="middle" x="348.109" y="-85.8" font-family="Times,serif" font-size="14.00">./business&#45;rules/entities/sprint</text>
</g>
<!-- 2&#45;&gt;4 -->
<g id="edge4" class="edge"><title>2&#45;&gt;4</title>
<path fill="none" stroke="black" d="M255.784,-144.411C272.209,-134.909 293.009,-122.876 310.707,-112.637"/>
<polygon fill="black" stroke="black" points="312.736,-115.507 319.639,-107.47 309.231,-109.448 312.736,-115.507"/>
</g>
<!-- 3 -->
<g id="node4" class="node"><title>3</title>
<ellipse fill="paleturquoise" stroke="paleturquoise" cx="348.109" cy="-18" rx="116.432" ry="18"/>
<text text-anchor="middle" x="348.109" y="-13.8" font-family="Times,serif" font-size="14.00">./business&#45;rules/entities/issues</text>
</g>
<!-- 4&#45;&gt;3 -->
<g id="edge2" class="edge"><title>4&#45;&gt;3</title>
<path fill="none" stroke="black" d="M348.109,-71.6966C348.109,-63.9827 348.109,-54.7125 348.109,-46.1124"/>
<polygon fill="black" stroke="black" points="351.609,-46.1043 348.109,-36.1043 344.609,-46.1044 351.609,-46.1043"/>
</g>
</g>
</svg>
