<?xml version="1.0" encoding="UTF-8" standalone="no"?>
<!DOCTYPE svg PUBLIC "-//W3C//DTD SVG 1.1//EN"
 "http://www.w3.org/Graphics/SVG/1.1/DTD/svg11.dtd">
<!-- Generated by graphviz version 2.38.0 (20140413.2041)
 -->
<!-- Title: godep Pages: 1 -->
<svg width="633pt" height="260pt"
 viewBox="0.00 0.00 632.75 260.00" xmlns="http://www.w3.org/2000/svg" xmlns:xlink="http://www.w3.org/1999/xlink">
<g id="graph0" class="graph" transform="scale(1 1) rotate(0) translate(4 256)">
<title>godep</title>
<polygon fill="white" stroke="none" points="-4,4 -4,-256 628.751,-256 628.751,4 -4,4"/>
<!-- 0 -->
<g id="node1" class="node"><title>0</title>
<ellipse fill="paleturquoise" stroke="paleturquoise" cx="451.466" cy="-90" rx="107.217" ry="18"/>
<text text-anchor="middle" x="451.466" y="-85.8" font-family="Times,serif" font-size="14.00">github.com/moul/cleanarch</text>
</g>
<!-- 1 -->
<g id="node2" class="node"><title>1</title>
<ellipse fill="paleturquoise" stroke="paleturquoise" cx="116.466" cy="-18" rx="116.432" ry="18"/>
<text text-anchor="middle" x="116.466" y="-13.8" font-family="Times,serif" font-size="14.00">./business&#45;rules/entities/issues</text>
</g>
<!-- 2 -->
<g id="node3" class="node"><title>2</title>
<ellipse fill="paleturquoise" stroke="paleturquoise" cx="116.466" cy="-90" rx="115.463" ry="18"/>
<text text-anchor="middle" x="116.466" y="-85.8" font-family="Times,serif" font-size="14.00">./business&#45;rules/entities/sprint</text>
</g>
<!-- 2&#45;&gt;1 -->
<g id="edge1" class="edge"><title>2&#45;&gt;1</title>
<path fill="none" stroke="black" d="M116.466,-71.6966C116.466,-63.9827 116.466,-54.7125 116.466,-46.1124"/>
<polygon fill="black" stroke="black" points="119.966,-46.1043 116.466,-36.1043 112.966,-46.1044 119.966,-46.1043"/>
</g>
<!-- 3 -->
<g id="node4" class="node"><title>3</title>
<ellipse fill="paleturquoise" stroke="paleturquoise" cx="498.466" cy="-162" rx="126.071" ry="18"/>
<text text-anchor="middle" x="498.466" y="-157.8" font-family="Times,serif" font-size="14.00">./business&#45;rules/requestors/sprint</text>
</g>
<!-- 3&#45;&gt;0 -->
<g id="edge2" class="edge"><title>3&#45;&gt;0</title>
<path fill="none" stroke="black" d="M487.089,-144.055C481.571,-135.837 474.826,-125.791 468.695,-116.66"/>
<polygon fill="black" stroke="black" points="471.545,-114.626 463.065,-108.275 465.734,-118.529 471.545,-114.626"/>
</g>
<!-- 4 -->
<g id="node5" class="node"><title>4</title>
<ellipse fill="paleturquoise" stroke="paleturquoise" cx="225.466" cy="-162" rx="128" ry="18"/>
<text text-anchor="middle" x="225.466" y="-157.8" font-family="Times,serif" font-size="14.00">./business&#45;rules/responders/sprint</text>
</g>
<!-- 4&#45;&gt;0 -->
<g id="edge3" class="edge"><title>4&#45;&gt;0</title>
<path fill="none" stroke="black" d="M275.903,-145.378C310.507,-134.66 356.54,-120.402 392.788,-109.175"/>
<polygon fill="black" stroke="black" points="394.218,-112.396 402.734,-106.094 392.146,-105.709 394.218,-112.396"/>
</g>
<!-- 4&#45;&gt;2 -->
<g id="edge4" class="edge"><title>4&#45;&gt;2</title>
<path fill="none" stroke="black" d="M199.358,-144.233C184.797,-134.882 166.485,-123.123 150.779,-113.036"/>
<polygon fill="black" stroke="black" points="152.667,-110.089 142.361,-107.63 148.884,-115.979 152.667,-110.089"/>
</g>
<!-- 5 -->
<g id="node6" class="node"><title>5</title>
<ellipse fill="paleturquoise" stroke="paleturquoise" cx="225.466" cy="-234" rx="134.289" ry="18"/>
<text text-anchor="middle" x="225.466" y="-229.8" font-family="Times,serif" font-size="14.00">./business&#45;rules/usecases/sprint/dto</text>
</g>
<!-- 5&#45;&gt;2 -->
<g id="edge5" class="edge"><title>5&#45;&gt;2</title>
<path fill="none" stroke="black" d="M145.16,-219.443C123.154,-211.641 101.73,-199.353 88.4659,-180 75.3432,-160.853 85.6863,-135.253 97.3357,-116.425"/>
<polygon fill="black" stroke="black" points="100.283,-118.313 102.881,-108.042 94.4448,-114.452 100.283,-118.313"/>
</g>
<!-- 5&#45;&gt;3 -->
<g id="edge6" class="edge"><title>5&#45;&gt;3</title>
<path fill="none" stroke="black" d="M284.703,-217.811C327.42,-206.858 385.19,-192.045 429.905,-180.58"/>
<polygon fill="black" stroke="black" points="430.997,-183.913 439.814,-178.039 429.258,-177.132 430.997,-183.913"/>
</g>
<!-- 5&#45;&gt;4 -->
<g id="edge7" class="edge"><title>5&#45;&gt;4</title>
<path fill="none" stroke="black" d="M225.466,-215.697C225.466,-207.983 225.466,-198.712 225.466,-190.112"/>
<polygon fill="black" stroke="black" points="228.966,-190.104 225.466,-180.104 221.966,-190.104 228.966,-190.104"/>
</g>
</g>
</svg>
