<?xml version="1.0" encoding="UTF-8" standalone="no"?>
<!DOCTYPE svg PUBLIC "-//W3C//DTD SVG 1.1//EN"
 "http://www.w3.org/Graphics/SVG/1.1/DTD/svg11.dtd">
<!-- Generated by graphviz version 2.38.0 (20140413.2041)
 -->
<!-- Title: godep Pages: 1 -->
<svg width="605pt" height="188pt"
 viewBox="0.00 0.00 604.65 188.00" xmlns="http://www.w3.org/2000/svg" xmlns:xlink="http://www.w3.org/1999/xlink">
<g id="graph0" class="graph" transform="scale(1 1) rotate(0) translate(4 184)">
<title>godep</title>
<polygon fill="white" stroke="none" points="-4,4 -4,-184 600.65,-184 600.65,4 -4,4"/>
<!-- 0 -->
<g id="node1" class="node"><title>0</title>
<ellipse fill="paleturquoise" stroke="paleturquoise" cx="107.109" cy="-18" rx="107.217" ry="18"/>
<text text-anchor="middle" x="107.109" y="-13.8" font-family="Times,serif" font-size="14.00">github.com/moul/cleanarch</text>
</g>
<!-- 1 -->
<g id="node2" class="node"><title>1</title>
<ellipse fill="paleturquoise" stroke="paleturquoise" cx="410.109" cy="-18" rx="103.359" ry="18"/>
<text text-anchor="middle" x="410.109" y="-13.8" font-family="Times,serif" font-size="14.00">./example/bizrules/entities</text>
</g>
<!-- 2 -->
<g id="node3" class="node"><title>2</title>
<ellipse fill="paleturquoise" stroke="paleturquoise" cx="486.109" cy="-90" rx="110.583" ry="18"/>
<text text-anchor="middle" x="486.109" y="-85.8" font-family="Times,serif" font-size="14.00">./example/bizrules/gateways</text>
</g>
<!-- 2&#45;&gt;1 -->
<g id="edge1" class="edge"><title>2&#45;&gt;1</title>
<path fill="none" stroke="black" d="M467.711,-72.055C458.189,-63.2847 446.406,-52.4318 435.982,-42.8312"/>
<polygon fill="black" stroke="black" points="438.063,-39.9894 428.337,-35.789 433.321,-45.1382 438.063,-39.9894"/>
</g>
<!-- 3 -->
<g id="node4" class="node"><title>3</title>
<ellipse fill="paleturquoise" stroke="paleturquoise" cx="200.109" cy="-162" rx="147.752" ry="18"/>
<text text-anchor="middle" x="200.109" y="-157.8" font-family="Times,serif" font-size="14.00">./example/bizrules/usecases/add_sprint</text>
</g>
<!-- 3&#45;&gt;0 -->
<g id="edge2" class="edge"><title>3&#45;&gt;0</title>
<path fill="none" stroke="black" d="M96.2968,-149.164C72.1232,-141.281 49.098,-128.521 34.1086,-108 24.671,-95.0798 26.8423,-86.2549 34.1086,-72 40.6333,-59.1999 51.8555,-48.7679 63.5708,-40.6503"/>
<polygon fill="black" stroke="black" points="65.6102,-43.5001 72.1285,-35.1477 61.8242,-37.6123 65.6102,-43.5001"/>
</g>
<!-- 3&#45;&gt;2 -->
<g id="edge3" class="edge"><title>3&#45;&gt;2</title>
<path fill="none" stroke="black" d="M262.873,-145.638C308.619,-134.441 370.563,-119.28 417.595,-107.769"/>
<polygon fill="black" stroke="black" points="418.512,-111.148 427.393,-105.371 416.848,-104.349 418.512,-111.148"/>
</g>
<!-- 4 -->
<g id="node5" class="node"><title>4</title>
<ellipse fill="paleturquoise" stroke="paleturquoise" cx="200.109" cy="-90" rx="157.423" ry="18"/>
<text text-anchor="middle" x="200.109" y="-85.8" font-family="Times,serif" font-size="14.00">./example/bizrules/usecases/add_sprint/io</text>
</g>
<!-- 3&#45;&gt;4 -->
<g id="edge4" class="edge"><title>3&#45;&gt;4</title>
<path fill="none" stroke="black" d="M200.109,-143.697C200.109,-135.983 200.109,-126.712 200.109,-118.112"/>
<polygon fill="black" stroke="black" points="203.609,-118.104 200.109,-108.104 196.609,-118.104 203.609,-118.104"/>
</g>
<!-- 4&#45;&gt;0 -->
<g id="edge5" class="edge"><title>4&#45;&gt;0</title>
<path fill="none" stroke="black" d="M177.596,-72.055C165.601,-63.0268 150.675,-51.7916 137.649,-41.9875"/>
<polygon fill="black" stroke="black" points="139.508,-39.0064 129.414,-35.789 135.299,-44.5992 139.508,-39.0064"/>
</g>
<!-- 4&#45;&gt;1 -->
<g id="edge6" class="edge"><title>4&#45;&gt;1</title>
<path fill="none" stroke="black" d="M248.551,-72.8527C280.301,-62.269 321.887,-48.4071 354.915,-37.3977"/>
<polygon fill="black" stroke="black" points="356.048,-40.7095 364.428,-34.2267 353.835,-34.0687 356.048,-40.7095"/>
</g>
</g>
</svg>
