<?xml version="1.0" encoding="UTF-8" standalone="no"?>
<!DOCTYPE svg PUBLIC "-//W3C//DTD SVG 1.1//EN"
 "http://www.w3.org/Graphics/SVG/1.1/DTD/svg11.dtd">
<!-- Generated by graphviz version 2.38.0 (20140413.2041)
 -->
<!-- Title: godep Pages: 1 -->
<svg width="562pt" height="188pt"
 viewBox="0.00 0.00 561.75 188.00" xmlns="http://www.w3.org/2000/svg" xmlns:xlink="http://www.w3.org/1999/xlink">
<g id="graph0" class="graph" transform="scale(1 1) rotate(0) translate(4 184)">
<title>godep</title>
<polygon fill="white" stroke="none" points="-4,4 -4,-184 557.753,-184 557.753,4 -4,4"/>
<!-- 0 -->
<g id="node1" class="node"><title>0</title>
<ellipse fill="paleturquoise" stroke="paleturquoise" cx="253.541" cy="-18" rx="103.359" ry="18"/>
<text text-anchor="middle" x="253.541" y="-13.8" font-family="Times,serif" font-size="14.00">./example/bizrules/entities</text>
</g>
<!-- 1 -->
<g id="node2" class="node"><title>1</title>
<ellipse fill="paleturquoise" stroke="paleturquoise" cx="110.541" cy="-90" rx="110.583" ry="18"/>
<text text-anchor="middle" x="110.541" y="-85.8" font-family="Times,serif" font-size="14.00">./example/bizrules/gateways</text>
</g>
<!-- 1&#45;&gt;0 -->
<g id="edge1" class="edge"><title>1&#45;&gt;0</title>
<path fill="none" stroke="black" d="M143.708,-72.7646C163.832,-62.9137 189.708,-50.2472 211.289,-39.6831"/>
<polygon fill="black" stroke="black" points="213.112,-42.6875 220.555,-35.1473 210.034,-36.4004 213.112,-42.6875"/>
</g>
<!-- 2 -->
<g id="node3" class="node"><title>2</title>
<ellipse fill="paleturquoise" stroke="paleturquoise" cx="253.541" cy="-162" rx="147.752" ry="18"/>
<text text-anchor="middle" x="253.541" y="-157.8" font-family="Times,serif" font-size="14.00">./example/bizrules/usecases/add_sprint</text>
</g>
<!-- 2&#45;&gt;1 -->
<g id="edge2" class="edge"><title>2&#45;&gt;1</title>
<path fill="none" stroke="black" d="M219.652,-144.411C199.652,-134.62 174.162,-122.143 152.85,-111.71"/>
<polygon fill="black" stroke="black" points="154.214,-108.482 143.694,-107.228 151.137,-114.769 154.214,-108.482"/>
</g>
<!-- 3 -->
<g id="node4" class="node"><title>3</title>
<ellipse fill="paleturquoise" stroke="paleturquoise" cx="396.541" cy="-90" rx="157.423" ry="18"/>
<text text-anchor="middle" x="396.541" y="-85.8" font-family="Times,serif" font-size="14.00">./example/bizrules/usecases/add_sprint/io</text>
</g>
<!-- 2&#45;&gt;3 -->
<g id="edge3" class="edge"><title>2&#45;&gt;3</title>
<path fill="none" stroke="black" d="M287.43,-144.411C307.143,-134.761 332.189,-122.501 353.311,-112.162"/>
<polygon fill="black" stroke="black" points="354.957,-115.253 362.4,-107.713 351.88,-108.966 354.957,-115.253"/>
</g>
<!-- 3&#45;&gt;0 -->
<g id="edge4" class="edge"><title>3&#45;&gt;0</title>
<path fill="none" stroke="black" d="M362.652,-72.411C342.652,-62.6204 317.162,-50.1428 295.85,-39.7103"/>
<polygon fill="black" stroke="black" points="297.214,-36.4816 286.694,-35.2285 294.137,-42.7687 297.214,-36.4816"/>
</g>
</g>
</svg>
