<?xml version="1.0" encoding="UTF-8" standalone="no"?>
<!DOCTYPE svg PUBLIC "-//W3C//DTD SVG 1.1//EN"
 "http://www.w3.org/Graphics/SVG/1.1/DTD/svg11.dtd">
<!-- Generated by graphviz version 2.38.0 (20140413.2041)
 -->
<!-- Title: godep Pages: 1 -->
<svg width="449pt" height="188pt"
 viewBox="0.00 0.00 449.43 188.00" xmlns="http://www.w3.org/2000/svg" xmlns:xlink="http://www.w3.org/1999/xlink">
<g id="graph0" class="graph" transform="scale(1 1) rotate(0) translate(4 184)">
<title>godep</title>
<polygon fill="white" stroke="none" points="-4,4 -4,-184 445.426,-184 445.426,4 -4,4"/>
<!-- 0 -->
<g id="node1" class="node"><title>0</title>
<ellipse fill="paleturquoise" stroke="paleturquoise" cx="331.179" cy="-18" rx="107.217" ry="18"/>
<text text-anchor="middle" x="331.179" y="-13.8" font-family="Times,serif" font-size="14.00">github.com/moul/cleanarch</text>
</g>
<!-- 1 -->
<g id="node2" class="node"><title>1</title>
<ellipse fill="paleturquoise" stroke="paleturquoise" cx="103.179" cy="-18" rx="103.359" ry="18"/>
<text text-anchor="middle" x="103.179" y="-13.8" font-family="Times,serif" font-size="14.00">./example/bizrules/entities</text>
</g>
<!-- 2 -->
<g id="node3" class="node"><title>2</title>
<ellipse fill="paleturquoise" stroke="paleturquoise" cx="194.179" cy="-162" rx="159.837" ry="18"/>
<text text-anchor="middle" x="194.179" y="-157.8" font-family="Times,serif" font-size="14.00">./example/bizrules/usecases/get_sprint/dto</text>
</g>
<!-- 2&#45;&gt;1 -->
<g id="edge1" class="edge"><title>2&#45;&gt;1</title>
<path fill="none" stroke="black" d="M161.893,-144.356C147.644,-135.427 131.945,-123.126 122.179,-108 110.287,-89.5808 105.705,-64.9799 104.002,-46.3108"/>
<polygon fill="black" stroke="black" points="107.477,-45.8316 103.298,-36.0957 100.494,-46.3126 107.477,-45.8316"/>
</g>
<!-- 3 -->
<g id="node4" class="node"><title>3</title>
<ellipse fill="paleturquoise" stroke="paleturquoise" cx="286.179" cy="-90" rx="155.494" ry="18"/>
<text text-anchor="middle" x="286.179" y="-85.8" font-family="Times,serif" font-size="14.00">./example/bizrules/usecases/get_sprint/io</text>
</g>
<!-- 2&#45;&gt;3 -->
<g id="edge2" class="edge"><title>2&#45;&gt;3</title>
<path fill="none" stroke="black" d="M216.45,-144.055C228.228,-135.093 242.865,-123.957 255.682,-114.204"/>
<polygon fill="black" stroke="black" points="257.956,-116.872 263.795,-108.032 253.717,-111.301 257.956,-116.872"/>
</g>
<!-- 3&#45;&gt;0 -->
<g id="edge3" class="edge"><title>3&#45;&gt;0</title>
<path fill="none" stroke="black" d="M297.303,-71.6966C302.534,-63.5589 308.879,-53.689 314.657,-44.7013"/>
<polygon fill="black" stroke="black" points="317.72,-46.4088 320.183,-36.1043 311.832,-42.6235 317.72,-46.4088"/>
</g>
<!-- 3&#45;&gt;1 -->
<g id="edge4" class="edge"><title>3&#45;&gt;1</title>
<path fill="none" stroke="black" d="M243.274,-72.5881C216.435,-62.3221 181.739,-49.0504 153.591,-38.2832"/>
<polygon fill="black" stroke="black" points="154.522,-34.892 143.931,-34.5882 152.021,-41.43 154.522,-34.892"/>
</g>
</g>
</svg>
