<?xml version="1.0" encoding="UTF-8" standalone="no"?>
<!DOCTYPE svg PUBLIC "-//W3C//DTD SVG 1.1//EN"
 "http://www.w3.org/Graphics/SVG/1.1/DTD/svg11.dtd">
<!-- Generated by graphviz version 2.38.0 (20140413.2041)
 -->
<!-- Title: godep Pages: 1 -->
<svg width="415pt" height="188pt"
 viewBox="0.00 0.00 414.92 188.00" xmlns="http://www.w3.org/2000/svg" xmlns:xlink="http://www.w3.org/1999/xlink">
<g id="graph0" class="graph" transform="scale(1 1) rotate(0) translate(4 184)">
<title>godep</title>
<polygon fill="white" stroke="none" points="-4,4 -4,-184 410.915,-184 410.915,4 -4,4"/>
<!-- 0 -->
<g id="node1" class="node"><title>0</title>
<ellipse fill="paleturquoise" stroke="paleturquoise" cx="159.668" cy="-18" rx="103.359" ry="18"/>
<text text-anchor="middle" x="159.668" y="-13.8" font-family="Times,serif" font-size="14.00">./example/bizrules/entities</text>
</g>
<!-- 1 -->
<g id="node2" class="node"><title>1</title>
<ellipse fill="paleturquoise" stroke="paleturquoise" cx="159.668" cy="-162" rx="159.837" ry="18"/>
<text text-anchor="middle" x="159.668" y="-157.8" font-family="Times,serif" font-size="14.00">./example/bizrules/usecases/get_sprint/dto</text>
</g>
<!-- 1&#45;&gt;0 -->
<g id="edge1" class="edge"><title>1&#45;&gt;0</title>
<path fill="none" stroke="black" d="M124.399,-144.283C110.274,-135.598 95.5124,-123.514 87.6685,-108 80.4491,-93.7213 80.4491,-86.2787 87.6685,-72 94.1494,-59.1818 105.353,-48.7053 117.018,-40.5524"/>
<polygon fill="black" stroke="black" points="119.05,-43.4063 125.533,-35.0262 115.239,-37.5345 119.05,-43.4063"/>
</g>
<!-- 2 -->
<g id="node3" class="node"><title>2</title>
<ellipse fill="paleturquoise" stroke="paleturquoise" cx="251.668" cy="-90" rx="155.494" ry="18"/>
<text text-anchor="middle" x="251.668" y="-85.8" font-family="Times,serif" font-size="14.00">./example/bizrules/usecases/get_sprint/io</text>
</g>
<!-- 1&#45;&gt;2 -->
<g id="edge2" class="edge"><title>1&#45;&gt;2</title>
<path fill="none" stroke="black" d="M181.939,-144.055C193.717,-135.093 208.354,-123.957 221.172,-114.204"/>
<polygon fill="black" stroke="black" points="223.445,-116.872 229.284,-108.032 219.206,-111.301 223.445,-116.872"/>
</g>
<!-- 2&#45;&gt;0 -->
<g id="edge3" class="edge"><title>2&#45;&gt;0</title>
<path fill="none" stroke="black" d="M229.398,-72.055C217.532,-63.0268 202.766,-51.7916 189.881,-41.9875"/>
<polygon fill="black" stroke="black" points="191.812,-39.0588 181.734,-35.789 187.573,-44.6297 191.812,-39.0588"/>
</g>
</g>
</svg>
