<?xml version="1.0" encoding="UTF-8" standalone="no"?>
<!DOCTYPE svg PUBLIC "-//W3C//DTD SVG 1.1//EN"
 "http://www.w3.org/Graphics/SVG/1.1/DTD/svg11.dtd">
<!-- Generated by graphviz version 2.38.0 (20140413.2041)
 -->
<!-- Title: godep Pages: 1 -->
<svg width="516pt" height="260pt"
 viewBox="0.00 0.00 516.41 260.00" xmlns="http://www.w3.org/2000/svg" xmlns:xlink="http://www.w3.org/1999/xlink">
<g id="graph0" class="graph" transform="scale(1 1) rotate(0) translate(4 256)">
<title>godep</title>
<polygon fill="white" stroke="none" points="-4,4 -4,-256 512.411,-256 512.411,4 -4,4"/>
<!-- 0 -->
<g id="node1" class="node"><title>0</title>
<ellipse fill="paleturquoise" stroke="paleturquoise" cx="110.567" cy="-162" rx="95.6597" ry="18"/>
<text text-anchor="middle" x="110.567" y="-157.8" font-family="Times,serif" font-size="14.00">github.com/jinzhu/gorm</text>
</g>
<!-- 1 -->
<g id="node2" class="node"><title>1</title>
<ellipse fill="paleturquoise" stroke="paleturquoise" cx="110.567" cy="-90" rx="110.635" ry="18"/>
<text text-anchor="middle" x="110.567" y="-85.8" font-family="Times,serif" font-size="14.00">github.com/jinzhu/inflection</text>
</g>
<!-- 0&#45;&gt;1 -->
<g id="edge1" class="edge"><title>0&#45;&gt;1</title>
<path fill="none" stroke="black" d="M110.567,-143.697C110.567,-135.983 110.567,-126.712 110.567,-118.112"/>
<polygon fill="black" stroke="black" points="114.067,-118.104 110.567,-108.104 107.067,-118.104 114.067,-118.104"/>
</g>
<!-- 2 -->
<g id="node3" class="node"><title>2</title>
<ellipse fill="paleturquoise" stroke="paleturquoise" cx="234.567" cy="-234" rx="150.685" ry="18"/>
<text text-anchor="middle" x="234.567" y="-229.8" font-family="Times,serif" font-size="14.00">./app/repositories/sprint/sprintrepogorm</text>
</g>
<!-- 2&#45;&gt;0 -->
<g id="edge2" class="edge"><title>2&#45;&gt;0</title>
<path fill="none" stroke="black" d="M204.866,-216.233C188.027,-206.727 166.776,-194.731 148.713,-184.534"/>
<polygon fill="black" stroke="black" points="150.027,-181.257 139.598,-179.388 146.586,-187.352 150.027,-181.257"/>
</g>
<!-- 3 -->
<g id="node4" class="node"><title>3</title>
<ellipse fill="paleturquoise" stroke="paleturquoise" cx="369.567" cy="-90" rx="115.463" ry="18"/>
<text text-anchor="middle" x="369.567" y="-85.8" font-family="Times,serif" font-size="14.00">./business&#45;rules/entities/sprint</text>
</g>
<!-- 2&#45;&gt;3 -->
<g id="edge3" class="edge"><title>2&#45;&gt;3</title>
<path fill="none" stroke="black" d="M233.872,-215.67C233.999,-196.182 237.053,-164.578 253.567,-144 265.958,-128.56 283.845,-117.44 301.876,-109.505"/>
<polygon fill="black" stroke="black" points="303.369,-112.676 311.29,-105.641 300.71,-106.201 303.369,-112.676"/>
</g>
<!-- 4 -->
<g id="node5" class="node"><title>4</title>
<ellipse fill="paleturquoise" stroke="paleturquoise" cx="385.567" cy="-162" rx="122.688" ry="18"/>
<text text-anchor="middle" x="385.567" y="-157.8" font-family="Times,serif" font-size="14.00">./business&#45;rules/gateways/sprint</text>
</g>
<!-- 2&#45;&gt;4 -->
<g id="edge4" class="edge"><title>2&#45;&gt;4</title>
<path fill="none" stroke="black" d="M270.352,-216.411C291.49,-206.612 318.435,-194.121 340.951,-183.683"/>
<polygon fill="black" stroke="black" points="342.7,-186.73 350.3,-179.349 339.756,-180.38 342.7,-186.73"/>
</g>
<!-- 5 -->
<g id="node6" class="node"><title>5</title>
<ellipse fill="paleturquoise" stroke="paleturquoise" cx="369.567" cy="-18" rx="116.432" ry="18"/>
<text text-anchor="middle" x="369.567" y="-13.8" font-family="Times,serif" font-size="14.00">./business&#45;rules/entities/issues</text>
</g>
<!-- 3&#45;&gt;5 -->
<g id="edge5" class="edge"><title>3&#45;&gt;5</title>
<path fill="none" stroke="black" d="M369.567,-71.6966C369.567,-63.9827 369.567,-54.7125 369.567,-46.1124"/>
<polygon fill="black" stroke="black" points="373.067,-46.1043 369.567,-36.1043 366.067,-46.1044 373.067,-46.1043"/>
</g>
<!-- 4&#45;&gt;3 -->
<g id="edge6" class="edge"><title>4&#45;&gt;3</title>
<path fill="none" stroke="black" d="M381.612,-143.697C379.849,-135.983 377.73,-126.712 375.765,-118.112"/>
<polygon fill="black" stroke="black" points="379.117,-117.073 373.477,-108.104 372.293,-118.633 379.117,-117.073"/>
</g>
</g>
</svg>
