<?xml version="1.0" encoding="UTF-8" standalone="no"?>
<!DOCTYPE svg PUBLIC "-//W3C//DTD SVG 1.1//EN"
 "http://www.w3.org/Graphics/SVG/1.1/DTD/svg11.dtd">
<!-- Generated by graphviz version 2.38.0 (20140413.2041)
 -->
<!-- Title: godep Pages: 1 -->
<svg width="2554pt" height="404pt"
 viewBox="0.00 0.00 2554.45 404.00" xmlns="http://www.w3.org/2000/svg" xmlns:xlink="http://www.w3.org/1999/xlink">
<g id="graph0" class="graph" transform="scale(1 1) rotate(0) translate(4 400)">
<title>godep</title>
<polygon fill="white" stroke="none" points="-4,4 -4,-400 2550.45,-400 2550.45,4 -4,4"/>
<!-- 0 -->
<g id="node1" class="node"><title>0</title>
<ellipse fill="paleturquoise" stroke="paleturquoise" cx="871.886" cy="-234" rx="100.004" ry="18"/>
<text text-anchor="middle" x="871.886" y="-229.8" font-family="Times,serif" font-size="14.00">github.com/gin&#45;gonic/gin</text>
</g>
<!-- 1 -->
<g id="node2" class="node"><title>1</title>
<ellipse fill="paleturquoise" stroke="paleturquoise" cx="598.886" cy="-162" rx="129.963" ry="18"/>
<text text-anchor="middle" x="598.886" y="-157.8" font-family="Times,serif" font-size="14.00">github.com/gin&#45;gonic/gin/binding</text>
</g>
<!-- 0&#45;&gt;1 -->
<g id="edge1" class="edge"><title>0&#45;&gt;1</title>
<path fill="none" stroke="black" d="M816.969,-218.919C774.031,-207.909 714.081,-192.537 667.901,-180.696"/>
<polygon fill="black" stroke="black" points="668.526,-177.243 657.97,-178.15 666.788,-184.024 668.526,-177.243"/>
</g>
<!-- 2 -->
<g id="node3" class="node"><title>2</title>
<ellipse fill="paleturquoise" stroke="paleturquoise" cx="871.886" cy="-162" rx="125.085" ry="18"/>
<text text-anchor="middle" x="871.886" y="-157.8" font-family="Times,serif" font-size="14.00">github.com/gin&#45;gonic/gin/render</text>
</g>
<!-- 0&#45;&gt;2 -->
<g id="edge2" class="edge"><title>0&#45;&gt;2</title>
<path fill="none" stroke="black" d="M871.886,-215.697C871.886,-207.983 871.886,-198.712 871.886,-190.112"/>
<polygon fill="black" stroke="black" points="875.386,-190.104 871.886,-180.104 868.386,-190.104 875.386,-190.104"/>
</g>
<!-- 3 -->
<g id="node4" class="node"><title>3</title>
<ellipse fill="paleturquoise" stroke="paleturquoise" cx="1129.89" cy="-162" rx="114.952" ry="18"/>
<text text-anchor="middle" x="1129.89" y="-157.8" font-family="Times,serif" font-size="14.00">github.com/manucorporat/sse</text>
</g>
<!-- 0&#45;&gt;3 -->
<g id="edge3" class="edge"><title>0&#45;&gt;3</title>
<path fill="none" stroke="black" d="M924.719,-218.666C965.339,-207.644 1021.66,-192.364 1065.02,-180.6"/>
<polygon fill="black" stroke="black" points="1066.16,-183.916 1074.9,-177.919 1064.33,-177.16 1066.16,-183.916"/>
</g>
<!-- 4 -->
<g id="node5" class="node"><title>4</title>
<ellipse fill="paleturquoise" stroke="paleturquoise" cx="119.886" cy="-162" rx="119.772" ry="18"/>
<text text-anchor="middle" x="119.886" y="-157.8" font-family="Times,serif" font-size="14.00">github.com/mattn/go&#45;colorable</text>
</g>
<!-- 0&#45;&gt;4 -->
<g id="edge4" class="edge"><title>0&#45;&gt;4</title>
<path fill="none" stroke="black" d="M780.444,-226.549C658.892,-217.669 437.474,-200.437 248.886,-180 237.856,-178.805 226.31,-177.442 214.853,-176.021"/>
<polygon fill="black" stroke="black" points="215.18,-172.535 204.822,-174.759 214.307,-179.48 215.18,-172.535"/>
</g>
<!-- 5 -->
<g id="node6" class="node"><title>5</title>
<ellipse fill="paleturquoise" stroke="paleturquoise" cx="354.886" cy="-162" rx="96.7919" ry="18"/>
<text text-anchor="middle" x="354.886" y="-157.8" font-family="Times,serif" font-size="14.00">golang.org/x/net/context</text>
</g>
<!-- 0&#45;&gt;5 -->
<g id="edge5" class="edge"><title>0&#45;&gt;5</title>
<path fill="none" stroke="black" d="M790.867,-223.368C707.707,-213.296 574.611,-196.662 459.886,-180 451.611,-178.798 442.978,-177.49 434.373,-176.15"/>
<polygon fill="black" stroke="black" points="434.73,-172.663 424.307,-174.567 433.642,-179.578 434.73,-172.663"/>
</g>
<!-- 6 -->
<g id="node7" class="node"><title>6</title>
<ellipse fill="paleturquoise" stroke="paleturquoise" cx="598.886" cy="-90" rx="131.391" ry="18"/>
<text text-anchor="middle" x="598.886" y="-85.8" font-family="Times,serif" font-size="14.00">gopkg.in/bluesuncorp/validator.v5</text>
</g>
<!-- 1&#45;&gt;6 -->
<g id="edge6" class="edge"><title>1&#45;&gt;6</title>
<path fill="none" stroke="black" d="M598.886,-143.697C598.886,-135.983 598.886,-126.712 598.886,-118.112"/>
<polygon fill="black" stroke="black" points="602.386,-118.104 598.886,-108.104 595.386,-118.104 602.386,-118.104"/>
</g>
<!-- 7 -->
<g id="node8" class="node"><title>7</title>
<ellipse fill="paleturquoise" stroke="paleturquoise" cx="2357.89" cy="-234" rx="95.6597" ry="18"/>
<text text-anchor="middle" x="2357.89" y="-229.8" font-family="Times,serif" font-size="14.00">github.com/jinzhu/gorm</text>
</g>
<!-- 8 -->
<g id="node9" class="node"><title>8</title>
<ellipse fill="paleturquoise" stroke="paleturquoise" cx="2372.89" cy="-162" rx="110.635" ry="18"/>
<text text-anchor="middle" x="2372.89" y="-157.8" font-family="Times,serif" font-size="14.00">github.com/jinzhu/inflection</text>
</g>
<!-- 7&#45;&gt;8 -->
<g id="edge7" class="edge"><title>7&#45;&gt;8</title>
<path fill="none" stroke="black" d="M2361.59,-215.697C2363.25,-207.983 2365.23,-198.712 2367.08,-190.112"/>
<polygon fill="black" stroke="black" points="2370.55,-190.616 2369.22,-180.104 2363.7,-189.149 2370.55,-190.616"/>
</g>
<!-- 9 -->
<g id="node10" class="node"><title>9</title>
<ellipse fill="#ffb90f" stroke="#ffb90f" cx="2435.89" cy="-306" rx="110.635" ry="18"/>
<text text-anchor="middle" x="2435.89" y="-301.8" font-family="Times,serif" font-size="14.00">github.com/mattn/go&#45;sqlite3</text>
</g>
<!-- 10 -->
<g id="node11" class="node"><title>10</title>
<ellipse fill="paleturquoise" stroke="paleturquoise" cx="1699.89" cy="-90" rx="107.217" ry="18"/>
<text text-anchor="middle" x="1699.89" y="-85.8" font-family="Times,serif" font-size="14.00">github.com/moul/cleanarch</text>
</g>
<!-- 11 -->
<g id="node12" class="node"><title>11</title>
<ellipse fill="paleturquoise" stroke="paleturquoise" cx="1681.89" cy="-306" rx="103.86" ry="18"/>
<text text-anchor="middle" x="1681.89" y="-301.8" font-family="Times,serif" font-size="14.00">./app/controllers/api/sprint</text>
</g>
<!-- 11&#45;&gt;0 -->
<g id="edge8" class="edge"><title>11&#45;&gt;0</title>
<path fill="none" stroke="black" d="M1591.33,-297.174C1438.02,-283.926 1128.64,-257.189 970.23,-243.499"/>
<polygon fill="black" stroke="black" points="970.282,-239.99 960.018,-242.616 969.679,-246.964 970.282,-239.99"/>
</g>
<!-- 12 -->
<g id="node13" class="node"><title>12</title>
<ellipse fill="paleturquoise" stroke="paleturquoise" cx="1681.89" cy="-234" rx="111.587" ry="18"/>
<text text-anchor="middle" x="1681.89" y="-229.8" font-family="Times,serif" font-size="14.00">./app/view&#45;models/api/sprint</text>
</g>
<!-- 11&#45;&gt;12 -->
<g id="edge9" class="edge"><title>11&#45;&gt;12</title>
<path fill="none" stroke="black" d="M1681.89,-287.697C1681.89,-279.983 1681.89,-270.712 1681.89,-262.112"/>
<polygon fill="black" stroke="black" points="1685.39,-262.104 1681.89,-252.104 1678.39,-262.104 1685.39,-262.104"/>
</g>
<!-- 13 -->
<g id="node14" class="node"><title>13</title>
<ellipse fill="paleturquoise" stroke="paleturquoise" cx="2082.89" cy="-162" rx="122.688" ry="18"/>
<text text-anchor="middle" x="2082.89" y="-157.8" font-family="Times,serif" font-size="14.00">./business&#45;rules/gateways/sprint</text>
</g>
<!-- 11&#45;&gt;13 -->
<g id="edge10" class="edge"><title>11&#45;&gt;13</title>
<path fill="none" stroke="black" d="M1784.69,-303.264C1882.8,-299.433 2021.35,-287.647 2060.89,-252 2077.92,-236.642 2082.75,-210.374 2083.71,-190.344"/>
<polygon fill="black" stroke="black" points="2087.22,-190.315 2083.91,-180.249 2080.22,-190.18 2087.22,-190.315"/>
</g>
<!-- 14 -->
<g id="node15" class="node"><title>14</title>
<ellipse fill="paleturquoise" stroke="paleturquoise" cx="1426.89" cy="-162" rx="126.071" ry="18"/>
<text text-anchor="middle" x="1426.89" y="-157.8" font-family="Times,serif" font-size="14.00">./business&#45;rules/requestors/sprint</text>
</g>
<!-- 11&#45;&gt;14 -->
<g id="edge11" class="edge"><title>11&#45;&gt;14</title>
<path fill="none" stroke="black" d="M1636.71,-289.753C1610.89,-280.298 1578.28,-267.093 1550.89,-252 1516.21,-232.9 1479.78,-205.785 1455.45,-186.513"/>
<polygon fill="black" stroke="black" points="1457.37,-183.564 1447.37,-180.05 1452.99,-189.03 1457.37,-183.564"/>
</g>
<!-- 15 -->
<g id="node16" class="node"><title>15</title>
<ellipse fill="paleturquoise" stroke="paleturquoise" cx="1699.89" cy="-162" rx="128" ry="18"/>
<text text-anchor="middle" x="1699.89" y="-157.8" font-family="Times,serif" font-size="14.00">./business&#45;rules/responders/sprint</text>
</g>
<!-- 11&#45;&gt;15 -->
<g id="edge12" class="edge"><title>11&#45;&gt;15</title>
<path fill="none" stroke="black" d="M1617.1,-291.794C1595.49,-283.971 1573.69,-271.58 1560.89,-252 1552.13,-238.608 1551.81,-229.176 1560.89,-216 1572.6,-199.002 1590.54,-187.452 1609.69,-179.605"/>
<polygon fill="black" stroke="black" points="1611.04,-182.838 1619.16,-176.042 1608.57,-176.286 1611.04,-182.838"/>
</g>
<!-- 16 -->
<g id="node17" class="node"><title>16</title>
<ellipse fill="paleturquoise" stroke="paleturquoise" cx="1931.89" cy="-234" rx="120.274" ry="18"/>
<text text-anchor="middle" x="1931.89" y="-229.8" font-family="Times,serif" font-size="14.00">./business&#45;rules/usecases/sprint</text>
</g>
<!-- 11&#45;&gt;16 -->
<g id="edge13" class="edge"><title>11&#45;&gt;16</title>
<path fill="none" stroke="black" d="M1733.99,-290.411C1772.94,-279.505 1826.4,-264.535 1867.94,-252.904"/>
<polygon fill="black" stroke="black" points="1869,-256.242 1877.69,-250.175 1867.12,-249.501 1869,-256.242"/>
</g>
<!-- 12&#45;&gt;15 -->
<g id="edge17" class="edge"><title>12&#45;&gt;15</title>
<path fill="none" stroke="black" d="M1686.34,-215.697C1688.34,-207.898 1690.76,-198.509 1692.99,-189.829"/>
<polygon fill="black" stroke="black" points="1696.39,-190.661 1695.49,-180.104 1689.61,-188.918 1696.39,-190.661"/>
</g>
<!-- 18 -->
<g id="node19" class="node"><title>18</title>
<ellipse fill="paleturquoise" stroke="paleturquoise" cx="2036.89" cy="-90" rx="115.463" ry="18"/>
<text text-anchor="middle" x="2036.89" y="-85.8" font-family="Times,serif" font-size="14.00">./business&#45;rules/entities/sprint</text>
</g>
<!-- 13&#45;&gt;18 -->
<g id="edge19" class="edge"><title>13&#45;&gt;18</title>
<path fill="none" stroke="black" d="M2071.75,-144.055C2066.35,-135.837 2059.75,-125.791 2053.75,-116.66"/>
<polygon fill="black" stroke="black" points="2056.65,-114.71 2048.24,-108.275 2050.81,-118.555 2056.65,-114.71"/>
</g>
<!-- 14&#45;&gt;10 -->
<g id="edge20" class="edge"><title>14&#45;&gt;10</title>
<path fill="none" stroke="black" d="M1485.45,-145.983C1529.09,-134.793 1588.72,-119.504 1634.02,-107.888"/>
<polygon fill="black" stroke="black" points="1634.93,-111.268 1643.75,-105.394 1633.19,-104.487 1634.93,-111.268"/>
</g>
<!-- 15&#45;&gt;10 -->
<g id="edge21" class="edge"><title>15&#45;&gt;10</title>
<path fill="none" stroke="black" d="M1699.89,-143.697C1699.89,-135.983 1699.89,-126.712 1699.89,-118.112"/>
<polygon fill="black" stroke="black" points="1703.39,-118.104 1699.89,-108.104 1696.39,-118.104 1703.39,-118.104"/>
</g>
<!-- 15&#45;&gt;18 -->
<g id="edge22" class="edge"><title>15&#45;&gt;18</title>
<path fill="none" stroke="black" d="M1768.49,-146.75C1824.34,-135.149 1903.11,-118.788 1960.87,-106.79"/>
<polygon fill="black" stroke="black" points="1961.59,-110.214 1970.67,-104.753 1960.17,-103.36 1961.59,-110.214"/>
</g>
<!-- 16&#45;&gt;10 -->
<g id="edge23" class="edge"><title>16&#45;&gt;10</title>
<path fill="none" stroke="black" d="M1915.17,-215.844C1892.75,-193.113 1853.82,-154.641 1836.89,-144 1813.72,-129.447 1785.92,-117.785 1761.43,-109.146"/>
<polygon fill="black" stroke="black" points="1762.47,-105.801 1751.87,-105.866 1760.19,-112.422 1762.47,-105.801"/>
</g>
<!-- 16&#45;&gt;13 -->
<g id="edge26" class="edge"><title>16&#45;&gt;13</title>
<path fill="none" stroke="black" d="M1966.91,-216.765C1988.27,-206.861 2015.77,-194.111 2038.64,-183.513"/>
<polygon fill="black" stroke="black" points="2040.19,-186.65 2047.79,-179.268 2037.25,-180.299 2040.19,-186.65"/>
</g>
<!-- 16&#45;&gt;14 -->
<g id="edge27" class="edge"><title>16&#45;&gt;14</title>
<path fill="none" stroke="black" d="M1846.79,-221.205C1757.56,-208.836 1617.57,-189.431 1524.06,-176.469"/>
<polygon fill="black" stroke="black" points="1524.41,-172.985 1514.03,-175.079 1523.45,-179.919 1524.41,-172.985"/>
</g>
<!-- 16&#45;&gt;15 -->
<g id="edge28" class="edge"><title>16&#45;&gt;15</title>
<path fill="none" stroke="black" d="M1880.97,-217.638C1845.71,-206.998 1798.58,-192.778 1761.24,-181.513"/>
<polygon fill="black" stroke="black" points="1762.07,-178.106 1751.48,-178.568 1760.04,-184.807 1762.07,-178.106"/>
</g>
<!-- 16&#45;&gt;18 -->
<g id="edge25" class="edge"><title>16&#45;&gt;18</title>
<path fill="none" stroke="black" d="M1931.67,-215.68C1932.27,-196.49 1935.77,-165.431 1950.89,-144 1960.26,-130.716 1974.12,-120.103 1987.99,-111.969"/>
<polygon fill="black" stroke="black" points="1989.98,-114.866 1997.06,-106.978 1986.61,-108.733 1989.98,-114.866"/>
</g>
<!-- 19 -->
<g id="node20" class="node"><title>19</title>
<ellipse fill="paleturquoise" stroke="paleturquoise" cx="1964.89" cy="-18" rx="116.432" ry="18"/>
<text text-anchor="middle" x="1964.89" y="-13.8" font-family="Times,serif" font-size="14.00">./business&#45;rules/entities/issues</text>
</g>
<!-- 16&#45;&gt;19 -->
<g id="edge24" class="edge"><title>16&#45;&gt;19</title>
<path fill="none" stroke="black" d="M1924.53,-215.807C1912.71,-185.53 1892.76,-121.242 1912.89,-72 1917.41,-60.925 1925.49,-50.914 1933.95,-42.6513"/>
<polygon fill="black" stroke="black" points="1936.37,-45.1804 1941.41,-35.8574 1931.66,-40.0068 1936.37,-45.1804"/>
</g>
<!-- 17 -->
<g id="node18" class="node"><title>17</title>
<ellipse fill="paleturquoise" stroke="paleturquoise" cx="2117.89" cy="-306" rx="150.685" ry="18"/>
<text text-anchor="middle" x="2117.89" y="-301.8" font-family="Times,serif" font-size="14.00">./app/repositories/sprint/sprintrepogorm</text>
</g>
<!-- 17&#45;&gt;7 -->
<g id="edge14" class="edge"><title>17&#45;&gt;7</title>
<path fill="none" stroke="black" d="M2172.35,-289.116C2209.8,-278.192 2259.54,-263.685 2298.09,-252.441"/>
<polygon fill="black" stroke="black" points="2299.52,-255.67 2308.14,-249.51 2297.56,-248.95 2299.52,-255.67"/>
</g>
<!-- 17&#45;&gt;13 -->
<g id="edge16" class="edge"><title>17&#45;&gt;13</title>
<path fill="none" stroke="black" d="M2113.66,-287.871C2107.67,-263.564 2096.64,-218.819 2089.54,-190.013"/>
<polygon fill="black" stroke="black" points="2092.91,-189.061 2087.12,-180.189 2086.12,-190.736 2092.91,-189.061"/>
</g>
<!-- 17&#45;&gt;18 -->
<g id="edge15" class="edge"><title>17&#45;&gt;18</title>
<path fill="none" stroke="black" d="M2141.6,-288.088C2180.94,-257.975 2251.85,-193.574 2214.89,-144 2202.96,-128 2160.94,-115.081 2120.73,-106.005"/>
<polygon fill="black" stroke="black" points="2121.35,-102.558 2110.83,-103.838 2119.85,-109.396 2121.35,-102.558"/>
</g>
<!-- 18&#45;&gt;19 -->
<g id="edge18" class="edge"><title>18&#45;&gt;19</title>
<path fill="none" stroke="black" d="M2019.46,-72.055C2010.5,-63.3492 1999.44,-52.5913 1989.62,-43.0432"/>
<polygon fill="black" stroke="black" points="1992.01,-40.4929 1982.4,-36.0316 1987.13,-45.5119 1992.01,-40.4929"/>
</g>
<!-- 20 -->
<g id="node21" class="node"><title>20</title>
<ellipse fill="paleturquoise" stroke="paleturquoise" cx="1341.89" cy="-234" rx="134.289" ry="18"/>
<text text-anchor="middle" x="1341.89" y="-229.8" font-family="Times,serif" font-size="14.00">./business&#45;rules/usecases/sprint/dto</text>
</g>
<!-- 20&#45;&gt;14 -->
<g id="edge30" class="edge"><title>20&#45;&gt;14</title>
<path fill="none" stroke="black" d="M1362.46,-216.055C1373.32,-207.113 1386.81,-196.005 1398.63,-186.268"/>
<polygon fill="black" stroke="black" points="1401,-188.848 1406.5,-179.789 1396.55,-183.444 1401,-188.848"/>
</g>
<!-- 20&#45;&gt;15 -->
<g id="edge31" class="edge"><title>20&#45;&gt;15</title>
<path fill="none" stroke="black" d="M1414.33,-218.834C1473.46,-207.273 1556.97,-190.944 1618.42,-178.93"/>
<polygon fill="black" stroke="black" points="1619.32,-182.319 1628.46,-176.965 1617.98,-175.449 1619.32,-182.319"/>
</g>
<!-- 20&#45;&gt;18 -->
<g id="edge29" class="edge"><title>20&#45;&gt;18</title>
<path fill="none" stroke="black" d="M1320.63,-216.053C1299.12,-196.916 1271.69,-165.634 1291.89,-144 1331.71,-101.343 1757.68,-112.238 1815.89,-108 1851.69,-105.393 1890.75,-102.428 1925.93,-99.7132"/>
<polygon fill="black" stroke="black" points="1926.53,-103.177 1936.23,-98.917 1925.99,-96.1982 1926.53,-103.177"/>
</g>
<!-- 21 -->
<g id="node22" class="node"><title>21</title>
<ellipse fill="paleturquoise" stroke="paleturquoise" cx="1899.89" cy="-378" rx="43.0237" ry="18"/>
<text text-anchor="middle" x="1899.89" y="-373.8" font-family="Times,serif" font-size="14.00">./cmd/api</text>
</g>
<!-- 21&#45;&gt;0 -->
<g id="edge32" class="edge"><title>21&#45;&gt;0</title>
<path fill="none" stroke="black" d="M1858.66,-372.382C1781.22,-363.62 1608.77,-343.692 1463.89,-324 1281.69,-299.236 1068.6,-266.196 954.316,-248.144"/>
<polygon fill="black" stroke="black" points="954.666,-244.656 944.242,-246.552 953.573,-251.571 954.666,-244.656"/>
</g>
<!-- 21&#45;&gt;7 -->
<g id="edge33" class="edge"><title>21&#45;&gt;7</title>
<path fill="none" stroke="black" d="M1942.67,-374.678C2028.95,-369.404 2220.48,-354.542 2277.89,-324 2292.57,-316.187 2320.18,-283.33 2338.81,-259.813"/>
<polygon fill="black" stroke="black" points="2341.56,-261.969 2344.98,-251.941 2336.06,-257.648 2341.56,-261.969"/>
</g>
<!-- 21&#45;&gt;9 -->
<g id="edge34" class="edge"><title>21&#45;&gt;9</title>
<path fill="none" stroke="black" d="M1940.73,-371.828C2014.62,-362.451 2175.37,-341.952 2310.89,-324 2321.61,-322.58 2332.84,-321.075 2344,-319.571"/>
<polygon fill="black" stroke="black" points="2344.76,-323 2354.2,-318.192 2343.82,-316.063 2344.76,-323"/>
</g>
<!-- 21&#45;&gt;11 -->
<g id="edge35" class="edge"><title>21&#45;&gt;11</title>
<path fill="none" stroke="black" d="M1866.78,-366.369C1832.81,-355.463 1779.33,-338.291 1738.61,-325.215"/>
<polygon fill="black" stroke="black" points="1739.67,-321.879 1729.08,-322.154 1737.53,-328.544 1739.67,-321.879"/>
</g>
<!-- 21&#45;&gt;17 -->
<g id="edge36" class="edge"><title>21&#45;&gt;17</title>
<path fill="none" stroke="black" d="M1933,-366.369C1966.12,-355.733 2017.8,-339.138 2058.11,-326.194"/>
<polygon fill="black" stroke="black" points="2059.38,-329.462 2067.83,-323.072 2057.24,-322.797 2059.38,-329.462"/>
</g>
<!-- 21&#45;&gt;20 -->
<g id="edge37" class="edge"><title>21&#45;&gt;20</title>
<path fill="none" stroke="black" d="M1858,-373.207C1794.58,-366.815 1670.79,-351.789 1568.89,-324 1503.5,-306.17 1431.11,-275.829 1386.05,-255.601"/>
<polygon fill="black" stroke="black" points="1387.42,-252.378 1376.86,-251.446 1384.53,-258.756 1387.42,-252.378"/>
</g>
</g>
</svg>
