<?xml version="1.0" encoding="UTF-8" standalone="no"?>
<!DOCTYPE svg PUBLIC "-//W3C//DTD SVG 1.1//EN"
 "http://www.w3.org/Graphics/SVG/1.1/DTD/svg11.dtd">
<!-- Generated by graphviz version 2.38.0 (20140413.2041)
 -->
<!-- Title: godep Pages: 1 -->
<svg width="2472pt" height="332pt"
 viewBox="0.00 0.00 2471.54 332.00" xmlns="http://www.w3.org/2000/svg" xmlns:xlink="http://www.w3.org/1999/xlink">
<g id="graph0" class="graph" transform="scale(1 1) rotate(0) translate(4 328)">
<title>godep</title>
<polygon fill="white" stroke="none" points="-4,4 -4,-328 2467.54,-328 2467.54,4 -4,4"/>
<!-- 0 -->
<g id="node1" class="node"><title>0</title>
<ellipse fill="paleturquoise" stroke="paleturquoise" cx="608.976" cy="-162" rx="100.004" ry="18"/>
<text text-anchor="middle" x="608.976" y="-157.8" font-family="Times,serif" font-size="14.00">github.com/gin&#45;gonic/gin</text>
</g>
<!-- 1 -->
<g id="node2" class="node"><title>1</title>
<ellipse fill="paleturquoise" stroke="paleturquoise" cx="588.976" cy="-90" rx="129.963" ry="18"/>
<text text-anchor="middle" x="588.976" y="-85.8" font-family="Times,serif" font-size="14.00">github.com/gin&#45;gonic/gin/binding</text>
</g>
<!-- 0&#45;&gt;1 -->
<g id="edge1" class="edge"><title>0&#45;&gt;1</title>
<path fill="none" stroke="black" d="M604.032,-143.697C601.804,-135.898 599.121,-126.509 596.642,-117.829"/>
<polygon fill="black" stroke="black" points="599.976,-116.758 593.863,-108.104 593.245,-118.681 599.976,-116.758"/>
</g>
<!-- 2 -->
<g id="node3" class="node"><title>2</title>
<ellipse fill="paleturquoise" stroke="paleturquoise" cx="861.976" cy="-90" rx="125.085" ry="18"/>
<text text-anchor="middle" x="861.976" y="-85.8" font-family="Times,serif" font-size="14.00">github.com/gin&#45;gonic/gin/render</text>
</g>
<!-- 0&#45;&gt;2 -->
<g id="edge2" class="edge"><title>0&#45;&gt;2</title>
<path fill="none" stroke="black" d="M661.091,-146.581C700.546,-135.665 754.974,-120.605 797.224,-108.916"/>
<polygon fill="black" stroke="black" points="798.159,-112.289 806.863,-106.249 796.292,-105.542 798.159,-112.289"/>
</g>
<!-- 3 -->
<g id="node4" class="node"><title>3</title>
<ellipse fill="paleturquoise" stroke="paleturquoise" cx="114.976" cy="-90" rx="114.952" ry="18"/>
<text text-anchor="middle" x="114.976" y="-85.8" font-family="Times,serif" font-size="14.00">github.com/manucorporat/sse</text>
</g>
<!-- 0&#45;&gt;3 -->
<g id="edge3" class="edge"><title>0&#45;&gt;3</title>
<path fill="none" stroke="black" d="M532.871,-150.216C445.262,-137.802 301.39,-117.415 207.417,-104.099"/>
<polygon fill="black" stroke="black" points="207.741,-100.61 197.349,-102.672 206.759,-107.541 207.741,-100.61"/>
</g>
<!-- 4 -->
<g id="node5" class="node"><title>4</title>
<ellipse fill="paleturquoise" stroke="paleturquoise" cx="344.976" cy="-90" rx="96.7919" ry="18"/>
<text text-anchor="middle" x="344.976" y="-85.8" font-family="Times,serif" font-size="14.00">golang.org/x/net/context</text>
</g>
<!-- 0&#45;&gt;4 -->
<g id="edge4" class="edge"><title>0&#45;&gt;4</title>
<path fill="none" stroke="black" d="M555.234,-146.75C512.625,-135.452 452.99,-119.64 408.108,-107.74"/>
<polygon fill="black" stroke="black" points="408.755,-104.29 398.192,-105.11 406.961,-111.056 408.755,-104.29"/>
</g>
<!-- 5 -->
<g id="node6" class="node"><title>5</title>
<ellipse fill="paleturquoise" stroke="paleturquoise" cx="614.976" cy="-18" rx="130.914" ry="18"/>
<text text-anchor="middle" x="614.976" y="-13.8" font-family="Times,serif" font-size="14.00">github.com/golang/protobuf/proto</text>
</g>
<!-- 1&#45;&gt;5 -->
<g id="edge5" class="edge"><title>1&#45;&gt;5</title>
<path fill="none" stroke="black" d="M595.403,-71.6966C598.331,-63.8132 601.863,-54.3042 605.116,-45.5464"/>
<polygon fill="black" stroke="black" points="608.422,-46.6973 608.623,-36.1043 601.86,-44.2599 608.422,-46.6973"/>
</g>
<!-- 6 -->
<g id="node7" class="node"><title>6</title>
<ellipse fill="paleturquoise" stroke="paleturquoise" cx="325.976" cy="-18" rx="140.078" ry="18"/>
<text text-anchor="middle" x="325.976" y="-13.8" font-family="Times,serif" font-size="14.00">gopkg.in/go&#45;playground/validator.v8</text>
</g>
<!-- 1&#45;&gt;6 -->
<g id="edge6" class="edge"><title>1&#45;&gt;6</title>
<path fill="none" stroke="black" d="M531.909,-73.811C491.263,-62.9928 436.471,-48.4094 393.623,-37.0049"/>
<polygon fill="black" stroke="black" points="394.404,-33.5909 383.84,-34.401 392.603,-40.3554 394.404,-33.5909"/>
</g>
<!-- 7 -->
<g id="node8" class="node"><title>7</title>
<ellipse fill="paleturquoise" stroke="paleturquoise" cx="861.976" cy="-18" rx="72.4981" ry="18"/>
<text text-anchor="middle" x="861.976" y="-13.8" font-family="Times,serif" font-size="14.00">gopkg.in/yaml.v2</text>
</g>
<!-- 2&#45;&gt;7 -->
<g id="edge7" class="edge"><title>2&#45;&gt;7</title>
<path fill="none" stroke="black" d="M861.976,-71.6966C861.976,-63.9827 861.976,-54.7125 861.976,-46.1124"/>
<polygon fill="black" stroke="black" points="865.476,-46.1043 861.976,-36.1043 858.476,-46.1044 865.476,-46.1043"/>
</g>
<!-- 8 -->
<g id="node9" class="node"><title>8</title>
<ellipse fill="paleturquoise" stroke="paleturquoise" cx="2337.98" cy="-162" rx="95.6597" ry="18"/>
<text text-anchor="middle" x="2337.98" y="-157.8" font-family="Times,serif" font-size="14.00">github.com/jinzhu/gorm</text>
</g>
<!-- 9 -->
<g id="node10" class="node"><title>9</title>
<ellipse fill="paleturquoise" stroke="paleturquoise" cx="2352.98" cy="-90" rx="110.635" ry="18"/>
<text text-anchor="middle" x="2352.98" y="-85.8" font-family="Times,serif" font-size="14.00">github.com/jinzhu/inflection</text>
</g>
<!-- 8&#45;&gt;9 -->
<g id="edge8" class="edge"><title>8&#45;&gt;9</title>
<path fill="none" stroke="black" d="M2341.68,-143.697C2343.34,-135.983 2345.32,-126.712 2347.17,-118.112"/>
<polygon fill="black" stroke="black" points="2350.64,-118.616 2349.31,-108.104 2343.79,-117.149 2350.64,-118.616"/>
</g>
<!-- 10 -->
<g id="node11" class="node"><title>10</title>
<ellipse fill="#ffb90f" stroke="#ffb90f" cx="2304.98" cy="-234" rx="110.635" ry="18"/>
<text text-anchor="middle" x="2304.98" y="-229.8" font-family="Times,serif" font-size="14.00">github.com/mattn/go&#45;sqlite3</text>
</g>
<!-- 11 -->
<g id="node12" class="node"><title>11</title>
<ellipse fill="paleturquoise" stroke="paleturquoise" cx="1347.98" cy="-18" rx="107.217" ry="18"/>
<text text-anchor="middle" x="1347.98" y="-13.8" font-family="Times,serif" font-size="14.00">github.com/moul/cleanarch</text>
</g>
<!-- 12 -->
<g id="node13" class="node"><title>12</title>
<ellipse fill="paleturquoise" stroke="paleturquoise" cx="1451.98" cy="-234" rx="113.481" ry="18"/>
<text text-anchor="middle" x="1451.98" y="-229.8" font-family="Times,serif" font-size="14.00">./example/app/controllers/api</text>
</g>
<!-- 12&#45;&gt;0 -->
<g id="edge9" class="edge"><title>12&#45;&gt;0</title>
<path fill="none" stroke="black" d="M1347.01,-227.037C1207.82,-218.708 954.602,-202.095 738.976,-180 724.902,-178.558 709.999,-176.814 695.498,-175"/>
<polygon fill="black" stroke="black" points="695.901,-171.523 685.539,-173.735 695.019,-178.467 695.901,-171.523"/>
</g>
<!-- 13 -->
<g id="node14" class="node"><title>13</title>
<ellipse fill="paleturquoise" stroke="paleturquoise" cx="1523.98" cy="-90" rx="110.583" ry="18"/>
<text text-anchor="middle" x="1523.98" y="-85.8" font-family="Times,serif" font-size="14.00">./example/bizrules/gateways</text>
</g>
<!-- 12&#45;&gt;13 -->
<g id="edge10" class="edge"><title>12&#45;&gt;13</title>
<path fill="none" stroke="black" d="M1452.75,-215.94C1454.23,-197.256 1458.53,-166.905 1470.98,-144 1476.89,-133.123 1485.72,-123.011 1494.5,-114.598"/>
<polygon fill="black" stroke="black" points="1497.07,-116.985 1502.11,-107.665 1492.36,-111.808 1497.07,-116.985"/>
</g>
<!-- 14 -->
<g id="node15" class="node"><title>14</title>
<ellipse fill="paleturquoise" stroke="paleturquoise" cx="1237.98" cy="-162" rx="147.752" ry="18"/>
<text text-anchor="middle" x="1237.98" y="-157.8" font-family="Times,serif" font-size="14.00">./example/bizrules/usecases/add_sprint</text>
</g>
<!-- 12&#45;&gt;14 -->
<g id="edge11" class="edge"><title>12&#45;&gt;14</title>
<path fill="none" stroke="black" d="M1404.75,-217.552C1372.93,-207.144 1330.73,-193.342 1296.75,-182.224"/>
<polygon fill="black" stroke="black" points="1297.53,-178.799 1286.94,-179.016 1295.36,-185.452 1297.53,-178.799"/>
</g>
<!-- 15 -->
<g id="node16" class="node"><title>15</title>
<ellipse fill="paleturquoise" stroke="paleturquoise" cx="909.976" cy="-162" rx="161.767" ry="18"/>
<text text-anchor="middle" x="909.976" y="-157.8" font-family="Times,serif" font-size="14.00">./example/bizrules/usecases/add_sprint/dto</text>
</g>
<!-- 12&#45;&gt;15 -->
<g id="edge12" class="edge"><title>12&#45;&gt;15</title>
<path fill="none" stroke="black" d="M1366.99,-222.024C1273.86,-209.996 1124.1,-190.654 1021.57,-177.412"/>
<polygon fill="black" stroke="black" points="1021.85,-173.92 1011.49,-176.11 1020.96,-180.862 1021.85,-173.92"/>
</g>
<!-- 16 -->
<g id="node17" class="node"><title>16</title>
<ellipse fill="paleturquoise" stroke="paleturquoise" cx="1237.98" cy="-90" rx="157.423" ry="18"/>
<text text-anchor="middle" x="1237.98" y="-85.8" font-family="Times,serif" font-size="14.00">./example/bizrules/usecases/add_sprint/io</text>
</g>
<!-- 12&#45;&gt;16 -->
<g id="edge13" class="edge"><title>12&#45;&gt;16</title>
<path fill="none" stroke="black" d="M1445.17,-215.766C1436.42,-195.765 1419.41,-163.095 1394.98,-144 1374.47,-127.97 1348.84,-116.651 1324.28,-108.714"/>
<polygon fill="black" stroke="black" points="1325.15,-105.322 1314.56,-105.73 1323.09,-112.013 1325.15,-105.322"/>
</g>
<!-- 17 -->
<g id="node18" class="node"><title>17</title>
<ellipse fill="paleturquoise" stroke="paleturquoise" cx="1625.98" cy="-162" rx="145.822" ry="18"/>
<text text-anchor="middle" x="1625.98" y="-157.8" font-family="Times,serif" font-size="14.00">./example/bizrules/usecases/get_sprint</text>
</g>
<!-- 12&#45;&gt;17 -->
<g id="edge14" class="edge"><title>12&#45;&gt;17</title>
<path fill="none" stroke="black" d="M1491.46,-217.116C1516.46,-207.057 1549.02,-193.959 1575.84,-183.168"/>
<polygon fill="black" stroke="black" points="1577.47,-186.286 1585.44,-179.307 1574.86,-179.792 1577.47,-186.286"/>
</g>
<!-- 18 -->
<g id="node19" class="node"><title>18</title>
<ellipse fill="paleturquoise" stroke="paleturquoise" cx="2025.98" cy="-162" rx="159.837" ry="18"/>
<text text-anchor="middle" x="2025.98" y="-157.8" font-family="Times,serif" font-size="14.00">./example/bizrules/usecases/get_sprint/dto</text>
</g>
<!-- 12&#45;&gt;18 -->
<g id="edge15" class="edge"><title>12&#45;&gt;18</title>
<path fill="none" stroke="black" d="M1538.84,-222.407C1638.45,-210.259 1802.11,-190.301 1911.91,-176.91"/>
<polygon fill="black" stroke="black" points="1912.53,-180.361 1922.03,-175.676 1911.68,-173.412 1912.53,-180.361"/>
</g>
<!-- 19 -->
<g id="node20" class="node"><title>19</title>
<ellipse fill="paleturquoise" stroke="paleturquoise" cx="1845.98" cy="-90" rx="155.494" ry="18"/>
<text text-anchor="middle" x="1845.98" y="-85.8" font-family="Times,serif" font-size="14.00">./example/bizrules/usecases/get_sprint/io</text>
</g>
<!-- 12&#45;&gt;19 -->
<g id="edge16" class="edge"><title>12&#45;&gt;19</title>
<path fill="none" stroke="black" d="M1551.79,-225.281C1634.17,-217.401 1743.43,-203.015 1780.98,-180 1805.06,-165.24 1822.98,-137.908 1833.84,-117.412"/>
<polygon fill="black" stroke="black" points="1837.07,-118.768 1838.46,-108.265 1830.83,-115.61 1837.07,-118.768"/>
</g>
<!-- 21 -->
<g id="node22" class="node"><title>21</title>
<ellipse fill="paleturquoise" stroke="paleturquoise" cx="1684.98" cy="-18" rx="103.359" ry="18"/>
<text text-anchor="middle" x="1684.98" y="-13.8" font-family="Times,serif" font-size="14.00">./example/bizrules/entities</text>
</g>
<!-- 13&#45;&gt;21 -->
<g id="edge20" class="edge"><title>13&#45;&gt;21</title>
<path fill="none" stroke="black" d="M1560.91,-72.9406C1584.21,-62.8116 1614.47,-49.6539 1639.28,-38.8696"/>
<polygon fill="black" stroke="black" points="1640.71,-42.061 1648.49,-34.8639 1637.92,-35.6415 1640.71,-42.061"/>
</g>
<!-- 14&#45;&gt;11 -->
<g id="edge21" class="edge"><title>14&#45;&gt;11</title>
<path fill="none" stroke="black" d="M1158.1,-146.834C1101.65,-133.306 1041.1,-109.372 1071.98,-72 1093.3,-46.1956 1171.05,-32.827 1238.61,-25.9764"/>
<polygon fill="black" stroke="black" points="1239.31,-29.4247 1248.93,-24.9721 1238.64,-22.4577 1239.31,-29.4247"/>
</g>
<!-- 14&#45;&gt;13 -->
<g id="edge22" class="edge"><title>14&#45;&gt;13</title>
<path fill="none" stroke="black" d="M1300.74,-145.638C1346.49,-134.441 1408.43,-119.28 1455.46,-107.769"/>
<polygon fill="black" stroke="black" points="1456.38,-111.148 1465.26,-105.371 1454.72,-104.349 1456.38,-111.148"/>
</g>
<!-- 14&#45;&gt;16 -->
<g id="edge23" class="edge"><title>14&#45;&gt;16</title>
<path fill="none" stroke="black" d="M1237.98,-143.697C1237.98,-135.983 1237.98,-126.712 1237.98,-118.112"/>
<polygon fill="black" stroke="black" points="1241.48,-118.104 1237.98,-108.104 1234.48,-118.104 1241.48,-118.104"/>
</g>
<!-- 15&#45;&gt;16 -->
<g id="edge25" class="edge"><title>15&#45;&gt;16</title>
<path fill="none" stroke="black" d="M981.147,-145.811C1033.03,-134.739 1103.39,-119.722 1157.35,-108.207"/>
<polygon fill="black" stroke="black" points="1158.18,-111.609 1167.23,-106.099 1156.72,-104.763 1158.18,-111.609"/>
</g>
<!-- 15&#45;&gt;21 -->
<g id="edge24" class="edge"><title>15&#45;&gt;21</title>
<path fill="none" stroke="black" d="M937.345,-144.145C975.857,-120.749 1044.41,-80.3544 1071.98,-72 1084.05,-68.34 1412.37,-41.2002 1583.43,-27.2418"/>
<polygon fill="black" stroke="black" points="1583.78,-30.725 1593.46,-26.4236 1583.21,-23.7482 1583.78,-30.725"/>
</g>
<!-- 16&#45;&gt;11 -->
<g id="edge26" class="edge"><title>16&#45;&gt;11</title>
<path fill="none" stroke="black" d="M1264.32,-72.2333C1279.02,-62.8824 1297.5,-51.1225 1313.35,-41.0357"/>
<polygon fill="black" stroke="black" points="1315.29,-43.9516 1321.84,-35.6299 1311.53,-38.0459 1315.29,-43.9516"/>
</g>
<!-- 16&#45;&gt;21 -->
<g id="edge27" class="edge"><title>16&#45;&gt;21</title>
<path fill="none" stroke="black" d="M1326.56,-75.1284C1406.21,-62.655 1522.39,-44.4602 1600.7,-32.1982"/>
<polygon fill="black" stroke="black" points="1601.67,-35.5886 1611.01,-30.5835 1600.59,-28.6729 1601.67,-35.5886"/>
</g>
<!-- 17&#45;&gt;11 -->
<g id="edge28" class="edge"><title>17&#45;&gt;11</title>
<path fill="none" stroke="black" d="M1636.92,-143.88C1647.91,-124.292 1660.97,-92.3103 1643.98,-72 1620.46,-43.895 1533.71,-30.6762 1460.15,-24.4688"/>
<polygon fill="black" stroke="black" points="1460.12,-20.9547 1449.87,-23.6386 1459.56,-27.932 1460.12,-20.9547"/>
</g>
<!-- 17&#45;&gt;13 -->
<g id="edge29" class="edge"><title>17&#45;&gt;13</title>
<path fill="none" stroke="black" d="M1601.54,-144.233C1588.05,-134.969 1571.1,-123.34 1556.49,-113.316"/>
<polygon fill="black" stroke="black" points="1558.43,-110.403 1548.21,-107.63 1554.47,-116.174 1558.43,-110.403"/>
</g>
<!-- 17&#45;&gt;19 -->
<g id="edge30" class="edge"><title>17&#45;&gt;19</title>
<path fill="none" stroke="black" d="M1676.17,-145.028C1708.61,-134.708 1751.01,-121.217 1785.32,-110.298"/>
<polygon fill="black" stroke="black" points="1786.77,-113.513 1795.23,-107.145 1784.64,-106.842 1786.77,-113.513"/>
</g>
<!-- 18&#45;&gt;19 -->
<g id="edge32" class="edge"><title>18&#45;&gt;19</title>
<path fill="none" stroke="black" d="M1983.77,-144.588C1958.03,-134.575 1924.93,-121.703 1897.62,-111.084"/>
<polygon fill="black" stroke="black" points="1898.81,-107.793 1888.23,-107.43 1896.28,-114.317 1898.81,-107.793"/>
</g>
<!-- 18&#45;&gt;21 -->
<g id="edge31" class="edge"><title>18&#45;&gt;21</title>
<path fill="none" stroke="black" d="M2028.21,-143.953C2029.81,-123.823 2029,-90.7179 2009.98,-72 1979.95,-42.4589 1876.81,-29.3658 1794.68,-23.5732"/>
<polygon fill="black" stroke="black" points="1794.73,-20.0688 1784.52,-22.8858 1794.26,-27.0529 1794.73,-20.0688"/>
</g>
<!-- 19&#45;&gt;11 -->
<g id="edge33" class="edge"><title>19&#45;&gt;11</title>
<path fill="none" stroke="black" d="M1751.43,-75.71C1661.11,-63.015 1525.99,-44.0221 1437.41,-31.5716"/>
<polygon fill="black" stroke="black" points="1437.78,-28.0881 1427.39,-30.162 1436.8,-35.0199 1437.78,-28.0881"/>
</g>
<!-- 19&#45;&gt;21 -->
<g id="edge34" class="edge"><title>19&#45;&gt;21</title>
<path fill="none" stroke="black" d="M1807.82,-72.411C1784.75,-62.3816 1755.2,-49.5326 1730.86,-38.9507"/>
<polygon fill="black" stroke="black" points="1732.04,-35.6459 1721.47,-34.8684 1729.25,-42.0654 1732.04,-35.6459"/>
</g>
<!-- 20 -->
<g id="node21" class="node"><title>20</title>
<ellipse fill="paleturquoise" stroke="paleturquoise" cx="2008.98" cy="-234" rx="128.968" ry="18"/>
<text text-anchor="middle" x="2008.98" y="-229.8" font-family="Times,serif" font-size="14.00">./example/app/repos/sprints/gorm</text>
</g>
<!-- 20&#45;&gt;8 -->
<g id="edge17" class="edge"><title>20&#45;&gt;8</title>
<path fill="none" stroke="black" d="M2076.75,-218.581C2132.38,-206.744 2210.9,-190.038 2267.31,-178.036"/>
<polygon fill="black" stroke="black" points="2268.17,-181.432 2277.22,-175.927 2266.71,-174.585 2268.17,-181.432"/>
</g>
<!-- 20&#45;&gt;13 -->
<g id="edge19" class="edge"><title>20&#45;&gt;13</title>
<path fill="none" stroke="black" d="M1959.53,-217.248C1929.56,-207.333 1890.72,-193.83 1856.98,-180 1822.39,-165.827 1816.42,-155.859 1780.98,-144 1726.82,-125.879 1664.07,-112.796 1614.13,-104.162"/>
<polygon fill="black" stroke="black" points="1614.45,-100.665 1604,-102.441 1613.28,-107.566 1614.45,-100.665"/>
</g>
<!-- 20&#45;&gt;21 -->
<g id="edge18" class="edge"><title>20&#45;&gt;21</title>
<path fill="none" stroke="black" d="M2101.7,-221.437C2161.35,-209.743 2222.92,-186.998 2194.98,-144 2150.72,-75.9058 1921.04,-42.0481 1785.47,-27.7547"/>
<polygon fill="black" stroke="black" points="1785.78,-24.2682 1775.47,-26.7181 1785.06,-31.2309 1785.78,-24.2682"/>
</g>
<!-- 22 -->
<g id="node23" class="node"><title>22</title>
<ellipse fill="paleturquoise" stroke="paleturquoise" cx="2008.98" cy="-306" rx="75.8461" ry="18"/>
<text text-anchor="middle" x="2008.98" y="-301.8" font-family="Times,serif" font-size="14.00">./example/cmd/api</text>
</g>
<!-- 22&#45;&gt;0 -->
<g id="edge35" class="edge"><title>22&#45;&gt;0</title>
<path fill="none" stroke="black" d="M1937.03,-300.413C1812.98,-292.273 1550.87,-274.066 1329.98,-252 1066.68,-225.698 1001.5,-213.156 738.976,-180 725.438,-178.29 711.112,-176.449 697.109,-174.632"/>
<polygon fill="black" stroke="black" points="697.353,-171.134 686.985,-173.315 696.45,-178.075 697.353,-171.134"/>
</g>
<!-- 22&#45;&gt;8 -->
<g id="edge36" class="edge"><title>22&#45;&gt;8</title>
<path fill="none" stroke="black" d="M2056.49,-291.847C2084.15,-282.977 2118.97,-269.657 2146.98,-252 2166.66,-239.592 2165.09,-228.079 2184.98,-216 2211.41,-199.941 2243.38,-187.896 2271.25,-179.381"/>
<polygon fill="black" stroke="black" points="2272.33,-182.712 2280.92,-176.515 2270.34,-176 2272.33,-182.712"/>
</g>
<!-- 22&#45;&gt;10 -->
<g id="edge37" class="edge"><title>22&#45;&gt;10</title>
<path fill="none" stroke="black" d="M2060.54,-292.807C2108.95,-281.357 2181.76,-264.139 2235.32,-251.472"/>
<polygon fill="black" stroke="black" points="2236.17,-254.869 2245.09,-249.162 2234.56,-248.057 2236.17,-254.869"/>
</g>
<!-- 22&#45;&gt;12 -->
<g id="edge38" class="edge"><title>22&#45;&gt;12</title>
<path fill="none" stroke="black" d="M1943.72,-296.799C1845.98,-284.515 1660.99,-261.268 1547.88,-247.052"/>
<polygon fill="black" stroke="black" points="1548.19,-243.564 1537.83,-245.79 1547.32,-250.51 1548.19,-243.564"/>
</g>
<!-- 22&#45;&gt;20 -->
<g id="edge39" class="edge"><title>22&#45;&gt;20</title>
<path fill="none" stroke="black" d="M2008.98,-287.697C2008.98,-279.983 2008.98,-270.712 2008.98,-262.112"/>
<polygon fill="black" stroke="black" points="2012.48,-262.104 2008.98,-252.104 2005.48,-262.104 2012.48,-262.104"/>
</g>
</g>
</svg>
