<?xml version="1.0" encoding="UTF-8" standalone="no"?>
<!DOCTYPE svg PUBLIC "-//W3C//DTD SVG 1.1//EN"
 "http://www.w3.org/Graphics/SVG/1.1/DTD/svg11.dtd">
<!-- Generated by graphviz version 2.38.0 (20140413.2041)
 -->
<!-- Title: godep Pages: 1 -->
<svg width="3145pt" height="332pt"
 viewBox="0.00 0.00 3145.21 332.00" xmlns="http://www.w3.org/2000/svg" xmlns:xlink="http://www.w3.org/1999/xlink">
<g id="graph0" class="graph" transform="scale(1 1) rotate(0) translate(4 328)">
<title>godep</title>
<polygon fill="white" stroke="none" points="-4,4 -4,-328 3141.21,-328 3141.21,4 -4,4"/>
<!-- 0 -->
<g id="node1" class="node"><title>0</title>
<ellipse fill="paleturquoise" stroke="paleturquoise" cx="849.646" cy="-162" rx="100.004" ry="18"/>
<text text-anchor="middle" x="849.646" y="-157.8" font-family="Times,serif" font-size="14.00">github.com/gin&#45;gonic/gin</text>
</g>
<!-- 1 -->
<g id="node2" class="node"><title>1</title>
<ellipse fill="paleturquoise" stroke="paleturquoise" cx="340.646" cy="-90" rx="129.963" ry="18"/>
<text text-anchor="middle" x="340.646" y="-85.8" font-family="Times,serif" font-size="14.00">github.com/gin&#45;gonic/gin/binding</text>
</g>
<!-- 0&#45;&gt;1 -->
<g id="edge1" class="edge"><title>0&#45;&gt;1</title>
<path fill="none" stroke="black" d="M772.616,-150.407C683.636,-138.17 537.023,-118.007 439.651,-104.616"/>
<polygon fill="black" stroke="black" points="439.886,-101.115 429.503,-103.22 438.933,-108.05 439.886,-101.115"/>
</g>
<!-- 2 -->
<g id="node3" class="node"><title>2</title>
<ellipse fill="paleturquoise" stroke="paleturquoise" cx="613.646" cy="-90" rx="125.085" ry="18"/>
<text text-anchor="middle" x="613.646" y="-85.8" font-family="Times,serif" font-size="14.00">github.com/gin&#45;gonic/gin/render</text>
</g>
<!-- 0&#45;&gt;2 -->
<g id="edge2" class="edge"><title>0&#45;&gt;2</title>
<path fill="none" stroke="black" d="M800.173,-146.326C763.913,-135.571 714.443,-120.898 675.561,-109.365"/>
<polygon fill="black" stroke="black" points="676.5,-105.993 665.918,-106.504 674.51,-112.704 676.5,-105.993"/>
</g>
<!-- 3 -->
<g id="node4" class="node"><title>3</title>
<ellipse fill="paleturquoise" stroke="paleturquoise" cx="871.646" cy="-90" rx="114.952" ry="18"/>
<text text-anchor="middle" x="871.646" y="-85.8" font-family="Times,serif" font-size="14.00">github.com/manucorporat/sse</text>
</g>
<!-- 0&#45;&gt;3 -->
<g id="edge3" class="edge"><title>0&#45;&gt;3</title>
<path fill="none" stroke="black" d="M855.084,-143.697C857.535,-135.898 860.486,-126.509 863.214,-117.829"/>
<polygon fill="black" stroke="black" points="866.611,-118.694 866.27,-108.104 859.933,-116.595 866.611,-118.694"/>
</g>
<!-- 4 -->
<g id="node5" class="node"><title>4</title>
<ellipse fill="paleturquoise" stroke="paleturquoise" cx="1124.65" cy="-90" rx="119.772" ry="18"/>
<text text-anchor="middle" x="1124.65" y="-85.8" font-family="Times,serif" font-size="14.00">github.com/mattn/go&#45;colorable</text>
</g>
<!-- 0&#45;&gt;4 -->
<g id="edge4" class="edge"><title>0&#45;&gt;4</title>
<path fill="none" stroke="black" d="M904.965,-146.919C948.748,-135.774 1010.09,-120.16 1056.83,-108.263"/>
<polygon fill="black" stroke="black" points="1057.74,-111.642 1066.57,-105.783 1056.01,-104.858 1057.74,-111.642"/>
</g>
<!-- 5 -->
<g id="node6" class="node"><title>5</title>
<ellipse fill="paleturquoise" stroke="paleturquoise" cx="96.6458" cy="-90" rx="96.7919" ry="18"/>
<text text-anchor="middle" x="96.6458" y="-85.8" font-family="Times,serif" font-size="14.00">golang.org/x/net/context</text>
</g>
<!-- 0&#45;&gt;5 -->
<g id="edge5" class="edge"><title>0&#45;&gt;5</title>
<path fill="none" stroke="black" d="M755.783,-155.654C629.532,-147.931 398.153,-131.906 201.646,-108 192.922,-106.939 183.813,-105.684 174.764,-104.346"/>
<polygon fill="black" stroke="black" points="175.007,-100.843 164.596,-102.804 173.958,-107.764 175.007,-100.843"/>
</g>
<!-- 6 -->
<g id="node7" class="node"><title>6</title>
<ellipse fill="paleturquoise" stroke="paleturquoise" cx="340.646" cy="-18" rx="131.391" ry="18"/>
<text text-anchor="middle" x="340.646" y="-13.8" font-family="Times,serif" font-size="14.00">gopkg.in/bluesuncorp/validator.v5</text>
</g>
<!-- 1&#45;&gt;6 -->
<g id="edge6" class="edge"><title>1&#45;&gt;6</title>
<path fill="none" stroke="black" d="M340.646,-71.6966C340.646,-63.9827 340.646,-54.7125 340.646,-46.1124"/>
<polygon fill="black" stroke="black" points="344.146,-46.1043 340.646,-36.1043 337.146,-46.1044 344.146,-46.1043"/>
</g>
<!-- 7 -->
<g id="node8" class="node"><title>7</title>
<ellipse fill="paleturquoise" stroke="paleturquoise" cx="3011.65" cy="-162" rx="95.6597" ry="18"/>
<text text-anchor="middle" x="3011.65" y="-157.8" font-family="Times,serif" font-size="14.00">github.com/jinzhu/gorm</text>
</g>
<!-- 8 -->
<g id="node9" class="node"><title>8</title>
<ellipse fill="paleturquoise" stroke="paleturquoise" cx="3026.65" cy="-90" rx="110.635" ry="18"/>
<text text-anchor="middle" x="3026.65" y="-85.8" font-family="Times,serif" font-size="14.00">github.com/jinzhu/inflection</text>
</g>
<!-- 7&#45;&gt;8 -->
<g id="edge7" class="edge"><title>7&#45;&gt;8</title>
<path fill="none" stroke="black" d="M3015.35,-143.697C3017.01,-135.983 3018.99,-126.712 3020.84,-118.112"/>
<polygon fill="black" stroke="black" points="3024.31,-118.616 3022.98,-108.104 3017.46,-117.149 3024.31,-118.616"/>
</g>
<!-- 9 -->
<g id="node10" class="node"><title>9</title>
<ellipse fill="#ffb90f" stroke="#ffb90f" cx="2302.65" cy="-234" rx="110.635" ry="18"/>
<text text-anchor="middle" x="2302.65" y="-229.8" font-family="Times,serif" font-size="14.00">github.com/mattn/go&#45;sqlite3</text>
</g>
<!-- 10 -->
<g id="node11" class="node"><title>10</title>
<ellipse fill="paleturquoise" stroke="paleturquoise" cx="1925.65" cy="-234" rx="113.481" ry="18"/>
<text text-anchor="middle" x="1925.65" y="-229.8" font-family="Times,serif" font-size="14.00">./example/app/controllers/api</text>
</g>
<!-- 10&#45;&gt;0 -->
<g id="edge8" class="edge"><title>10&#45;&gt;0</title>
<path fill="none" stroke="black" d="M1814.05,-230.506C1633.74,-225.662 1267.36,-212.452 958.646,-180 949.245,-179.012 939.417,-177.773 929.677,-176.416"/>
<polygon fill="black" stroke="black" points="929.976,-172.923 919.58,-174.966 928.981,-179.852 929.976,-172.923"/>
</g>
<!-- 11 -->
<g id="node12" class="node"><title>11</title>
<ellipse fill="paleturquoise" stroke="paleturquoise" cx="1457.65" cy="-162" rx="147.752" ry="18"/>
<text text-anchor="middle" x="1457.65" y="-157.8" font-family="Times,serif" font-size="14.00">./example/bizrules/usecases/add_sprint</text>
</g>
<!-- 10&#45;&gt;11 -->
<g id="edge9" class="edge"><title>10&#45;&gt;11</title>
<path fill="none" stroke="black" d="M1846.26,-221.125C1766.48,-209.194 1643.32,-190.772 1557.09,-177.874"/>
<polygon fill="black" stroke="black" points="1557.43,-174.387 1547.02,-176.369 1556.4,-181.31 1557.43,-174.387"/>
</g>
<!-- 12 -->
<g id="node13" class="node"><title>12</title>
<ellipse fill="paleturquoise" stroke="paleturquoise" cx="1129.65" cy="-162" rx="161.767" ry="18"/>
<text text-anchor="middle" x="1129.65" y="-157.8" font-family="Times,serif" font-size="14.00">./example/bizrules/usecases/add_sprint/dto</text>
</g>
<!-- 10&#45;&gt;12 -->
<g id="edge10" class="edge"><title>10&#45;&gt;12</title>
<path fill="none" stroke="black" d="M1826.83,-225.065C1703.6,-215.067 1486.48,-197.116 1300.65,-180 1285.78,-178.631 1270.19,-177.147 1254.73,-175.647"/>
<polygon fill="black" stroke="black" points="1254.89,-172.146 1244.6,-174.659 1254.22,-179.113 1254.89,-172.146"/>
</g>
<!-- 13 -->
<g id="node14" class="node"><title>13</title>
<ellipse fill="paleturquoise" stroke="paleturquoise" cx="1769.65" cy="-162" rx="145.822" ry="18"/>
<text text-anchor="middle" x="1769.65" y="-157.8" font-family="Times,serif" font-size="14.00">./example/bizrules/usecases/get_sprint</text>
</g>
<!-- 10&#45;&gt;13 -->
<g id="edge11" class="edge"><title>10&#45;&gt;13</title>
<path fill="none" stroke="black" d="M1889.46,-216.765C1867.55,-206.932 1839.39,-194.294 1815.87,-183.742"/>
<polygon fill="black" stroke="black" points="1817,-180.412 1806.44,-179.511 1814.13,-186.799 1817,-180.412"/>
</g>
<!-- 14 -->
<g id="node15" class="node"><title>14</title>
<ellipse fill="paleturquoise" stroke="paleturquoise" cx="2093.65" cy="-162" rx="159.837" ry="18"/>
<text text-anchor="middle" x="2093.65" y="-157.8" font-family="Times,serif" font-size="14.00">./example/bizrules/usecases/get_sprint/dto</text>
</g>
<!-- 10&#45;&gt;14 -->
<g id="edge12" class="edge"><title>10&#45;&gt;14</title>
<path fill="none" stroke="black" d="M1964.19,-216.941C1988.07,-206.991 2018.96,-194.118 2044.58,-183.443"/>
<polygon fill="black" stroke="black" points="2046.23,-186.548 2054.12,-179.471 2043.54,-180.086 2046.23,-186.548"/>
</g>
<!-- 15 -->
<g id="node16" class="node"><title>15</title>
<ellipse fill="paleturquoise" stroke="paleturquoise" cx="2397.65" cy="-162" rx="126.028" ry="18"/>
<text text-anchor="middle" x="2397.65" y="-157.8" font-family="Times,serif" font-size="14.00">./example/bizrules/usecases/ping</text>
</g>
<!-- 10&#45;&gt;15 -->
<g id="edge13" class="edge"><title>10&#45;&gt;15</title>
<path fill="none" stroke="black" d="M2005.45,-221.165C2087.84,-208.946 2216.32,-189.891 2303.6,-176.948"/>
<polygon fill="black" stroke="black" points="2304.12,-180.408 2313.5,-175.479 2303.1,-173.484 2304.12,-180.408"/>
</g>
<!-- 16 -->
<g id="node17" class="node"><title>16</title>
<ellipse fill="paleturquoise" stroke="paleturquoise" cx="2681.65" cy="-162" rx="140.042" ry="18"/>
<text text-anchor="middle" x="2681.65" y="-157.8" font-family="Times,serif" font-size="14.00">./example/bizrules/usecases/ping/dto</text>
</g>
<!-- 10&#45;&gt;16 -->
<g id="edge14" class="edge"><title>10&#45;&gt;16</title>
<path fill="none" stroke="black" d="M2024.82,-225.153C2145.06,-215.45 2353.85,-198.002 2532.65,-180 2545.44,-178.711 2558.85,-177.287 2572.16,-175.827"/>
<polygon fill="black" stroke="black" points="2572.75,-179.283 2582.3,-174.706 2571.98,-172.326 2572.75,-179.283"/>
</g>
<!-- 19 -->
<g id="node20" class="node"><title>19</title>
<ellipse fill="paleturquoise" stroke="paleturquoise" cx="1743.65" cy="-90" rx="110.583" ry="18"/>
<text text-anchor="middle" x="1743.65" y="-85.8" font-family="Times,serif" font-size="14.00">./example/bizrules/gateways</text>
</g>
<!-- 11&#45;&gt;19 -->
<g id="edge19" class="edge"><title>11&#45;&gt;19</title>
<path fill="none" stroke="black" d="M1520.41,-145.638C1566.16,-134.441 1628.1,-119.28 1675.13,-107.769"/>
<polygon fill="black" stroke="black" points="1676.05,-111.148 1684.93,-105.371 1674.39,-104.349 1676.05,-111.148"/>
</g>
<!-- 20 -->
<g id="node21" class="node"><title>20</title>
<ellipse fill="paleturquoise" stroke="paleturquoise" cx="1457.65" cy="-90" rx="157.423" ry="18"/>
<text text-anchor="middle" x="1457.65" y="-85.8" font-family="Times,serif" font-size="14.00">./example/bizrules/usecases/add_sprint/io</text>
</g>
<!-- 11&#45;&gt;20 -->
<g id="edge20" class="edge"><title>11&#45;&gt;20</title>
<path fill="none" stroke="black" d="M1457.65,-143.697C1457.65,-135.983 1457.65,-126.712 1457.65,-118.112"/>
<polygon fill="black" stroke="black" points="1461.15,-118.104 1457.65,-108.104 1454.15,-118.104 1461.15,-118.104"/>
</g>
<!-- 18 -->
<g id="node19" class="node"><title>18</title>
<ellipse fill="paleturquoise" stroke="paleturquoise" cx="1885.65" cy="-18" rx="103.359" ry="18"/>
<text text-anchor="middle" x="1885.65" y="-13.8" font-family="Times,serif" font-size="14.00">./example/bizrules/entities</text>
</g>
<!-- 12&#45;&gt;18 -->
<g id="edge21" class="edge"><title>12&#45;&gt;18</title>
<path fill="none" stroke="black" d="M1178.47,-144.737C1202.17,-135.717 1230.46,-123.23 1253.65,-108 1273.09,-95.2282 1270.44,-81.5645 1291.65,-72 1374.85,-34.4736 1625.23,-23.4979 1773.02,-20.3009"/>
<polygon fill="black" stroke="black" points="1773.12,-23.7998 1783.05,-20.0926 1772.98,-16.8013 1773.12,-23.7998"/>
</g>
<!-- 12&#45;&gt;20 -->
<g id="edge22" class="edge"><title>12&#45;&gt;20</title>
<path fill="none" stroke="black" d="M1200.82,-145.811C1252.7,-134.739 1323.06,-119.722 1377.02,-108.207"/>
<polygon fill="black" stroke="black" points="1377.85,-111.609 1386.9,-106.099 1376.39,-104.763 1377.85,-111.609"/>
</g>
<!-- 13&#45;&gt;19 -->
<g id="edge24" class="edge"><title>13&#45;&gt;19</title>
<path fill="none" stroke="black" d="M1763.22,-143.697C1760.29,-135.813 1756.76,-126.304 1753.51,-117.546"/>
<polygon fill="black" stroke="black" points="1756.76,-116.26 1750,-108.104 1750.2,-118.697 1756.76,-116.26"/>
</g>
<!-- 21 -->
<g id="node22" class="node"><title>21</title>
<ellipse fill="paleturquoise" stroke="paleturquoise" cx="2027.65" cy="-90" rx="155.494" ry="18"/>
<text text-anchor="middle" x="2027.65" y="-85.8" font-family="Times,serif" font-size="14.00">./example/bizrules/usecases/get_sprint/io</text>
</g>
<!-- 13&#45;&gt;21 -->
<g id="edge25" class="edge"><title>13&#45;&gt;21</title>
<path fill="none" stroke="black" d="M1827.22,-145.378C1866.41,-134.746 1918.43,-120.631 1959.66,-109.447"/>
<polygon fill="black" stroke="black" points="1960.62,-112.813 1969.35,-106.817 1958.78,-106.057 1960.62,-112.813"/>
</g>
<!-- 14&#45;&gt;18 -->
<g id="edge26" class="edge"><title>14&#45;&gt;18</title>
<path fill="none" stroke="black" d="M2146.4,-144.935C2163.93,-136.804 2181.54,-124.947 2191.65,-108 2199.84,-94.2563 2201.95,-84.2411 2191.65,-72 2166.64,-42.2936 2072.91,-29.2373 1995.7,-23.4991"/>
<polygon fill="black" stroke="black" points="1995.63,-19.9855 1985.41,-22.7696 1995.14,-26.968 1995.63,-19.9855"/>
</g>
<!-- 14&#45;&gt;21 -->
<g id="edge27" class="edge"><title>14&#45;&gt;21</title>
<path fill="none" stroke="black" d="M2077.67,-144.055C2069.68,-135.583 2059.86,-125.168 2051.04,-115.815"/>
<polygon fill="black" stroke="black" points="2053.34,-113.15 2043.93,-108.275 2048.25,-117.952 2053.34,-113.15"/>
</g>
<!-- 22 -->
<g id="node23" class="node"><title>22</title>
<ellipse fill="paleturquoise" stroke="paleturquoise" cx="2539.65" cy="-90" rx="135.699" ry="18"/>
<text text-anchor="middle" x="2539.65" y="-85.8" font-family="Times,serif" font-size="14.00">./example/bizrules/usecases/ping/io</text>
</g>
<!-- 15&#45;&gt;22 -->
<g id="edge29" class="edge"><title>15&#45;&gt;22</title>
<path fill="none" stroke="black" d="M2430.94,-144.588C2450.65,-134.873 2475.82,-122.465 2496.97,-112.036"/>
<polygon fill="black" stroke="black" points="2498.65,-115.112 2506.07,-107.552 2495.55,-108.834 2498.65,-115.112"/>
</g>
<!-- 16&#45;&gt;22 -->
<g id="edge30" class="edge"><title>16&#45;&gt;22</title>
<path fill="none" stroke="black" d="M2647.99,-144.411C2628.28,-134.691 2603.19,-122.322 2582.12,-111.936"/>
<polygon fill="black" stroke="black" points="2583.57,-108.752 2573.06,-107.47 2580.48,-115.031 2583.57,-108.752"/>
</g>
<!-- 17 -->
<g id="node18" class="node"><title>17</title>
<ellipse fill="paleturquoise" stroke="paleturquoise" cx="2850.65" cy="-234" rx="128.968" ry="18"/>
<text text-anchor="middle" x="2850.65" y="-229.8" font-family="Times,serif" font-size="14.00">./example/app/repos/sprints/gorm</text>
</g>
<!-- 17&#45;&gt;7 -->
<g id="edge15" class="edge"><title>17&#45;&gt;7</title>
<path fill="none" stroke="black" d="M2887.99,-216.765C2911.3,-206.63 2941.46,-193.514 2966.16,-182.774"/>
<polygon fill="black" stroke="black" points="2967.56,-185.983 2975.34,-178.786 2964.77,-179.563 2967.56,-185.983"/>
</g>
<!-- 17&#45;&gt;18 -->
<g id="edge16" class="edge"><title>17&#45;&gt;18</title>
<path fill="none" stroke="black" d="M2856.93,-216.016C2862.86,-196.847 2868.91,-165.533 2854.65,-144 2809.33,-75.5956 2764.47,-90.9801 2684.65,-72 2557.32,-41.7259 2185.07,-27.3143 1997.05,-21.8084"/>
<polygon fill="black" stroke="black" points="1996.96,-18.3044 1986.86,-21.5135 1996.76,-25.3014 1996.96,-18.3044"/>
</g>
<!-- 17&#45;&gt;19 -->
<g id="edge17" class="edge"><title>17&#45;&gt;19</title>
<path fill="none" stroke="black" d="M2852.38,-215.805C2853.4,-195.205 2851.47,-161.311 2830.65,-144 2789.3,-109.636 1917.19,-112.777 1863.65,-108 1852.81,-107.034 1841.47,-105.765 1830.25,-104.355"/>
<polygon fill="black" stroke="black" points="1830.37,-100.842 1820.01,-103.025 1829.47,-107.783 1830.37,-100.842"/>
</g>
<!-- 19&#45;&gt;18 -->
<g id="edge18" class="edge"><title>19&#45;&gt;18</title>
<path fill="none" stroke="black" d="M1776.58,-72.7646C1796.56,-62.9137 1822.26,-50.2472 1843.69,-39.6831"/>
<polygon fill="black" stroke="black" points="1845.47,-42.7082 1852.89,-35.1473 1842.37,-36.4296 1845.47,-42.7082"/>
</g>
<!-- 20&#45;&gt;18 -->
<g id="edge23" class="edge"><title>20&#45;&gt;18</title>
<path fill="none" stroke="black" d="M1543.74,-74.9187C1619.28,-62.5643 1728.4,-44.7175 1802.92,-32.5301"/>
<polygon fill="black" stroke="black" points="1803.89,-35.9174 1813.2,-30.8492 1802.76,-29.0092 1803.89,-35.9174"/>
</g>
<!-- 21&#45;&gt;18 -->
<g id="edge28" class="edge"><title>21&#45;&gt;18</title>
<path fill="none" stroke="black" d="M1993.99,-72.411C1974.13,-62.6204 1948.82,-50.1428 1927.66,-39.7103"/>
<polygon fill="black" stroke="black" points="1929.08,-36.5108 1918.57,-35.2285 1925.99,-42.7893 1929.08,-36.5108"/>
</g>
<!-- 23 -->
<g id="node24" class="node"><title>23</title>
<ellipse fill="paleturquoise" stroke="paleturquoise" cx="2087.65" cy="-306" rx="75.8461" ry="18"/>
<text text-anchor="middle" x="2087.65" y="-301.8" font-family="Times,serif" font-size="14.00">./example/cmd/api</text>
</g>
<!-- 23&#45;&gt;0 -->
<g id="edge31" class="edge"><title>23&#45;&gt;0</title>
<path fill="none" stroke="black" d="M2014.54,-300.978C1891.77,-293.822 1636.49,-277.218 1421.65,-252 1214.81,-227.723 1164.42,-212.046 958.646,-180 950.19,-178.683 941.365,-177.308 932.557,-175.935"/>
<polygon fill="black" stroke="black" points="933.061,-172.471 922.642,-174.389 931.983,-179.388 933.061,-172.471"/>
</g>
<!-- 23&#45;&gt;7 -->
<g id="edge32" class="edge"><title>23&#45;&gt;7</title>
<path fill="none" stroke="black" d="M2163.42,-305.565C2368.91,-306.405 2925.64,-303.823 2988.65,-252 3006.51,-237.305 3011.52,-210.718 3012.5,-190.417"/>
<polygon fill="black" stroke="black" points="3016.01,-190.25 3012.69,-180.186 3009.01,-190.119 3016.01,-190.25"/>
</g>
<!-- 23&#45;&gt;9 -->
<g id="edge33" class="edge"><title>23&#45;&gt;9</title>
<path fill="none" stroke="black" d="M2130.38,-291.087C2163.4,-280.335 2209.42,-265.352 2245.59,-253.576"/>
<polygon fill="black" stroke="black" points="2247.09,-256.77 2255.51,-250.346 2244.92,-250.114 2247.09,-256.77"/>
</g>
<!-- 23&#45;&gt;10 -->
<g id="edge34" class="edge"><title>23&#45;&gt;10</title>
<path fill="none" stroke="black" d="M2052.89,-289.983C2029.29,-279.786 1997.82,-266.186 1972.08,-255.063"/>
<polygon fill="black" stroke="black" points="1973.45,-251.842 1962.88,-251.089 1970.67,-258.268 1973.45,-251.842"/>
</g>
<!-- 23&#45;&gt;11 -->
<g id="edge36" class="edge"><title>23&#45;&gt;11</title>
<path fill="none" stroke="black" d="M2024.13,-296.14C1961.01,-286.875 1861.63,-271.042 1776.65,-252 1685.84,-231.653 1582.36,-201.462 1518.51,-182.006"/>
<polygon fill="black" stroke="black" points="1519.2,-178.556 1508.62,-178.978 1517.15,-185.25 1519.2,-178.556"/>
</g>
<!-- 23&#45;&gt;12 -->
<g id="edge37" class="edge"><title>23&#45;&gt;12</title>
<path fill="none" stroke="black" d="M2018.88,-298.27C1929.63,-289.242 1769.17,-272.011 1632.65,-252 1485.67,-230.457 1315.7,-199.004 1215.73,-179.832"/>
<polygon fill="black" stroke="black" points="1216.17,-176.351 1205.69,-177.901 1214.85,-183.226 1216.17,-176.351"/>
</g>
<!-- 23&#45;&gt;13 -->
<g id="edge38" class="edge"><title>23&#45;&gt;13</title>
<path fill="none" stroke="black" d="M2016.54,-299.624C1943.23,-292.73 1835.28,-278.384 1803.65,-252 1785.34,-236.733 1776.87,-210.453 1772.96,-190.397"/>
<polygon fill="black" stroke="black" points="1776.37,-189.569 1771.27,-180.286 1769.47,-190.727 1776.37,-189.569"/>
</g>
<!-- 23&#45;&gt;14 -->
<g id="edge39" class="edge"><title>23&#45;&gt;14</title>
<path fill="none" stroke="black" d="M2088.37,-287.871C2089.39,-263.67 2091.27,-219.211 2092.49,-190.393"/>
<polygon fill="black" stroke="black" points="2095.99,-190.328 2092.92,-180.189 2089,-190.033 2095.99,-190.328"/>
</g>
<!-- 23&#45;&gt;15 -->
<g id="edge40" class="edge"><title>23&#45;&gt;15</title>
<path fill="none" stroke="black" d="M2094.74,-287.974C2104.17,-267.544 2122.83,-233.82 2149.65,-216 2174.26,-199.647 2241.25,-185.871 2299.4,-176.466"/>
<polygon fill="black" stroke="black" points="2300.07,-179.904 2309.4,-174.878 2298.97,-172.991 2300.07,-179.904"/>
</g>
<!-- 23&#45;&gt;16 -->
<g id="edge41" class="edge"><title>23&#45;&gt;16</title>
<path fill="none" stroke="black" d="M2106.48,-288.542C2118.18,-278.204 2133.45,-264.503 2146.65,-252 2163.07,-236.434 2162.21,-225.719 2182.65,-216 2253.25,-182.418 2454.91,-188.432 2532.65,-180 2545.23,-178.635 2558.4,-177.176 2571.49,-175.707"/>
<polygon fill="black" stroke="black" points="2571.93,-179.18 2581.48,-174.583 2571.15,-172.224 2571.93,-179.18"/>
</g>
<!-- 23&#45;&gt;17 -->
<g id="edge35" class="edge"><title>23&#45;&gt;17</title>
<path fill="none" stroke="black" d="M2157.04,-298.633C2288.52,-286.572 2575.09,-260.28 2735.69,-245.546"/>
<polygon fill="black" stroke="black" points="2736.45,-248.992 2746.09,-244.593 2735.81,-242.021 2736.45,-248.992"/>
</g>
</g>
</svg>
