<?xml version="1.0" encoding="UTF-8" standalone="no"?>
<!DOCTYPE svg PUBLIC "-//W3C//DTD SVG 1.1//EN"
 "http://www.w3.org/Graphics/SVG/1.1/DTD/svg11.dtd">
<!-- Generated by graphviz version 2.38.0 (20140413.2041)
 -->
<!-- Title: godep Pages: 1 -->
<svg width="3180pt" height="332pt"
 viewBox="0.00 0.00 3179.73 332.00" xmlns="http://www.w3.org/2000/svg" xmlns:xlink="http://www.w3.org/1999/xlink">
<g id="graph0" class="graph" transform="scale(1 1) rotate(0) translate(4 328)">
<title>godep</title>
<polygon fill="white" stroke="none" points="-4,4 -4,-328 3175.73,-328 3175.73,4 -4,4"/>
<!-- 0 -->
<g id="node1" class="node"><title>0</title>
<ellipse fill="paleturquoise" stroke="paleturquoise" cx="602.976" cy="-162" rx="100.004" ry="18"/>
<text text-anchor="middle" x="602.976" y="-157.8" font-family="Times,serif" font-size="14.00">github.com/gin&#45;gonic/gin</text>
</g>
<!-- 1 -->
<g id="node2" class="node"><title>1</title>
<ellipse fill="paleturquoise" stroke="paleturquoise" cx="846.976" cy="-90" rx="129.963" ry="18"/>
<text text-anchor="middle" x="846.976" y="-85.8" font-family="Times,serif" font-size="14.00">github.com/gin&#45;gonic/gin/binding</text>
</g>
<!-- 0&#45;&gt;1 -->
<g id="edge1" class="edge"><title>0&#45;&gt;1</title>
<path fill="none" stroke="black" d="M653.83,-146.411C691.506,-135.602 743.097,-120.801 783.482,-109.216"/>
<polygon fill="black" stroke="black" points="784.582,-112.541 793.229,-106.419 782.651,-105.813 784.582,-112.541"/>
</g>
<!-- 2 -->
<g id="node3" class="node"><title>2</title>
<ellipse fill="paleturquoise" stroke="paleturquoise" cx="1119.98" cy="-90" rx="125.085" ry="18"/>
<text text-anchor="middle" x="1119.98" y="-85.8" font-family="Times,serif" font-size="14.00">github.com/gin&#45;gonic/gin/render</text>
</g>
<!-- 0&#45;&gt;2 -->
<g id="edge2" class="edge"><title>0&#45;&gt;2</title>
<path fill="none" stroke="black" d="M675.347,-149.448C687.566,-147.573 700.126,-145.693 711.976,-144 769.458,-135.785 918.495,-116.627 1019.61,-103.739"/>
<polygon fill="black" stroke="black" points="1020.07,-107.209 1029.54,-102.473 1019.18,-100.265 1020.07,-107.209"/>
</g>
<!-- 3 -->
<g id="node4" class="node"><title>3</title>
<ellipse fill="paleturquoise" stroke="paleturquoise" cx="114.976" cy="-90" rx="114.952" ry="18"/>
<text text-anchor="middle" x="114.976" y="-85.8" font-family="Times,serif" font-size="14.00">github.com/manucorporat/sse</text>
</g>
<!-- 0&#45;&gt;3 -->
<g id="edge3" class="edge"><title>0&#45;&gt;3</title>
<path fill="none" stroke="black" d="M527.262,-150.139C440.73,-137.727 299.143,-117.417 206.499,-104.128"/>
<polygon fill="black" stroke="black" points="206.967,-100.66 196.572,-102.704 205.973,-107.589 206.967,-100.66"/>
</g>
<!-- 4 -->
<g id="node5" class="node"><title>4</title>
<ellipse fill="paleturquoise" stroke="paleturquoise" cx="367.976" cy="-90" rx="119.772" ry="18"/>
<text text-anchor="middle" x="367.976" y="-85.8" font-family="Times,serif" font-size="14.00">github.com/mattn/go&#45;colorable</text>
</g>
<!-- 0&#45;&gt;4 -->
<g id="edge4" class="edge"><title>0&#45;&gt;4</title>
<path fill="none" stroke="black" d="M553.426,-146.24C517.177,-135.443 467.782,-120.729 429.085,-109.202"/>
<polygon fill="black" stroke="black" points="430.074,-105.845 419.491,-106.345 428.076,-112.554 430.074,-105.845"/>
</g>
<!-- 5 -->
<g id="node6" class="node"><title>5</title>
<ellipse fill="paleturquoise" stroke="paleturquoise" cx="602.976" cy="-90" rx="96.7919" ry="18"/>
<text text-anchor="middle" x="602.976" y="-85.8" font-family="Times,serif" font-size="14.00">golang.org/x/net/context</text>
</g>
<!-- 0&#45;&gt;5 -->
<g id="edge5" class="edge"><title>0&#45;&gt;5</title>
<path fill="none" stroke="black" d="M602.976,-143.697C602.976,-135.983 602.976,-126.712 602.976,-118.112"/>
<polygon fill="black" stroke="black" points="606.476,-118.104 602.976,-108.104 599.476,-118.104 606.476,-118.104"/>
</g>
<!-- 6 -->
<g id="node7" class="node"><title>6</title>
<ellipse fill="paleturquoise" stroke="paleturquoise" cx="846.976" cy="-18" rx="131.391" ry="18"/>
<text text-anchor="middle" x="846.976" y="-13.8" font-family="Times,serif" font-size="14.00">gopkg.in/bluesuncorp/validator.v5</text>
</g>
<!-- 1&#45;&gt;6 -->
<g id="edge6" class="edge"><title>1&#45;&gt;6</title>
<path fill="none" stroke="black" d="M846.976,-71.6966C846.976,-63.9827 846.976,-54.7125 846.976,-46.1124"/>
<polygon fill="black" stroke="black" points="850.476,-46.1043 846.976,-36.1043 843.476,-46.1044 850.476,-46.1043"/>
</g>
<!-- 7 -->
<g id="node8" class="node"><title>7</title>
<ellipse fill="paleturquoise" stroke="paleturquoise" cx="2687.98" cy="-162" rx="95.6597" ry="18"/>
<text text-anchor="middle" x="2687.98" y="-157.8" font-family="Times,serif" font-size="14.00">github.com/jinzhu/gorm</text>
</g>
<!-- 8 -->
<g id="node9" class="node"><title>8</title>
<ellipse fill="paleturquoise" stroke="paleturquoise" cx="2509.98" cy="-90" rx="110.635" ry="18"/>
<text text-anchor="middle" x="2509.98" y="-85.8" font-family="Times,serif" font-size="14.00">github.com/jinzhu/inflection</text>
</g>
<!-- 7&#45;&gt;8 -->
<g id="edge7" class="edge"><title>7&#45;&gt;8</title>
<path fill="none" stroke="black" d="M2648.47,-145.465C2622.36,-135.196 2587.91,-121.65 2559.91,-110.636"/>
<polygon fill="black" stroke="black" points="2560.88,-107.258 2550.29,-106.855 2558.32,-113.772 2560.88,-107.258"/>
</g>
<!-- 9 -->
<g id="node10" class="node"><title>9</title>
<ellipse fill="#ffb90f" stroke="#ffb90f" cx="1441.98" cy="-234" rx="110.635" ry="18"/>
<text text-anchor="middle" x="1441.98" y="-229.8" font-family="Times,serif" font-size="14.00">github.com/mattn/go&#45;sqlite3</text>
</g>
<!-- 10 -->
<g id="node11" class="node"><title>10</title>
<ellipse fill="paleturquoise" stroke="paleturquoise" cx="1759.98" cy="-234" rx="113.481" ry="18"/>
<text text-anchor="middle" x="1759.98" y="-229.8" font-family="Times,serif" font-size="14.00">./example/app/controllers/api</text>
</g>
<!-- 10&#45;&gt;0 -->
<g id="edge8" class="edge"><title>10&#45;&gt;0</title>
<path fill="none" stroke="black" d="M1665.37,-224.037C1632.64,-221.16 1595.72,-218.162 1561.98,-216 1184.63,-191.822 1088.26,-217.193 711.976,-180 702.327,-179.046 692.232,-177.805 682.244,-176.427"/>
<polygon fill="black" stroke="black" points="682.707,-172.958 672.313,-175.009 681.718,-179.887 682.707,-172.958"/>
</g>
<!-- 11 -->
<g id="node12" class="node"><title>11</title>
<ellipse fill="paleturquoise" stroke="paleturquoise" cx="1547.98" cy="-162" rx="147.752" ry="18"/>
<text text-anchor="middle" x="1547.98" y="-157.8" font-family="Times,serif" font-size="14.00">./example/bizrules/usecases/add_sprint</text>
</g>
<!-- 10&#45;&gt;11 -->
<g id="edge9" class="edge"><title>10&#45;&gt;11</title>
<path fill="none" stroke="black" d="M1713.19,-217.552C1681.67,-207.144 1639.87,-193.342 1606.2,-182.224"/>
<polygon fill="black" stroke="black" points="1607.08,-178.828 1596.48,-179.016 1604.88,-185.475 1607.08,-178.828"/>
</g>
<!-- 12 -->
<g id="node13" class="node"><title>12</title>
<ellipse fill="paleturquoise" stroke="paleturquoise" cx="882.976" cy="-162" rx="161.767" ry="18"/>
<text text-anchor="middle" x="882.976" y="-157.8" font-family="Times,serif" font-size="14.00">./example/bizrules/usecases/add_sprint/dto</text>
</g>
<!-- 10&#45;&gt;12 -->
<g id="edge10" class="edge"><title>10&#45;&gt;12</title>
<path fill="none" stroke="black" d="M1663.57,-224.43C1631.28,-221.638 1595.08,-218.592 1561.98,-216 1335.88,-198.299 1278.94,-199.285 1052.98,-180 1038.07,-178.728 1022.43,-177.296 1006.94,-175.819"/>
<polygon fill="black" stroke="black" points="1007.07,-172.315 996.782,-174.842 1006.4,-179.283 1007.07,-172.315"/>
</g>
<!-- 13 -->
<g id="node14" class="node"><title>13</title>
<ellipse fill="paleturquoise" stroke="paleturquoise" cx="2427.98" cy="-162" rx="145.822" ry="18"/>
<text text-anchor="middle" x="2427.98" y="-157.8" font-family="Times,serif" font-size="14.00">./example/bizrules/usecases/get_sprint</text>
</g>
<!-- 10&#45;&gt;13 -->
<g id="edge11" class="edge"><title>10&#45;&gt;13</title>
<path fill="none" stroke="black" d="M1852.67,-223.601C1955.43,-213.14 2126.07,-195.645 2272.98,-180 2285.95,-178.618 2299.54,-177.153 2313.05,-175.687"/>
<polygon fill="black" stroke="black" points="2313.79,-179.127 2323.35,-174.566 2313.03,-172.168 2313.79,-179.127"/>
</g>
<!-- 14 -->
<g id="node15" class="node"><title>14</title>
<ellipse fill="paleturquoise" stroke="paleturquoise" cx="1221.98" cy="-162" rx="159.837" ry="18"/>
<text text-anchor="middle" x="1221.98" y="-157.8" font-family="Times,serif" font-size="14.00">./example/bizrules/usecases/get_sprint/dto</text>
</g>
<!-- 10&#45;&gt;14 -->
<g id="edge12" class="edge"><title>10&#45;&gt;14</title>
<path fill="none" stroke="black" d="M1675.32,-221.985C1582.68,-209.932 1433.83,-190.564 1332.15,-177.334"/>
<polygon fill="black" stroke="black" points="1332.52,-173.853 1322.15,-176.034 1331.61,-180.795 1332.52,-173.853"/>
</g>
<!-- 15 -->
<g id="node16" class="node"><title>15</title>
<ellipse fill="paleturquoise" stroke="paleturquoise" cx="1839.98" cy="-162" rx="126.028" ry="18"/>
<text text-anchor="middle" x="1839.98" y="-157.8" font-family="Times,serif" font-size="14.00">./example/bizrules/usecases/ping</text>
</g>
<!-- 10&#45;&gt;15 -->
<g id="edge13" class="edge"><title>10&#45;&gt;15</title>
<path fill="none" stroke="black" d="M1779.34,-216.055C1789.39,-207.264 1801.83,-196.38 1812.82,-186.763"/>
<polygon fill="black" stroke="black" points="1815.29,-189.251 1820.51,-180.032 1810.68,-183.983 1815.29,-189.251"/>
</g>
<!-- 16 -->
<g id="node17" class="node"><title>16</title>
<ellipse fill="paleturquoise" stroke="paleturquoise" cx="2123.98" cy="-162" rx="140.042" ry="18"/>
<text text-anchor="middle" x="2123.98" y="-157.8" font-family="Times,serif" font-size="14.00">./example/bizrules/usecases/ping/dto</text>
</g>
<!-- 10&#45;&gt;16 -->
<g id="edge14" class="edge"><title>10&#45;&gt;16</title>
<path fill="none" stroke="black" d="M1829.3,-219.669C1889.11,-208.166 1975.7,-191.514 2039.55,-179.236"/>
<polygon fill="black" stroke="black" points="2040.43,-182.63 2049.59,-177.305 2039.11,-175.756 2040.43,-182.63"/>
</g>
<!-- 19 -->
<g id="node20" class="node"><title>19</title>
<ellipse fill="paleturquoise" stroke="paleturquoise" cx="2748.98" cy="-90" rx="110.583" ry="18"/>
<text text-anchor="middle" x="2748.98" y="-85.8" font-family="Times,serif" font-size="14.00">./example/bizrules/gateways</text>
</g>
<!-- 11&#45;&gt;19 -->
<g id="edge21" class="edge"><title>11&#45;&gt;19</title>
<path fill="none" stroke="black" d="M1650.07,-148.913C1668.33,-147.045 1687.2,-145.306 1704.98,-144 2115.29,-113.837 2220.23,-145.141 2629.98,-108 2640.56,-107.041 2651.64,-105.791 2662.6,-104.403"/>
<polygon fill="black" stroke="black" points="2663.15,-107.861 2672.61,-103.095 2662.25,-100.92 2663.15,-107.861"/>
</g>
<!-- 21 -->
<g id="node22" class="node"><title>21</title>
<ellipse fill="paleturquoise" stroke="paleturquoise" cx="1547.98" cy="-90" rx="157.423" ry="18"/>
<text text-anchor="middle" x="1547.98" y="-85.8" font-family="Times,serif" font-size="14.00">./example/bizrules/usecases/add_sprint/io</text>
</g>
<!-- 11&#45;&gt;21 -->
<g id="edge22" class="edge"><title>11&#45;&gt;21</title>
<path fill="none" stroke="black" d="M1547.98,-143.697C1547.98,-135.983 1547.98,-126.712 1547.98,-118.112"/>
<polygon fill="black" stroke="black" points="1551.48,-118.104 1547.98,-108.104 1544.48,-118.104 1551.48,-118.104"/>
</g>
<!-- 18 -->
<g id="node19" class="node"><title>18</title>
<ellipse fill="paleturquoise" stroke="paleturquoise" cx="2210.98" cy="-18" rx="103.359" ry="18"/>
<text text-anchor="middle" x="2210.98" y="-13.8" font-family="Times,serif" font-size="14.00">./example/bizrules/entities</text>
</g>
<!-- 12&#45;&gt;18 -->
<g id="edge23" class="edge"><title>12&#45;&gt;18</title>
<path fill="none" stroke="black" d="M990.241,-148.483C1091.06,-136.264 1229.98,-118.081 1253.98,-108 1278.23,-97.8076 1276.31,-81.1683 1300.98,-72 1373.98,-44.8633 1872.77,-28.1223 2099.37,-21.8348"/>
<polygon fill="black" stroke="black" points="2099.72,-25.3264 2109.62,-21.5523 2099.53,-18.3291 2099.72,-25.3264"/>
</g>
<!-- 12&#45;&gt;21 -->
<g id="edge24" class="edge"><title>12&#45;&gt;21</title>
<path fill="none" stroke="black" d="M996.161,-149.086C1115.8,-136.492 1303.81,-116.701 1426.5,-103.787"/>
<polygon fill="black" stroke="black" points="1427.11,-107.242 1436.69,-102.714 1426.38,-100.281 1427.11,-107.242"/>
</g>
<!-- 13&#45;&gt;19 -->
<g id="edge26" class="edge"><title>13&#45;&gt;19</title>
<path fill="none" stroke="black" d="M2496.44,-146.069C2549.23,-134.559 2622.07,-118.675 2675.96,-106.923"/>
<polygon fill="black" stroke="black" points="2676.77,-110.329 2685.79,-104.779 2675.27,-103.49 2676.77,-110.329"/>
</g>
<!-- 22 -->
<g id="node23" class="node"><title>22</title>
<ellipse fill="paleturquoise" stroke="paleturquoise" cx="2210.98" cy="-90" rx="155.494" ry="18"/>
<text text-anchor="middle" x="2210.98" y="-85.8" font-family="Times,serif" font-size="14.00">./example/bizrules/usecases/get_sprint/io</text>
</g>
<!-- 13&#45;&gt;22 -->
<g id="edge27" class="edge"><title>13&#45;&gt;22</title>
<path fill="none" stroke="black" d="M2378.46,-145.028C2346.47,-134.708 2304.65,-121.217 2270.8,-110.298"/>
<polygon fill="black" stroke="black" points="2271.62,-106.885 2261.03,-107.145 2269.47,-113.546 2271.62,-106.885"/>
</g>
<!-- 14&#45;&gt;18 -->
<g id="edge28" class="edge"><title>14&#45;&gt;18</title>
<path fill="none" stroke="black" d="M1244.63,-144.071C1274.38,-122.899 1329.06,-87.5445 1381.98,-72 1512.9,-33.5373 1903.26,-22.9778 2097.96,-20.086"/>
<polygon fill="black" stroke="black" points="2098.27,-23.582 2108.22,-19.938 2098.17,-16.5827 2098.27,-23.582"/>
</g>
<!-- 14&#45;&gt;22 -->
<g id="edge29" class="edge"><title>14&#45;&gt;22</title>
<path fill="none" stroke="black" d="M1333.73,-149.055C1352.82,-147.216 1372.46,-145.45 1390.98,-144 1675.89,-121.693 1748.01,-129.589 2032.98,-108 2050.95,-106.638 2069.93,-105.02 2088.53,-103.331"/>
<polygon fill="black" stroke="black" points="2088.88,-106.814 2098.51,-102.415 2088.24,-99.8432 2088.88,-106.814"/>
</g>
<!-- 23 -->
<g id="node24" class="node"><title>23</title>
<ellipse fill="paleturquoise" stroke="paleturquoise" cx="1887.98" cy="-90" rx="135.699" ry="18"/>
<text text-anchor="middle" x="1887.98" y="-85.8" font-family="Times,serif" font-size="14.00">./example/bizrules/usecases/ping/io</text>
</g>
<!-- 15&#45;&gt;23 -->
<g id="edge31" class="edge"><title>15&#45;&gt;23</title>
<path fill="none" stroke="black" d="M1851.6,-144.055C1857.23,-135.837 1864.12,-125.791 1870.38,-116.66"/>
<polygon fill="black" stroke="black" points="1873.36,-118.502 1876.13,-108.275 1867.59,-114.543 1873.36,-118.502"/>
</g>
<!-- 16&#45;&gt;23 -->
<g id="edge32" class="edge"><title>16&#45;&gt;23</title>
<path fill="none" stroke="black" d="M2071.01,-145.291C2035.33,-134.708 1988.12,-120.703 1950.58,-109.569"/>
<polygon fill="black" stroke="black" points="1951.34,-106.145 1940.76,-106.657 1949.35,-112.856 1951.34,-106.145"/>
</g>
<!-- 17 -->
<g id="node18" class="node"><title>17</title>
<ellipse fill="paleturquoise" stroke="paleturquoise" cx="2886.98" cy="-234" rx="128.968" ry="18"/>
<text text-anchor="middle" x="2886.98" y="-229.8" font-family="Times,serif" font-size="14.00">./example/app/repos/sprints/gorm</text>
</g>
<!-- 17&#45;&gt;7 -->
<g id="edge15" class="edge"><title>17&#45;&gt;7</title>
<path fill="none" stroke="black" d="M2841.82,-217.116C2811.68,-206.515 2771.95,-192.538 2740.41,-181.445"/>
<polygon fill="black" stroke="black" points="2741.5,-178.118 2730.91,-178.101 2739.18,-184.721 2741.5,-178.118"/>
</g>
<!-- 17&#45;&gt;18 -->
<g id="edge16" class="edge"><title>17&#45;&gt;18</title>
<path fill="none" stroke="black" d="M2891.21,-215.927C2898.29,-182.856 2908.15,-109.98 2868.98,-72 2830.76,-34.951 2501.52,-23.7631 2323.74,-20.4129"/>
<polygon fill="black" stroke="black" points="2323.63,-16.9103 2313.57,-20.2265 2323.5,-23.9091 2323.63,-16.9103"/>
</g>
<!-- 17&#45;&gt;19 -->
<g id="edge17" class="edge"><title>17&#45;&gt;19</title>
<path fill="none" stroke="black" d="M2877.8,-215.895C2867.07,-196.898 2847.94,-166.01 2825.98,-144 2814.32,-132.316 2799.76,-121.549 2786.46,-112.816"/>
<polygon fill="black" stroke="black" points="2788.25,-109.809 2777.94,-107.381 2784.49,-115.71 2788.25,-109.809"/>
</g>
<!-- 19&#45;&gt;18 -->
<g id="edge20" class="edge"><title>19&#45;&gt;18</title>
<path fill="none" stroke="black" d="M2669.31,-77.4383C2656.17,-75.584 2642.7,-73.7129 2629.98,-72 2517.55,-56.8604 2387.98,-40.6628 2303.05,-30.2152"/>
<polygon fill="black" stroke="black" points="2303.27,-26.7161 2292.92,-28.9701 2302.42,-33.6638 2303.27,-26.7161"/>
</g>
<!-- 20 -->
<g id="node21" class="node"><title>20</title>
<ellipse fill="paleturquoise" stroke="paleturquoise" cx="3043.98" cy="-162" rx="127.999" ry="18"/>
<text text-anchor="middle" x="3043.98" y="-157.8" font-family="Times,serif" font-size="14.00">./example/app/repos/sprints/mem</text>
</g>
<!-- 20&#45;&gt;18 -->
<g id="edge18" class="edge"><title>20&#45;&gt;18</title>
<path fill="none" stroke="black" d="M3023.95,-143.966C2997.82,-122.856 2949.78,-87.7477 2901.98,-72 2797.62,-37.6236 2490.44,-25.3213 2322.97,-21.0935"/>
<polygon fill="black" stroke="black" points="2322.96,-17.5925 2312.88,-20.8444 2322.79,-24.5904 2322.96,-17.5925"/>
</g>
<!-- 20&#45;&gt;19 -->
<g id="edge19" class="edge"><title>20&#45;&gt;19</title>
<path fill="none" stroke="black" d="M2981.77,-146.24C2934.09,-134.926 2868.29,-119.312 2818.81,-107.571"/>
<polygon fill="black" stroke="black" points="2819.36,-104.105 2808.83,-105.202 2817.75,-110.916 2819.36,-104.105"/>
</g>
<!-- 21&#45;&gt;18 -->
<g id="edge25" class="edge"><title>21&#45;&gt;18</title>
<path fill="none" stroke="black" d="M1659.32,-77.2441C1787.04,-63.7598 1994.32,-41.8746 2115.13,-29.119"/>
<polygon fill="black" stroke="black" points="2115.54,-32.596 2125.12,-28.0652 2114.8,-25.6347 2115.54,-32.596"/>
</g>
<!-- 22&#45;&gt;18 -->
<g id="edge30" class="edge"><title>22&#45;&gt;18</title>
<path fill="none" stroke="black" d="M2210.98,-71.6966C2210.98,-63.9827 2210.98,-54.7125 2210.98,-46.1124"/>
<polygon fill="black" stroke="black" points="2214.48,-46.1043 2210.98,-36.1043 2207.48,-46.1044 2214.48,-46.1043"/>
</g>
<!-- 24 -->
<g id="node25" class="node"><title>24</title>
<ellipse fill="paleturquoise" stroke="paleturquoise" cx="1900.98" cy="-306" rx="75.8461" ry="18"/>
<text text-anchor="middle" x="1900.98" y="-301.8" font-family="Times,serif" font-size="14.00">./example/cmd/api</text>
</g>
<!-- 24&#45;&gt;0 -->
<g id="edge33" class="edge"><title>24&#45;&gt;0</title>
<path fill="none" stroke="black" d="M1826.65,-302.415C1688.2,-297.048 1381.59,-282.56 1124.98,-252 964.128,-232.844 777.412,-197.896 676.634,-177.969"/>
<polygon fill="black" stroke="black" points="677.049,-174.483 666.559,-175.97 675.687,-181.349 677.049,-174.483"/>
</g>
<!-- 24&#45;&gt;7 -->
<g id="edge34" class="edge"><title>24&#45;&gt;7</title>
<path fill="none" stroke="black" d="M1959.49,-294.443C2099.61,-269.159 2454.43,-205.14 2611.33,-176.829"/>
<polygon fill="black" stroke="black" points="2612.16,-180.237 2621.38,-175.016 2610.92,-173.348 2612.16,-180.237"/>
</g>
<!-- 24&#45;&gt;9 -->
<g id="edge35" class="edge"><title>24&#45;&gt;9</title>
<path fill="none" stroke="black" d="M1839.07,-295.559C1759.35,-283.402 1620.31,-262.197 1529.71,-248.38"/>
<polygon fill="black" stroke="black" points="1530.15,-244.906 1519.73,-246.858 1529.09,-251.826 1530.15,-244.906"/>
</g>
<!-- 24&#45;&gt;10 -->
<g id="edge36" class="edge"><title>24&#45;&gt;10</title>
<path fill="none" stroke="black" d="M1869.68,-289.465C1849.81,-279.597 1823.83,-266.701 1802.15,-255.936"/>
<polygon fill="black" stroke="black" points="1803.66,-252.779 1793.15,-251.467 1800.55,-259.049 1803.66,-252.779"/>
</g>
<!-- 24&#45;&gt;11 -->
<g id="edge40" class="edge"><title>24&#45;&gt;11</title>
<path fill="none" stroke="black" d="M1827.42,-301.492C1772.47,-296.266 1696.97,-283.417 1637.98,-252 1622.47,-243.741 1591.21,-211.069 1569.94,-187.708"/>
<polygon fill="black" stroke="black" points="1572.45,-185.263 1563.14,-180.192 1567.25,-189.957 1572.45,-185.263"/>
</g>
<!-- 24&#45;&gt;12 -->
<g id="edge41" class="edge"><title>24&#45;&gt;12</title>
<path fill="none" stroke="black" d="M1828.01,-300.875C1717.93,-294.075 1502.99,-278.554 1321.98,-252 1193.06,-233.09 1044.85,-200.811 957.823,-180.762"/>
<polygon fill="black" stroke="black" points="958.569,-177.342 948.038,-178.5 956.992,-184.162 958.569,-177.342"/>
</g>
<!-- 24&#45;&gt;13 -->
<g id="edge42" class="edge"><title>24&#45;&gt;13</title>
<path fill="none" stroke="black" d="M1949.14,-292.022C2043.39,-266.627 2252.39,-210.312 2360.41,-181.205"/>
<polygon fill="black" stroke="black" points="2361.48,-184.542 2370.23,-178.561 2359.66,-177.783 2361.48,-184.542"/>
</g>
<!-- 24&#45;&gt;14 -->
<g id="edge43" class="edge"><title>24&#45;&gt;14</title>
<path fill="none" stroke="black" d="M1832.48,-298.33C1755.15,-289.901 1634.89,-273.817 1594.98,-252 1575.93,-241.591 1581.11,-226.248 1561.98,-216 1542.05,-205.329 1426.88,-188.754 1336.03,-176.984"/>
<polygon fill="black" stroke="black" points="1336.28,-173.488 1325.92,-175.681 1335.39,-180.431 1336.28,-173.488"/>
</g>
<!-- 24&#45;&gt;15 -->
<g id="edge44" class="edge"><title>24&#45;&gt;15</title>
<path fill="none" stroke="black" d="M1899.66,-287.861C1897.71,-269.374 1893.02,-239.441 1881.98,-216 1877.32,-206.123 1870.51,-196.427 1863.72,-188.085"/>
<polygon fill="black" stroke="black" points="1866.17,-185.567 1857.01,-180.237 1860.85,-190.114 1866.17,-185.567"/>
</g>
<!-- 24&#45;&gt;16 -->
<g id="edge45" class="edge"><title>24&#45;&gt;16</title>
<path fill="none" stroke="black" d="M1926.12,-288.987C1965.96,-263.623 2043.67,-214.137 2088.94,-185.31"/>
<polygon fill="black" stroke="black" points="2090.99,-188.157 2097.54,-179.833 2087.23,-182.252 2090.99,-188.157"/>
</g>
<!-- 24&#45;&gt;17 -->
<g id="edge37" class="edge"><title>24&#45;&gt;17</title>
<path fill="none" stroke="black" d="M1974.66,-301.746C2121.32,-294.965 2460.11,-277.777 2743.98,-252 2757.3,-250.79 2771.3,-249.343 2785.12,-247.811"/>
<polygon fill="black" stroke="black" points="2785.58,-251.281 2795.13,-246.683 2784.8,-244.325 2785.58,-251.281"/>
</g>
<!-- 24&#45;&gt;19 -->
<g id="edge39" class="edge"><title>24&#45;&gt;19</title>
<path fill="none" stroke="black" d="M1972.92,-300.29C2175.49,-286.3 2739.46,-242.064 2792.98,-180 2809.5,-160.84 2792.61,-134.394 2775.19,-115.315"/>
<polygon fill="black" stroke="black" points="2777.5,-112.669 2768.05,-107.887 2772.46,-117.521 2777.5,-112.669"/>
</g>
<!-- 24&#45;&gt;20 -->
<g id="edge38" class="edge"><title>24&#45;&gt;20</title>
<path fill="none" stroke="black" d="M1976.44,-303.952C2222.02,-300.216 2985.02,-285.915 3024.98,-252 3042.44,-237.18 3046.22,-210.61 3046.21,-190.347"/>
<polygon fill="black" stroke="black" points="3049.7,-190.025 3045.9,-180.137 3042.7,-190.24 3049.7,-190.025"/>
</g>
</g>
</svg>
