<?xml version="1.0" encoding="UTF-8" standalone="no"?>
<!DOCTYPE svg PUBLIC "-//W3C//DTD SVG 1.1//EN"
 "http://www.w3.org/Graphics/SVG/1.1/DTD/svg11.dtd">
<!-- Generated by graphviz version 2.38.0 (20140413.2041)
 -->
<!-- Title: godep Pages: 1 -->
<svg width="446pt" height="116pt"
 viewBox="0.00 0.00 446.29 116.00" xmlns="http://www.w3.org/2000/svg" xmlns:xlink="http://www.w3.org/1999/xlink">
<g id="graph0" class="graph" transform="scale(1 1) rotate(0) translate(4 112)">
<title>godep</title>
<polygon fill="white" stroke="none" points="-4,4 -4,-112 442.288,-112 442.288,4 -4,4"/>
<!-- 0 -->
<g id="node1" class="node"><title>0</title>
<ellipse fill="paleturquoise" stroke="paleturquoise" cx="107.109" cy="-18" rx="107.217" ry="18"/>
<text text-anchor="middle" x="107.109" y="-13.8" font-family="Times,serif" font-size="14.00">github.com/moul/cleanarch</text>
</g>
<!-- 1 -->
<g id="node2" class="node"><title>1</title>
<ellipse fill="paleturquoise" stroke="paleturquoise" cx="335.109" cy="-18" rx="103.359" ry="18"/>
<text text-anchor="middle" x="335.109" y="-13.8" font-family="Times,serif" font-size="14.00">./example/bizrules/entities</text>
</g>
<!-- 2 -->
<g id="node3" class="node"><title>2</title>
<ellipse fill="paleturquoise" stroke="paleturquoise" cx="221.109" cy="-90" rx="157.423" ry="18"/>
<text text-anchor="middle" x="221.109" y="-85.8" font-family="Times,serif" font-size="14.00">./example/bizrules/usecases/add_sprint/io</text>
</g>
<!-- 2&#45;&gt;0 -->
<g id="edge1" class="edge"><title>2&#45;&gt;0</title>
<path fill="none" stroke="black" d="M193.803,-72.2333C178.574,-62.8824 159.422,-51.1225 142.995,-41.0357"/>
<polygon fill="black" stroke="black" points="144.545,-37.88 134.192,-35.6299 140.882,-43.8452 144.545,-37.88"/>
</g>
<!-- 2&#45;&gt;1 -->
<g id="edge2" class="edge"><title>2&#45;&gt;1</title>
<path fill="none" stroke="black" d="M248.414,-72.2333C263.754,-62.8142 283.075,-50.9507 299.581,-40.8151"/>
<polygon fill="black" stroke="black" points="301.729,-43.6037 308.419,-35.3884 298.066,-37.6385 301.729,-43.6037"/>
</g>
</g>
</svg>
