<?xml version="1.0" encoding="UTF-8" standalone="no"?>
<!DOCTYPE svg PUBLIC "-//W3C//DTD SVG 1.1//EN"
 "http://www.w3.org/Graphics/SVG/1.1/DTD/svg11.dtd">
<!-- Generated by graphviz version 2.38.0 (20140413.2041)
 -->
<!-- Title: godep Pages: 1 -->
<svg width="241pt" height="188pt"
 viewBox="0.00 0.00 240.93 188.00" xmlns="http://www.w3.org/2000/svg" xmlns:xlink="http://www.w3.org/1999/xlink">
<g id="graph0" class="graph" transform="scale(1 1) rotate(0) translate(4 184)">
<title>godep</title>
<polygon fill="white" stroke="none" points="-4,4 -4,-184 236.932,-184 236.932,4 -4,4"/>
<!-- 0 -->
<g id="node1" class="node"><title>0</title>
<ellipse fill="paleturquoise" stroke="paleturquoise" cx="116.466" cy="-162" rx="78.2858" ry="18"/>
<text text-anchor="middle" x="116.466" y="-157.8" font-family="Times,serif" font-size="14.00">./app/entities/sprint</text>
</g>
<!-- 1 -->
<g id="node2" class="node"><title>1</title>
<ellipse fill="paleturquoise" stroke="paleturquoise" cx="116.466" cy="-90" rx="115.463" ry="18"/>
<text text-anchor="middle" x="116.466" y="-85.8" font-family="Times,serif" font-size="14.00">./business&#45;rules/entities/sprint</text>
</g>
<!-- 0&#45;&gt;1 -->
<g id="edge1" class="edge"><title>0&#45;&gt;1</title>
<path fill="none" stroke="black" d="M116.466,-143.697C116.466,-135.983 116.466,-126.712 116.466,-118.112"/>
<polygon fill="black" stroke="black" points="119.966,-118.104 116.466,-108.104 112.966,-118.104 119.966,-118.104"/>
</g>
<!-- 2 -->
<g id="node3" class="node"><title>2</title>
<ellipse fill="paleturquoise" stroke="paleturquoise" cx="116.466" cy="-18" rx="116.432" ry="18"/>
<text text-anchor="middle" x="116.466" y="-13.8" font-family="Times,serif" font-size="14.00">./business&#45;rules/entities/issues</text>
</g>
<!-- 1&#45;&gt;2 -->
<g id="edge2" class="edge"><title>1&#45;&gt;2</title>
<path fill="none" stroke="black" d="M116.466,-71.6966C116.466,-63.9827 116.466,-54.7125 116.466,-46.1124"/>
<polygon fill="black" stroke="black" points="119.966,-46.1043 116.466,-36.1043 112.966,-46.1044 119.966,-46.1043"/>
</g>
</g>
</svg>
