<?xml version="1.0" encoding="UTF-8" standalone="no"?>
<!DOCTYPE svg PUBLIC "-//W3C//DTD SVG 1.1//EN"
 "http://www.w3.org/Graphics/SVG/1.1/DTD/svg11.dtd">
<!-- Generated by graphviz version 2.38.0 (20140413.2041)
 -->
<!-- Title: godep Pages: 1 -->
<svg width="2392pt" height="404pt"
 viewBox="0.00 0.00 2391.74 404.00" xmlns="http://www.w3.org/2000/svg" xmlns:xlink="http://www.w3.org/1999/xlink">
<g id="graph0" class="graph" transform="scale(1 1) rotate(0) translate(4 400)">
<title>godep</title>
<polygon fill="white" stroke="none" points="-4,4 -4,-400 2387.74,-400 2387.74,4 -4,4"/>
<!-- 0 -->
<g id="node1" class="node"><title>0</title>
<ellipse fill="paleturquoise" stroke="paleturquoise" cx="871.886" cy="-234" rx="100.004" ry="18"/>
<text text-anchor="middle" x="871.886" y="-229.8" font-family="Times,serif" font-size="14.00">github.com/gin&#45;gonic/gin</text>
</g>
<!-- 1 -->
<g id="node2" class="node"><title>1</title>
<ellipse fill="paleturquoise" stroke="paleturquoise" cx="598.886" cy="-162" rx="129.963" ry="18"/>
<text text-anchor="middle" x="598.886" y="-157.8" font-family="Times,serif" font-size="14.00">github.com/gin&#45;gonic/gin/binding</text>
</g>
<!-- 0&#45;&gt;1 -->
<g id="edge1" class="edge"><title>0&#45;&gt;1</title>
<path fill="none" stroke="black" d="M816.969,-218.919C774.031,-207.909 714.081,-192.537 667.901,-180.696"/>
<polygon fill="black" stroke="black" points="668.526,-177.243 657.97,-178.15 666.788,-184.024 668.526,-177.243"/>
</g>
<!-- 2 -->
<g id="node3" class="node"><title>2</title>
<ellipse fill="paleturquoise" stroke="paleturquoise" cx="871.886" cy="-162" rx="125.085" ry="18"/>
<text text-anchor="middle" x="871.886" y="-157.8" font-family="Times,serif" font-size="14.00">github.com/gin&#45;gonic/gin/render</text>
</g>
<!-- 0&#45;&gt;2 -->
<g id="edge2" class="edge"><title>0&#45;&gt;2</title>
<path fill="none" stroke="black" d="M871.886,-215.697C871.886,-207.983 871.886,-198.712 871.886,-190.112"/>
<polygon fill="black" stroke="black" points="875.386,-190.104 871.886,-180.104 868.386,-190.104 875.386,-190.104"/>
</g>
<!-- 3 -->
<g id="node4" class="node"><title>3</title>
<ellipse fill="paleturquoise" stroke="paleturquoise" cx="1129.89" cy="-162" rx="114.952" ry="18"/>
<text text-anchor="middle" x="1129.89" y="-157.8" font-family="Times,serif" font-size="14.00">github.com/manucorporat/sse</text>
</g>
<!-- 0&#45;&gt;3 -->
<g id="edge3" class="edge"><title>0&#45;&gt;3</title>
<path fill="none" stroke="black" d="M924.719,-218.666C965.339,-207.644 1021.66,-192.364 1065.02,-180.6"/>
<polygon fill="black" stroke="black" points="1066.16,-183.916 1074.9,-177.919 1064.33,-177.16 1066.16,-183.916"/>
</g>
<!-- 4 -->
<g id="node5" class="node"><title>4</title>
<ellipse fill="paleturquoise" stroke="paleturquoise" cx="119.886" cy="-162" rx="119.772" ry="18"/>
<text text-anchor="middle" x="119.886" y="-157.8" font-family="Times,serif" font-size="14.00">github.com/mattn/go&#45;colorable</text>
</g>
<!-- 0&#45;&gt;4 -->
<g id="edge4" class="edge"><title>0&#45;&gt;4</title>
<path fill="none" stroke="black" d="M780.444,-226.549C658.892,-217.669 437.474,-200.437 248.886,-180 237.856,-178.805 226.31,-177.442 214.853,-176.021"/>
<polygon fill="black" stroke="black" points="215.18,-172.535 204.822,-174.759 214.307,-179.48 215.18,-172.535"/>
</g>
<!-- 5 -->
<g id="node6" class="node"><title>5</title>
<ellipse fill="paleturquoise" stroke="paleturquoise" cx="354.886" cy="-162" rx="96.7919" ry="18"/>
<text text-anchor="middle" x="354.886" y="-157.8" font-family="Times,serif" font-size="14.00">golang.org/x/net/context</text>
</g>
<!-- 0&#45;&gt;5 -->
<g id="edge5" class="edge"><title>0&#45;&gt;5</title>
<path fill="none" stroke="black" d="M790.867,-223.368C707.707,-213.296 574.611,-196.662 459.886,-180 451.611,-178.798 442.978,-177.49 434.373,-176.15"/>
<polygon fill="black" stroke="black" points="434.73,-172.663 424.307,-174.567 433.642,-179.578 434.73,-172.663"/>
</g>
<!-- 6 -->
<g id="node7" class="node"><title>6</title>
<ellipse fill="paleturquoise" stroke="paleturquoise" cx="598.886" cy="-90" rx="131.391" ry="18"/>
<text text-anchor="middle" x="598.886" y="-85.8" font-family="Times,serif" font-size="14.00">gopkg.in/bluesuncorp/validator.v5</text>
</g>
<!-- 1&#45;&gt;6 -->
<g id="edge6" class="edge"><title>1&#45;&gt;6</title>
<path fill="none" stroke="black" d="M598.886,-143.697C598.886,-135.983 598.886,-126.712 598.886,-118.112"/>
<polygon fill="black" stroke="black" points="602.386,-118.104 598.886,-108.104 595.386,-118.104 602.386,-118.104"/>
</g>
<!-- 7 -->
<g id="node8" class="node"><title>7</title>
<ellipse fill="paleturquoise" stroke="paleturquoise" cx="1663.89" cy="-90" rx="107.217" ry="18"/>
<text text-anchor="middle" x="1663.89" y="-85.8" font-family="Times,serif" font-size="14.00">github.com/moul/cleanarch</text>
</g>
<!-- 8 -->
<g id="node9" class="node"><title>8</title>
<ellipse fill="paleturquoise" stroke="paleturquoise" cx="1472.89" cy="-306" rx="103.86" ry="18"/>
<text text-anchor="middle" x="1472.89" y="-301.8" font-family="Times,serif" font-size="14.00">./app/controllers/api/sprint</text>
</g>
<!-- 8&#45;&gt;0 -->
<g id="edge7" class="edge"><title>8&#45;&gt;0</title>
<path fill="none" stroke="black" d="M1389.32,-295.267C1277.55,-282.248 1080.04,-259.244 964.054,-245.735"/>
<polygon fill="black" stroke="black" points="964.118,-242.219 953.78,-244.538 963.308,-249.172 964.118,-242.219"/>
</g>
<!-- 9 -->
<g id="node10" class="node"><title>9</title>
<ellipse fill="paleturquoise" stroke="paleturquoise" cx="1332.89" cy="-234" rx="111.587" ry="18"/>
<text text-anchor="middle" x="1332.89" y="-229.8" font-family="Times,serif" font-size="14.00">./app/view&#45;models/api/sprint</text>
</g>
<!-- 8&#45;&gt;9 -->
<g id="edge8" class="edge"><title>8&#45;&gt;9</title>
<path fill="none" stroke="black" d="M1440.42,-288.765C1420.85,-278.984 1395.74,-266.428 1374.71,-255.91"/>
<polygon fill="black" stroke="black" points="1376.17,-252.731 1365.67,-251.39 1373.04,-258.992 1376.17,-252.731"/>
</g>
<!-- 10 -->
<g id="node11" class="node"><title>10</title>
<ellipse fill="paleturquoise" stroke="paleturquoise" cx="2082.89" cy="-162" rx="122.688" ry="18"/>
<text text-anchor="middle" x="2082.89" y="-157.8" font-family="Times,serif" font-size="14.00">./business&#45;rules/gateways/sprint</text>
</g>
<!-- 8&#45;&gt;10 -->
<g id="edge9" class="edge"><title>8&#45;&gt;10</title>
<path fill="none" stroke="black" d="M1572.42,-300.802C1724.06,-293.639 1999.36,-277.327 2036.89,-252 2058.1,-237.682 2070.12,-210.421 2076.51,-189.826"/>
<polygon fill="black" stroke="black" points="2079.92,-190.628 2079.29,-180.053 2073.19,-188.717 2079.92,-190.628"/>
</g>
<!-- 11 -->
<g id="node12" class="node"><title>11</title>
<ellipse fill="paleturquoise" stroke="paleturquoise" cx="1663.89" cy="-162" rx="126.071" ry="18"/>
<text text-anchor="middle" x="1663.89" y="-157.8" font-family="Times,serif" font-size="14.00">./business&#45;rules/requestors/sprint</text>
</g>
<!-- 8&#45;&gt;11 -->
<g id="edge10" class="edge"><title>8&#45;&gt;11</title>
<path fill="none" stroke="black" d="M1471.73,-287.975C1471.35,-268.175 1473.86,-235.698 1491.89,-216 1509.39,-196.871 1533.62,-184.575 1558.38,-176.691"/>
<polygon fill="black" stroke="black" points="1559.65,-179.965 1568.25,-173.779 1557.67,-173.251 1559.65,-179.965"/>
</g>
<!-- 12 -->
<g id="node13" class="node"><title>12</title>
<ellipse fill="paleturquoise" stroke="paleturquoise" cx="1390.89" cy="-162" rx="128" ry="18"/>
<text text-anchor="middle" x="1390.89" y="-157.8" font-family="Times,serif" font-size="14.00">./business&#45;rules/responders/sprint</text>
</g>
<!-- 8&#45;&gt;12 -->
<g id="edge11" class="edge"><title>8&#45;&gt;12</title>
<path fill="none" stroke="black" d="M1379.17,-298.28C1313.18,-291.371 1232.99,-277.821 1211.89,-252 1180.9,-214.087 1238.44,-190.931 1296.33,-177.782"/>
<polygon fill="black" stroke="black" points="1297.34,-181.144 1306.37,-175.599 1295.85,-174.304 1297.34,-181.144"/>
</g>
<!-- 13 -->
<g id="node14" class="node"><title>13</title>
<ellipse fill="paleturquoise" stroke="paleturquoise" cx="1907.89" cy="-234" rx="120.274" ry="18"/>
<text text-anchor="middle" x="1907.89" y="-229.8" font-family="Times,serif" font-size="14.00">./business&#45;rules/usecases/sprint</text>
</g>
<!-- 8&#45;&gt;13 -->
<g id="edge12" class="edge"><title>8&#45;&gt;13</title>
<path fill="none" stroke="black" d="M1546.19,-293.205C1621.42,-281.098 1738.55,-262.25 1819.01,-249.301"/>
<polygon fill="black" stroke="black" points="1819.81,-252.718 1829.13,-247.673 1818.7,-245.807 1819.81,-252.718"/>
</g>
<!-- 9&#45;&gt;12 -->
<g id="edge15" class="edge"><title>9&#45;&gt;12</title>
<path fill="none" stroke="black" d="M1346.93,-216.055C1353.88,-207.668 1362.4,-197.376 1370.09,-188.096"/>
<polygon fill="black" stroke="black" points="1372.89,-190.209 1376.57,-180.275 1367.5,-185.742 1372.89,-190.209"/>
</g>
<!-- 15 -->
<g id="node16" class="node"><title>15</title>
<ellipse fill="paleturquoise" stroke="paleturquoise" cx="2036.89" cy="-90" rx="115.463" ry="18"/>
<text text-anchor="middle" x="2036.89" y="-85.8" font-family="Times,serif" font-size="14.00">./business&#45;rules/entities/sprint</text>
</g>
<!-- 10&#45;&gt;15 -->
<g id="edge17" class="edge"><title>10&#45;&gt;15</title>
<path fill="none" stroke="black" d="M2071.75,-144.055C2066.35,-135.837 2059.75,-125.791 2053.75,-116.66"/>
<polygon fill="black" stroke="black" points="2056.65,-114.71 2048.24,-108.275 2050.81,-118.555 2056.65,-114.71"/>
</g>
<!-- 11&#45;&gt;7 -->
<g id="edge18" class="edge"><title>11&#45;&gt;7</title>
<path fill="none" stroke="black" d="M1663.89,-143.697C1663.89,-135.983 1663.89,-126.712 1663.89,-118.112"/>
<polygon fill="black" stroke="black" points="1667.39,-118.104 1663.89,-108.104 1660.39,-118.104 1667.39,-118.104"/>
</g>
<!-- 12&#45;&gt;7 -->
<g id="edge19" class="edge"><title>12&#45;&gt;7</title>
<path fill="none" stroke="black" d="M1449.45,-145.983C1493.09,-134.793 1552.72,-119.504 1598.02,-107.888"/>
<polygon fill="black" stroke="black" points="1598.93,-111.268 1607.75,-105.394 1597.19,-104.487 1598.93,-111.268"/>
</g>
<!-- 12&#45;&gt;15 -->
<g id="edge20" class="edge"><title>12&#45;&gt;15</title>
<path fill="none" stroke="black" d="M1482.9,-149.423C1498.25,-147.561 1514.02,-145.692 1528.89,-144 1668.3,-128.142 1829.44,-111.64 1932.2,-101.348"/>
<polygon fill="black" stroke="black" points="1932.66,-104.819 1942.27,-100.34 1931.97,-97.8533 1932.66,-104.819"/>
</g>
<!-- 13&#45;&gt;7 -->
<g id="edge21" class="edge"><title>13&#45;&gt;7</title>
<path fill="none" stroke="black" d="M1890.66,-216.028C1870.18,-196.58 1834.31,-164.728 1798.89,-144 1775,-130.024 1746.74,-118.279 1722.26,-109.426"/>
<polygon fill="black" stroke="black" points="1723.33,-106.091 1712.74,-106.055 1721,-112.69 1723.33,-106.091"/>
</g>
<!-- 13&#45;&gt;10 -->
<g id="edge24" class="edge"><title>13&#45;&gt;10</title>
<path fill="none" stroke="black" d="M1948.03,-216.941C1973.29,-206.839 2006.07,-193.725 2032.99,-182.957"/>
<polygon fill="black" stroke="black" points="2034.64,-186.069 2042.62,-179.106 2032.04,-179.57 2034.64,-186.069"/>
</g>
<!-- 13&#45;&gt;11 -->
<g id="edge25" class="edge"><title>13&#45;&gt;11</title>
<path fill="none" stroke="black" d="M1854.94,-217.811C1817.47,-207.061 1767.04,-192.593 1727.4,-181.221"/>
<polygon fill="black" stroke="black" points="1728.15,-177.794 1717.57,-178.401 1726.22,-184.523 1728.15,-177.794"/>
</g>
<!-- 13&#45;&gt;12 -->
<g id="edge26" class="edge"><title>13&#45;&gt;12</title>
<path fill="none" stroke="black" d="M1821.93,-221.362C1730.42,-208.972 1585.81,-189.391 1489.66,-176.374"/>
<polygon fill="black" stroke="black" points="1490.02,-172.891 1479.64,-175.018 1489.08,-179.828 1490.02,-172.891"/>
</g>
<!-- 13&#45;&gt;15 -->
<g id="edge23" class="edge"><title>13&#45;&gt;15</title>
<path fill="none" stroke="black" d="M1912.9,-215.922C1919.24,-196.665 1931.68,-165.273 1950.89,-144 1962.37,-131.278 1977.62,-120.546 1992.08,-112.139"/>
<polygon fill="black" stroke="black" points="1993.91,-115.127 2000.95,-107.207 1990.51,-109.01 1993.91,-115.127"/>
</g>
<!-- 16 -->
<g id="node17" class="node"><title>16</title>
<ellipse fill="paleturquoise" stroke="paleturquoise" cx="1964.89" cy="-18" rx="116.432" ry="18"/>
<text text-anchor="middle" x="1964.89" y="-13.8" font-family="Times,serif" font-size="14.00">./business&#45;rules/entities/issues</text>
</g>
<!-- 13&#45;&gt;16 -->
<g id="edge22" class="edge"><title>13&#45;&gt;16</title>
<path fill="none" stroke="black" d="M1904.47,-215.677C1899.3,-185.199 1892.14,-120.61 1912.89,-72 1917.62,-60.9049 1925.84,-50.8388 1934.37,-42.5323"/>
<polygon fill="black" stroke="black" points="1936.83,-45.0268 1941.86,-35.7038 1932.12,-39.8533 1936.83,-45.0268"/>
</g>
<!-- 14 -->
<g id="node15" class="node"><title>14</title>
<ellipse fill="paleturquoise" stroke="paleturquoise" cx="2233.89" cy="-234" rx="149.716" ry="18"/>
<text text-anchor="middle" x="2233.89" y="-229.8" font-family="Times,serif" font-size="14.00">./app/repositories/sprint/sprintrepomem</text>
</g>
<!-- 14&#45;&gt;10 -->
<g id="edge14" class="edge"><title>14&#45;&gt;10</title>
<path fill="none" stroke="black" d="M2198.1,-216.411C2176.96,-206.612 2150.02,-194.121 2127.5,-183.683"/>
<polygon fill="black" stroke="black" points="2128.7,-180.38 2118.15,-179.349 2125.75,-186.73 2128.7,-180.38"/>
</g>
<!-- 14&#45;&gt;15 -->
<g id="edge13" class="edge"><title>14&#45;&gt;15</title>
<path fill="none" stroke="black" d="M2235.07,-215.945C2235.48,-196.117 2233.01,-163.612 2214.89,-144 2195.89,-123.435 2169.29,-110.723 2142.45,-102.903"/>
<polygon fill="black" stroke="black" points="2143.13,-99.4608 2132.56,-100.238 2141.31,-106.22 2143.13,-99.4608"/>
</g>
<!-- 15&#45;&gt;16 -->
<g id="edge16" class="edge"><title>15&#45;&gt;16</title>
<path fill="none" stroke="black" d="M2019.46,-72.055C2010.5,-63.3492 1999.44,-52.5913 1989.62,-43.0432"/>
<polygon fill="black" stroke="black" points="1992.01,-40.4929 1982.4,-36.0316 1987.13,-45.5119 1992.01,-40.4929"/>
</g>
<!-- 17 -->
<g id="node18" class="node"><title>17</title>
<ellipse fill="paleturquoise" stroke="paleturquoise" cx="1634.89" cy="-234" rx="134.289" ry="18"/>
<text text-anchor="middle" x="1634.89" y="-229.8" font-family="Times,serif" font-size="14.00">./business&#45;rules/usecases/sprint/dto</text>
</g>
<!-- 17&#45;&gt;11 -->
<g id="edge28" class="edge"><title>17&#45;&gt;11</title>
<path fill="none" stroke="black" d="M1642.05,-215.697C1645.32,-207.813 1649.26,-198.304 1652.89,-189.546"/>
<polygon fill="black" stroke="black" points="1656.21,-190.683 1656.8,-180.104 1649.74,-188.003 1656.21,-190.683"/>
</g>
<!-- 17&#45;&gt;12 -->
<g id="edge29" class="edge"><title>17&#45;&gt;12</title>
<path fill="none" stroke="black" d="M1580.73,-217.465C1543.33,-206.734 1493.45,-192.423 1454.2,-181.164"/>
<polygon fill="black" stroke="black" points="1455.04,-177.765 1444.47,-178.371 1453.11,-184.493 1455.04,-177.765"/>
</g>
<!-- 17&#45;&gt;15 -->
<g id="edge27" class="edge"><title>17&#45;&gt;15</title>
<path fill="none" stroke="black" d="M1685.69,-217.234C1718.18,-206.99 1761.16,-193.141 1798.89,-180 1863.97,-157.327 1938.26,-129.179 1986.28,-110.684"/>
<polygon fill="black" stroke="black" points="1987.75,-113.869 1995.82,-107.004 1985.23,-107.338 1987.75,-113.869"/>
</g>
<!-- 18 -->
<g id="node19" class="node"><title>18</title>
<ellipse fill="paleturquoise" stroke="paleturquoise" cx="1545.89" cy="-378" rx="43.0237" ry="18"/>
<text text-anchor="middle" x="1545.89" y="-373.8" font-family="Times,serif" font-size="14.00">./cmd/api</text>
</g>
<!-- 18&#45;&gt;0 -->
<g id="edge30" class="edge"><title>18&#45;&gt;0</title>
<path fill="none" stroke="black" d="M1508.2,-369.061C1399.98,-346.26 1086.87,-280.293 944.221,-250.24"/>
<polygon fill="black" stroke="black" points="944.757,-246.776 934.25,-248.139 943.313,-253.625 944.757,-246.776"/>
</g>
<!-- 18&#45;&gt;8 -->
<g id="edge31" class="edge"><title>18&#45;&gt;8</title>
<path fill="none" stroke="black" d="M1529.32,-361.116C1519.98,-352.157 1508.12,-340.788 1497.69,-330.785"/>
<polygon fill="black" stroke="black" points="1500.04,-328.192 1490.4,-323.797 1495.2,-333.245 1500.04,-328.192"/>
</g>
<!-- 18&#45;&gt;14 -->
<g id="edge32" class="edge"><title>18&#45;&gt;14</title>
<path fill="none" stroke="black" d="M1583.86,-369.163C1691.87,-346.869 2002.68,-282.721 2151.95,-251.912"/>
<polygon fill="black" stroke="black" points="2152.89,-255.291 2161.98,-249.842 2151.48,-248.435 2152.89,-255.291"/>
</g>
<!-- 18&#45;&gt;17 -->
<g id="edge33" class="edge"><title>18&#45;&gt;17</title>
<path fill="none" stroke="black" d="M1559.12,-360.73C1567.24,-350.463 1577.61,-336.771 1585.89,-324 1599.08,-303.641 1612.24,-279.47 1621.59,-261.459"/>
<polygon fill="black" stroke="black" points="1624.92,-262.644 1626.37,-252.15 1618.69,-259.446 1624.92,-262.644"/>
</g>
</g>
</svg>
