<?xml version="1.0" encoding="UTF-8" standalone="no"?>
<!DOCTYPE svg PUBLIC "-//W3C//DTD SVG 1.1//EN"
 "http://www.w3.org/Graphics/SVG/1.1/DTD/svg11.dtd">
<!-- Generated by graphviz version 2.38.0 (20140413.2041)
 -->
<!-- Title: godep Pages: 1 -->
<svg width="349pt" height="260pt"
 viewBox="0.00 0.00 349.34 260.00" xmlns="http://www.w3.org/2000/svg" xmlns:xlink="http://www.w3.org/1999/xlink">
<g id="graph0" class="graph" transform="scale(1 1) rotate(0) translate(4 256)">
<title>godep</title>
<polygon fill="white" stroke="none" points="-4,4 -4,-256 345.339,-256 345.339,4 -4,4"/>
<!-- 0 -->
<g id="node1" class="node"><title>0</title>
<ellipse fill="paleturquoise" stroke="paleturquoise" cx="142.495" cy="-234" rx="142.491" ry="18"/>
<text text-anchor="middle" x="142.495" y="-229.8" font-family="Times,serif" font-size="14.00">./app/repositories/sprint/sprintreposql</text>
</g>
<!-- 1 -->
<g id="node2" class="node"><title>1</title>
<ellipse fill="paleturquoise" stroke="paleturquoise" cx="142.495" cy="-90" rx="115.463" ry="18"/>
<text text-anchor="middle" x="142.495" y="-85.8" font-family="Times,serif" font-size="14.00">./business&#45;rules/entities/sprint</text>
</g>
<!-- 0&#45;&gt;1 -->
<g id="edge1" class="edge"><title>0&#45;&gt;1</title>
<path fill="none" stroke="black" d="M116.958,-216.281C105.337,-207.113 92.7932,-194.632 86.4954,-180 80.1697,-165.304 80.1697,-158.696 86.4954,-144 91.4156,-132.569 100.148,-122.451 109.274,-114.199"/>
<polygon fill="black" stroke="black" points="111.57,-116.842 116.958,-107.719 107.057,-111.49 111.57,-116.842"/>
</g>
<!-- 2 -->
<g id="node3" class="node"><title>2</title>
<ellipse fill="paleturquoise" stroke="paleturquoise" cx="218.495" cy="-162" rx="122.688" ry="18"/>
<text text-anchor="middle" x="218.495" y="-157.8" font-family="Times,serif" font-size="14.00">./business&#45;rules/gateways/sprint</text>
</g>
<!-- 0&#45;&gt;2 -->
<g id="edge2" class="edge"><title>0&#45;&gt;2</title>
<path fill="none" stroke="black" d="M160.893,-216.055C170.345,-207.349 182.025,-196.591 192.391,-187.043"/>
<polygon fill="black" stroke="black" points="195.02,-189.381 200.004,-180.032 190.277,-184.232 195.02,-189.381"/>
</g>
<!-- 3 -->
<g id="node4" class="node"><title>3</title>
<ellipse fill="paleturquoise" stroke="paleturquoise" cx="142.495" cy="-18" rx="116.432" ry="18"/>
<text text-anchor="middle" x="142.495" y="-13.8" font-family="Times,serif" font-size="14.00">./business&#45;rules/entities/issues</text>
</g>
<!-- 1&#45;&gt;3 -->
<g id="edge3" class="edge"><title>1&#45;&gt;3</title>
<path fill="none" stroke="black" d="M142.495,-71.6966C142.495,-63.9827 142.495,-54.7125 142.495,-46.1124"/>
<polygon fill="black" stroke="black" points="145.996,-46.1043 142.495,-36.1043 138.996,-46.1044 145.996,-46.1043"/>
</g>
<!-- 2&#45;&gt;1 -->
<g id="edge4" class="edge"><title>2&#45;&gt;1</title>
<path fill="none" stroke="black" d="M200.098,-144.055C190.576,-135.285 178.793,-124.432 168.369,-114.831"/>
<polygon fill="black" stroke="black" points="170.45,-111.989 160.723,-107.789 165.708,-117.138 170.45,-111.989"/>
</g>
</g>
</svg>
