<?xml version="1.0" encoding="UTF-8" standalone="no"?>
<!DOCTYPE svg PUBLIC "-//W3C//DTD SVG 1.1//EN"
 "http://www.w3.org/Graphics/SVG/1.1/DTD/svg11.dtd">
<!-- Generated by graphviz version 2.38.0 (20140413.2041)
 -->
<!-- Title: godep Pages: 1 -->
<svg width="2205pt" height="260pt"
 viewBox="0.00 0.00 2205.32 260.00" xmlns="http://www.w3.org/2000/svg" xmlns:xlink="http://www.w3.org/1999/xlink">
<g id="graph0" class="graph" transform="scale(1 1) rotate(0) translate(4 256)">
<title>godep</title>
<polygon fill="white" stroke="none" points="-4,4 -4,-256 2201.32,-256 2201.32,4 -4,4"/>
<!-- 0 -->
<g id="node1" class="node"><title>0</title>
<ellipse fill="paleturquoise" stroke="paleturquoise" cx="613.292" cy="-162" rx="100.004" ry="18"/>
<text text-anchor="middle" x="613.292" y="-157.8" font-family="Times,serif" font-size="14.00">github.com/gin&#45;gonic/gin</text>
</g>
<!-- 1 -->
<g id="node2" class="node"><title>1</title>
<ellipse fill="paleturquoise" stroke="paleturquoise" cx="857.292" cy="-90" rx="129.963" ry="18"/>
<text text-anchor="middle" x="857.292" y="-85.8" font-family="Times,serif" font-size="14.00">github.com/gin&#45;gonic/gin/binding</text>
</g>
<!-- 0&#45;&gt;1 -->
<g id="edge1" class="edge"><title>0&#45;&gt;1</title>
<path fill="none" stroke="black" d="M664.145,-146.411C701.822,-135.602 753.413,-120.801 793.798,-109.216"/>
<polygon fill="black" stroke="black" points="794.898,-112.541 803.545,-106.419 792.967,-105.813 794.898,-112.541"/>
</g>
<!-- 2 -->
<g id="node3" class="node"><title>2</title>
<ellipse fill="paleturquoise" stroke="paleturquoise" cx="125.292" cy="-90" rx="125.085" ry="18"/>
<text text-anchor="middle" x="125.292" y="-85.8" font-family="Times,serif" font-size="14.00">github.com/gin&#45;gonic/gin/render</text>
</g>
<!-- 0&#45;&gt;2 -->
<g id="edge2" class="edge"><title>0&#45;&gt;2</title>
<path fill="none" stroke="black" d="M537.578,-150.139C452.208,-137.894 313.253,-117.962 220.574,-104.668"/>
<polygon fill="black" stroke="black" points="221.028,-101.197 210.633,-103.241 220.034,-108.126 221.028,-101.197"/>
</g>
<!-- 3 -->
<g id="node4" class="node"><title>3</title>
<ellipse fill="paleturquoise" stroke="paleturquoise" cx="383.292" cy="-90" rx="114.952" ry="18"/>
<text text-anchor="middle" x="383.292" y="-85.8" font-family="Times,serif" font-size="14.00">github.com/manucorporat/sse</text>
</g>
<!-- 0&#45;&gt;3 -->
<g id="edge3" class="edge"><title>0&#45;&gt;3</title>
<path fill="none" stroke="black" d="M564.796,-146.24C529.348,-135.452 481.054,-120.754 443.194,-109.231"/>
<polygon fill="black" stroke="black" points="443.897,-105.786 433.311,-106.223 441.859,-112.483 443.897,-105.786"/>
</g>
<!-- 4 -->
<g id="node5" class="node"><title>4</title>
<ellipse fill="paleturquoise" stroke="paleturquoise" cx="613.292" cy="-90" rx="96.7919" ry="18"/>
<text text-anchor="middle" x="613.292" y="-85.8" font-family="Times,serif" font-size="14.00">golang.org/x/net/context</text>
</g>
<!-- 0&#45;&gt;4 -->
<g id="edge4" class="edge"><title>0&#45;&gt;4</title>
<path fill="none" stroke="black" d="M613.292,-143.697C613.292,-135.983 613.292,-126.712 613.292,-118.112"/>
<polygon fill="black" stroke="black" points="616.792,-118.104 613.292,-108.104 609.792,-118.104 616.792,-118.104"/>
</g>
<!-- 5 -->
<g id="node6" class="node"><title>5</title>
<ellipse fill="paleturquoise" stroke="paleturquoise" cx="1001.29" cy="-18" rx="130.914" ry="18"/>
<text text-anchor="middle" x="1001.29" y="-13.8" font-family="Times,serif" font-size="14.00">github.com/golang/protobuf/proto</text>
</g>
<!-- 1&#45;&gt;5 -->
<g id="edge5" class="edge"><title>1&#45;&gt;5</title>
<path fill="none" stroke="black" d="M891.054,-72.5881C911.04,-62.8727 936.563,-50.4653 958.017,-40.0364"/>
<polygon fill="black" stroke="black" points="959.78,-43.0714 967.243,-35.5516 956.719,-36.7758 959.78,-43.0714"/>
</g>
<!-- 6 -->
<g id="node7" class="node"><title>6</title>
<ellipse fill="paleturquoise" stroke="paleturquoise" cx="712.292" cy="-18" rx="140.078" ry="18"/>
<text text-anchor="middle" x="712.292" y="-13.8" font-family="Times,serif" font-size="14.00">gopkg.in/go&#45;playground/validator.v8</text>
</g>
<!-- 1&#45;&gt;6 -->
<g id="edge6" class="edge"><title>1&#45;&gt;6</title>
<path fill="none" stroke="black" d="M823.296,-72.5881C803.171,-62.8727 777.47,-50.4653 755.867,-40.0364"/>
<polygon fill="black" stroke="black" points="757.105,-36.7472 746.578,-35.5516 754.061,-43.0511 757.105,-36.7472"/>
</g>
<!-- 7 -->
<g id="node8" class="node"><title>7</title>
<ellipse fill="paleturquoise" stroke="paleturquoise" cx="125.292" cy="-18" rx="72.4981" ry="18"/>
<text text-anchor="middle" x="125.292" y="-13.8" font-family="Times,serif" font-size="14.00">gopkg.in/yaml.v2</text>
</g>
<!-- 2&#45;&gt;7 -->
<g id="edge7" class="edge"><title>2&#45;&gt;7</title>
<path fill="none" stroke="black" d="M125.292,-71.6966C125.292,-63.9827 125.292,-54.7125 125.292,-46.1124"/>
<polygon fill="black" stroke="black" points="128.792,-46.1043 125.292,-36.1043 121.792,-46.1044 128.792,-46.1043"/>
</g>
<!-- 8 -->
<g id="node9" class="node"><title>8</title>
<ellipse fill="paleturquoise" stroke="paleturquoise" cx="1799.29" cy="-18" rx="107.217" ry="18"/>
<text text-anchor="middle" x="1799.29" y="-13.8" font-family="Times,serif" font-size="14.00">github.com/moul/cleanarch</text>
</g>
<!-- 9 -->
<g id="node10" class="node"><title>9</title>
<ellipse fill="paleturquoise" stroke="paleturquoise" cx="1434.29" cy="-234" rx="113.481" ry="18"/>
<text text-anchor="middle" x="1434.29" y="-229.8" font-family="Times,serif" font-size="14.00">./example/app/controllers/api</text>
</g>
<!-- 9&#45;&gt;0 -->
<g id="edge8" class="edge"><title>9&#45;&gt;0</title>
<path fill="none" stroke="black" d="M1336.59,-224.773C1213.58,-214.402 995.773,-195.994 809.292,-180 777.51,-177.274 742.832,-174.275 711.6,-171.564"/>
<polygon fill="black" stroke="black" points="711.854,-168.073 701.589,-170.695 711.248,-175.047 711.854,-168.073"/>
</g>
<!-- 10 -->
<g id="node11" class="node"><title>10</title>
<ellipse fill="paleturquoise" stroke="paleturquoise" cx="1524.29" cy="-90" rx="110.583" ry="18"/>
<text text-anchor="middle" x="1524.29" y="-85.8" font-family="Times,serif" font-size="14.00">./example/bizrules/gateways</text>
</g>
<!-- 9&#45;&gt;10 -->
<g id="edge9" class="edge"><title>9&#45;&gt;10</title>
<path fill="none" stroke="black" d="M1464.39,-216.451C1478.2,-207.4 1493.62,-194.97 1503.29,-180 1515.25,-161.498 1520.41,-136.904 1522.64,-118.259"/>
<polygon fill="black" stroke="black" points="1526.14,-118.352 1523.63,-108.059 1519.18,-117.671 1526.14,-118.352"/>
</g>
<!-- 11 -->
<g id="node12" class="node"><title>11</title>
<ellipse fill="paleturquoise" stroke="paleturquoise" cx="1346.29" cy="-162" rx="147.752" ry="18"/>
<text text-anchor="middle" x="1346.29" y="-157.8" font-family="Times,serif" font-size="14.00">./example/bizrules/usecases/add_sprint</text>
</g>
<!-- 9&#45;&gt;11 -->
<g id="edge10" class="edge"><title>9&#45;&gt;11</title>
<path fill="none" stroke="black" d="M1412.99,-216.055C1401.83,-207.179 1387.99,-196.169 1375.81,-186.483"/>
<polygon fill="black" stroke="black" points="1377.71,-183.518 1367.7,-180.032 1373.35,-188.996 1377.71,-183.518"/>
</g>
<!-- 12 -->
<g id="node13" class="node"><title>12</title>
<ellipse fill="paleturquoise" stroke="paleturquoise" cx="980.292" cy="-162" rx="161.767" ry="18"/>
<text text-anchor="middle" x="980.292" y="-157.8" font-family="Times,serif" font-size="14.00">./example/bizrules/usecases/add_sprint/dto</text>
</g>
<!-- 9&#45;&gt;12 -->
<g id="edge11" class="edge"><title>9&#45;&gt;12</title>
<path fill="none" stroke="black" d="M1355.99,-220.927C1279.82,-209.182 1163.76,-191.288 1080.8,-178.497"/>
<polygon fill="black" stroke="black" points="1081.27,-175.029 1070.86,-176.964 1080.21,-181.947 1081.27,-175.029"/>
</g>
<!-- 13 -->
<g id="node14" class="node"><title>13</title>
<ellipse fill="paleturquoise" stroke="paleturquoise" cx="1200.29" cy="-90" rx="157.423" ry="18"/>
<text text-anchor="middle" x="1200.29" y="-85.8" font-family="Times,serif" font-size="14.00">./example/bizrules/usecases/add_sprint/io</text>
</g>
<!-- 9&#45;&gt;13 -->
<g id="edge12" class="edge"><title>9&#45;&gt;13</title>
<path fill="none" stroke="black" d="M1337.81,-224.454C1277.62,-216.896 1208.11,-203.328 1189.29,-180 1175.31,-162.665 1180.39,-136.91 1187.59,-117.56"/>
<polygon fill="black" stroke="black" points="1190.91,-118.684 1191.46,-108.103 1184.44,-116.032 1190.91,-118.684"/>
</g>
<!-- 14 -->
<g id="node15" class="node"><title>14</title>
<ellipse fill="paleturquoise" stroke="paleturquoise" cx="2034.29" cy="-162" rx="145.822" ry="18"/>
<text text-anchor="middle" x="2034.29" y="-157.8" font-family="Times,serif" font-size="14.00">./example/bizrules/usecases/get_sprint</text>
</g>
<!-- 9&#45;&gt;14 -->
<g id="edge13" class="edge"><title>9&#45;&gt;14</title>
<path fill="none" stroke="black" d="M1522.82,-222.671C1628.93,-210.292 1806.86,-189.534 1922.39,-176.055"/>
<polygon fill="black" stroke="black" points="1922.8,-179.531 1932.33,-174.896 1921.99,-172.578 1922.8,-179.531"/>
</g>
<!-- 15 -->
<g id="node16" class="node"><title>15</title>
<ellipse fill="paleturquoise" stroke="paleturquoise" cx="1710.29" cy="-162" rx="159.837" ry="18"/>
<text text-anchor="middle" x="1710.29" y="-157.8" font-family="Times,serif" font-size="14.00">./example/bizrules/usecases/get_sprint/dto</text>
</g>
<!-- 9&#45;&gt;15 -->
<g id="edge14" class="edge"><title>9&#45;&gt;15</title>
<path fill="none" stroke="black" d="M1491.81,-218.411C1534.5,-207.585 1592.97,-192.756 1638.68,-181.162"/>
<polygon fill="black" stroke="black" points="1639.7,-184.516 1648.53,-178.665 1637.97,-177.731 1639.7,-184.516"/>
</g>
<!-- 16 -->
<g id="node17" class="node"><title>16</title>
<ellipse fill="paleturquoise" stroke="paleturquoise" cx="1846.29" cy="-90" rx="155.494" ry="18"/>
<text text-anchor="middle" x="1846.29" y="-85.8" font-family="Times,serif" font-size="14.00">./example/bizrules/usecases/get_sprint/io</text>
</g>
<!-- 9&#45;&gt;16 -->
<g id="edge15" class="edge"><title>9&#45;&gt;16</title>
<path fill="none" stroke="black" d="M1547.71,-233.36C1747.81,-232.799 2146.54,-225.863 2189.29,-180 2200.2,-168.297 2199.71,-156.147 2189.29,-144 2164.9,-115.544 2083.2,-102.228 2005.66,-96.0585"/>
<polygon fill="black" stroke="black" points="2005.48,-92.5351 1995.25,-95.2699 2004.95,-99.5151 2005.48,-92.5351"/>
</g>
<!-- 17 -->
<g id="node18" class="node"><title>17</title>
<ellipse fill="paleturquoise" stroke="paleturquoise" cx="1524.29" cy="-18" rx="103.359" ry="18"/>
<text text-anchor="middle" x="1524.29" y="-13.8" font-family="Times,serif" font-size="14.00">./example/bizrules/entities</text>
</g>
<!-- 10&#45;&gt;17 -->
<g id="edge16" class="edge"><title>10&#45;&gt;17</title>
<path fill="none" stroke="black" d="M1524.29,-71.6966C1524.29,-63.9827 1524.29,-54.7125 1524.29,-46.1124"/>
<polygon fill="black" stroke="black" points="1527.79,-46.1043 1524.29,-36.1043 1520.79,-46.1044 1527.79,-46.1043"/>
</g>
<!-- 11&#45;&gt;8 -->
<g id="edge17" class="edge"><title>11&#45;&gt;8</title>
<path fill="none" stroke="black" d="M1352.26,-144.013C1360.51,-123.292 1377.47,-88.939 1404.29,-72 1416.84,-64.0762 1589.99,-42.9674 1702.84,-29.906"/>
<polygon fill="black" stroke="black" points="1703.35,-33.37 1712.88,-28.746 1702.55,-26.4162 1703.35,-33.37"/>
</g>
<!-- 11&#45;&gt;10 -->
<g id="edge18" class="edge"><title>11&#45;&gt;10</title>
<path fill="none" stroke="black" d="M1388.03,-144.588C1413.95,-134.394 1447.4,-121.237 1474.68,-110.511"/>
<polygon fill="black" stroke="black" points="1476.02,-113.744 1484.05,-106.827 1473.46,-107.23 1476.02,-113.744"/>
</g>
<!-- 11&#45;&gt;13 -->
<g id="edge19" class="edge"><title>11&#45;&gt;13</title>
<path fill="none" stroke="black" d="M1311.69,-144.411C1291.49,-134.726 1265.81,-122.412 1244.19,-112.049"/>
<polygon fill="black" stroke="black" points="1245.43,-108.758 1234.9,-107.591 1242.4,-115.07 1245.43,-108.758"/>
</g>
<!-- 12&#45;&gt;13 -->
<g id="edge21" class="edge"><title>12&#45;&gt;13</title>
<path fill="none" stroke="black" d="M1031.04,-144.853C1063.5,-134.526 1105.76,-121.079 1139.93,-110.205"/>
<polygon fill="black" stroke="black" points="1141.33,-113.433 1149.8,-107.066 1139.21,-106.763 1141.33,-113.433"/>
</g>
<!-- 12&#45;&gt;17 -->
<g id="edge20" class="edge"><title>12&#45;&gt;17</title>
<path fill="none" stroke="black" d="M985.447,-143.931C992.703,-123.126 1008.06,-88.6855 1034.29,-72 1094.81,-33.4982 1286.24,-22.6949 1411.14,-19.8236"/>
<polygon fill="black" stroke="black" points="1411.59,-23.3148 1421.51,-19.5998 1411.44,-16.3165 1411.59,-23.3148"/>
</g>
<!-- 13&#45;&gt;8 -->
<g id="edge22" class="edge"><title>13&#45;&gt;8</title>
<path fill="none" stroke="black" d="M1306,-76.6465C1418.69,-63.4774 1595.53,-42.8121 1704.04,-30.131"/>
<polygon fill="black" stroke="black" points="1704.48,-33.6043 1714,-28.9671 1703.66,-26.6516 1704.48,-33.6043"/>
</g>
<!-- 13&#45;&gt;17 -->
<g id="edge23" class="edge"><title>13&#45;&gt;17</title>
<path fill="none" stroke="black" d="M1270.6,-73.811C1324.3,-62.2088 1398.04,-46.2758 1452.19,-34.5782"/>
<polygon fill="black" stroke="black" points="1453.02,-37.9782 1462.06,-32.4452 1451.55,-31.136 1453.02,-37.9782"/>
</g>
<!-- 14&#45;&gt;8 -->
<g id="edge24" class="edge"><title>14&#45;&gt;8</title>
<path fill="none" stroke="black" d="M2034.54,-143.718C2033.86,-123.672 2029.58,-90.958 2010.29,-72 1992.59,-54.5999 1937.44,-41.0954 1887.96,-32.0734"/>
<polygon fill="black" stroke="black" points="1888.29,-28.5768 1877.83,-30.2728 1887.06,-35.4688 1888.29,-28.5768"/>
</g>
<!-- 14&#45;&gt;10 -->
<g id="edge25" class="edge"><title>14&#45;&gt;10</title>
<path fill="none" stroke="black" d="M1940.75,-148.161C1848.31,-135.473 1707.79,-116.186 1616,-103.587"/>
<polygon fill="black" stroke="black" points="1616.27,-100.091 1605.88,-102.199 1615.31,-107.026 1616.27,-100.091"/>
</g>
<!-- 14&#45;&gt;16 -->
<g id="edge26" class="edge"><title>14&#45;&gt;16</title>
<path fill="none" stroke="black" d="M1990.69,-144.765C1963.6,-134.677 1928.57,-121.637 1899.81,-110.925"/>
<polygon fill="black" stroke="black" points="1900.9,-107.599 1890.31,-107.39 1898.46,-114.159 1900.9,-107.599"/>
</g>
<!-- 15&#45;&gt;16 -->
<g id="edge28" class="edge"><title>15&#45;&gt;16</title>
<path fill="none" stroke="black" d="M1742.87,-144.233C1761.46,-134.666 1784.94,-122.577 1804.84,-112.338"/>
<polygon fill="black" stroke="black" points="1806.69,-115.318 1813.98,-107.63 1803.49,-109.094 1806.69,-115.318"/>
</g>
<!-- 15&#45;&gt;17 -->
<g id="edge27" class="edge"><title>15&#45;&gt;17</title>
<path fill="none" stroke="black" d="M1701.21,-143.833C1690.07,-124.201 1669.54,-92.1774 1644.29,-72 1626.09,-57.4494 1603.26,-46.063 1582.42,-37.636"/>
<polygon fill="black" stroke="black" points="1583.6,-34.3379 1573.01,-33.9717 1581.06,-40.861 1583.6,-34.3379"/>
</g>
<!-- 16&#45;&gt;8 -->
<g id="edge29" class="edge"><title>16&#45;&gt;8</title>
<path fill="none" stroke="black" d="M1834.67,-71.6966C1829.15,-63.4741 1822.45,-53.4832 1816.36,-44.4207"/>
<polygon fill="black" stroke="black" points="1819.26,-42.4555 1810.78,-36.1043 1813.45,-46.3576 1819.26,-42.4555"/>
</g>
<!-- 16&#45;&gt;17 -->
<g id="edge30" class="edge"><title>16&#45;&gt;17</title>
<path fill="none" stroke="black" d="M1776.82,-73.8972C1723.47,-62.3003 1650.05,-46.3393 1596.13,-34.6161"/>
<polygon fill="black" stroke="black" points="1596.81,-31.1827 1586.29,-32.4785 1595.32,-38.023 1596.81,-31.1827"/>
</g>
</g>
</svg>
