<?xml version="1.0" encoding="UTF-8" standalone="no"?>
<!DOCTYPE svg PUBLIC "-//W3C//DTD SVG 1.1//EN"
 "http://www.w3.org/Graphics/SVG/1.1/DTD/svg11.dtd">
<!-- Generated by graphviz version 2.38.0 (20140413.2041)
 -->
<!-- Title: godep Pages: 1 -->
<svg width="2947pt" height="260pt"
 viewBox="0.00 0.00 2947.31 260.00" xmlns="http://www.w3.org/2000/svg" xmlns:xlink="http://www.w3.org/1999/xlink">
<g id="graph0" class="graph" transform="scale(1 1) rotate(0) translate(4 256)">
<title>godep</title>
<polygon fill="white" stroke="none" points="-4,4 -4,-256 2943.31,-256 2943.31,4 -4,4"/>
<!-- 0 -->
<g id="node1" class="node"><title>0</title>
<ellipse fill="paleturquoise" stroke="paleturquoise" cx="754.292" cy="-162" rx="100.004" ry="18"/>
<text text-anchor="middle" x="754.292" y="-157.8" font-family="Times,serif" font-size="14.00">github.com/gin&#45;gonic/gin</text>
</g>
<!-- 1 -->
<g id="node2" class="node"><title>1</title>
<ellipse fill="paleturquoise" stroke="paleturquoise" cx="1115.29" cy="-90" rx="129.963" ry="18"/>
<text text-anchor="middle" x="1115.29" y="-85.8" font-family="Times,serif" font-size="14.00">github.com/gin&#45;gonic/gin/binding</text>
</g>
<!-- 0&#45;&gt;1 -->
<g id="edge1" class="edge"><title>0&#45;&gt;1</title>
<path fill="none" stroke="black" d="M819.666,-148.324C879.455,-136.73 968.167,-119.528 1032.81,-106.994"/>
<polygon fill="black" stroke="black" points="1033.82,-110.364 1042.97,-105.024 1032.48,-103.492 1033.82,-110.364"/>
</g>
<!-- 2 -->
<g id="node3" class="node"><title>2</title>
<ellipse fill="paleturquoise" stroke="paleturquoise" cx="125.292" cy="-90" rx="125.085" ry="18"/>
<text text-anchor="middle" x="125.292" y="-85.8" font-family="Times,serif" font-size="14.00">github.com/gin&#45;gonic/gin/render</text>
</g>
<!-- 0&#45;&gt;2 -->
<g id="edge2" class="edge"><title>0&#45;&gt;2</title>
<path fill="none" stroke="black" d="M669.273,-152.407C570.62,-142.317 403.08,-124.817 259.292,-108 248.213,-106.704 236.625,-105.303 225.099,-103.88"/>
<polygon fill="black" stroke="black" points="225.357,-100.386 215.001,-102.627 224.494,-107.332 225.357,-100.386"/>
</g>
<!-- 3 -->
<g id="node4" class="node"><title>3</title>
<ellipse fill="paleturquoise" stroke="paleturquoise" cx="383.292" cy="-90" rx="114.952" ry="18"/>
<text text-anchor="middle" x="383.292" y="-85.8" font-family="Times,serif" font-size="14.00">github.com/manucorporat/sse</text>
</g>
<!-- 0&#45;&gt;3 -->
<g id="edge3" class="edge"><title>0&#45;&gt;3</title>
<path fill="none" stroke="black" d="M687.965,-148.485C625.22,-136.647 530.929,-118.856 463.881,-106.205"/>
<polygon fill="black" stroke="black" points="464.254,-102.714 453.778,-104.299 462.956,-109.593 464.254,-102.714"/>
</g>
<!-- 4 -->
<g id="node5" class="node"><title>4</title>
<ellipse fill="paleturquoise" stroke="paleturquoise" cx="636.292" cy="-90" rx="119.772" ry="18"/>
<text text-anchor="middle" x="636.292" y="-85.8" font-family="Times,serif" font-size="14.00">github.com/mattn/go&#45;colorable</text>
</g>
<!-- 0&#45;&gt;4 -->
<g id="edge4" class="edge"><title>0&#45;&gt;4</title>
<path fill="none" stroke="black" d="M726.626,-144.588C710.616,-135.091 690.269,-123.02 672.941,-112.741"/>
<polygon fill="black" stroke="black" points="674.58,-109.643 664.193,-107.552 671.008,-115.664 674.58,-109.643"/>
</g>
<!-- 5 -->
<g id="node6" class="node"><title>5</title>
<ellipse fill="paleturquoise" stroke="paleturquoise" cx="871.292" cy="-90" rx="96.7919" ry="18"/>
<text text-anchor="middle" x="871.292" y="-85.8" font-family="Times,serif" font-size="14.00">golang.org/x/net/context</text>
</g>
<!-- 0&#45;&gt;5 -->
<g id="edge5" class="edge"><title>0&#45;&gt;5</title>
<path fill="none" stroke="black" d="M781.723,-144.588C797.713,-135.022 818.065,-122.845 835.327,-112.518"/>
<polygon fill="black" stroke="black" points="837.248,-115.447 844.033,-107.309 833.654,-109.44 837.248,-115.447"/>
</g>
<!-- 6 -->
<g id="node7" class="node"><title>6</title>
<ellipse fill="paleturquoise" stroke="paleturquoise" cx="1115.29" cy="-18" rx="131.391" ry="18"/>
<text text-anchor="middle" x="1115.29" y="-13.8" font-family="Times,serif" font-size="14.00">gopkg.in/bluesuncorp/validator.v5</text>
</g>
<!-- 1&#45;&gt;6 -->
<g id="edge6" class="edge"><title>1&#45;&gt;6</title>
<path fill="none" stroke="black" d="M1115.29,-71.6966C1115.29,-63.9827 1115.29,-54.7125 1115.29,-46.1124"/>
<polygon fill="black" stroke="black" points="1118.79,-46.1043 1115.29,-36.1043 1111.79,-46.1044 1118.79,-46.1043"/>
</g>
<!-- 7 -->
<g id="node8" class="node"><title>7</title>
<ellipse fill="paleturquoise" stroke="paleturquoise" cx="1887.29" cy="-234" rx="113.481" ry="18"/>
<text text-anchor="middle" x="1887.29" y="-229.8" font-family="Times,serif" font-size="14.00">./example/app/controllers/api</text>
</g>
<!-- 7&#45;&gt;0 -->
<g id="edge7" class="edge"><title>7&#45;&gt;0</title>
<path fill="none" stroke="black" d="M1783.74,-226.602C1568.11,-213.28 1073.07,-182.695 857.626,-169.384"/>
<polygon fill="black" stroke="black" points="857.777,-165.887 847.58,-168.764 857.345,-172.874 857.777,-165.887"/>
</g>
<!-- 8 -->
<g id="node9" class="node"><title>8</title>
<ellipse fill="paleturquoise" stroke="paleturquoise" cx="1575.29" cy="-162" rx="147.752" ry="18"/>
<text text-anchor="middle" x="1575.29" y="-157.8" font-family="Times,serif" font-size="14.00">./example/bizrules/usecases/add_sprint</text>
</g>
<!-- 7&#45;&gt;8 -->
<g id="edge8" class="edge"><title>7&#45;&gt;8</title>
<path fill="none" stroke="black" d="M1824.53,-218.919C1774.96,-207.798 1705.56,-192.227 1652.57,-180.339"/>
<polygon fill="black" stroke="black" points="1653.07,-176.863 1642.54,-178.089 1651.54,-183.693 1653.07,-176.863"/>
</g>
<!-- 9 -->
<g id="node10" class="node"><title>9</title>
<ellipse fill="paleturquoise" stroke="paleturquoise" cx="1247.29" cy="-162" rx="161.767" ry="18"/>
<text text-anchor="middle" x="1247.29" y="-157.8" font-family="Times,serif" font-size="14.00">./example/bizrules/usecases/add_sprint/dto</text>
</g>
<!-- 7&#45;&gt;9 -->
<g id="edge9" class="edge"><title>7&#45;&gt;9</title>
<path fill="none" stroke="black" d="M1796.61,-223.082C1684.39,-210.808 1492.9,-189.863 1368.25,-176.229"/>
<polygon fill="black" stroke="black" points="1368.59,-172.746 1358.27,-175.138 1367.83,-179.705 1368.59,-172.746"/>
</g>
<!-- 10 -->
<g id="node11" class="node"><title>10</title>
<ellipse fill="paleturquoise" stroke="paleturquoise" cx="1887.29" cy="-162" rx="145.822" ry="18"/>
<text text-anchor="middle" x="1887.29" y="-157.8" font-family="Times,serif" font-size="14.00">./example/bizrules/usecases/get_sprint</text>
</g>
<!-- 7&#45;&gt;10 -->
<g id="edge10" class="edge"><title>7&#45;&gt;10</title>
<path fill="none" stroke="black" d="M1887.29,-215.697C1887.29,-207.983 1887.29,-198.712 1887.29,-190.112"/>
<polygon fill="black" stroke="black" points="1890.79,-190.104 1887.29,-180.104 1883.79,-190.104 1890.79,-190.104"/>
</g>
<!-- 11 -->
<g id="node12" class="node"><title>11</title>
<ellipse fill="paleturquoise" stroke="paleturquoise" cx="2211.29" cy="-162" rx="159.837" ry="18"/>
<text text-anchor="middle" x="2211.29" y="-157.8" font-family="Times,serif" font-size="14.00">./example/bizrules/usecases/get_sprint/dto</text>
</g>
<!-- 7&#45;&gt;11 -->
<g id="edge11" class="edge"><title>7&#45;&gt;11</title>
<path fill="none" stroke="black" d="M1951.69,-219.087C2003.12,-207.976 2075.46,-192.346 2130.72,-180.407"/>
<polygon fill="black" stroke="black" points="2131.8,-183.756 2140.83,-178.223 2130.32,-176.913 2131.8,-183.756"/>
</g>
<!-- 12 -->
<g id="node13" class="node"><title>12</title>
<ellipse fill="paleturquoise" stroke="paleturquoise" cx="2515.29" cy="-162" rx="126.028" ry="18"/>
<text text-anchor="middle" x="2515.29" y="-157.8" font-family="Times,serif" font-size="14.00">./example/bizrules/usecases/ping</text>
</g>
<!-- 7&#45;&gt;12 -->
<g id="edge12" class="edge"><title>7&#45;&gt;12</title>
<path fill="none" stroke="black" d="M1980.03,-223.538C2079.16,-213.305 2240.92,-196.265 2380.29,-180 2391.45,-178.697 2403.13,-177.292 2414.74,-175.867"/>
<polygon fill="black" stroke="black" points="2415.42,-179.31 2424.91,-174.612 2414.56,-172.363 2415.42,-179.31"/>
</g>
<!-- 13 -->
<g id="node14" class="node"><title>13</title>
<ellipse fill="paleturquoise" stroke="paleturquoise" cx="2799.29" cy="-162" rx="140.042" ry="18"/>
<text text-anchor="middle" x="2799.29" y="-157.8" font-family="Times,serif" font-size="14.00">./example/bizrules/usecases/ping/dto</text>
</g>
<!-- 7&#45;&gt;13 -->
<g id="edge13" class="edge"><title>7&#45;&gt;13</title>
<path fill="none" stroke="black" d="M1992.63,-227.161C2139.93,-218.66 2415.75,-201.515 2650.29,-180 2663.31,-178.806 2676.95,-177.427 2690.47,-175.98"/>
<polygon fill="black" stroke="black" points="2691.21,-179.421 2700.77,-174.863 2690.45,-172.461 2691.21,-179.421"/>
</g>
<!-- 15 -->
<g id="node16" class="node"><title>15</title>
<ellipse fill="paleturquoise" stroke="paleturquoise" cx="1744.29" cy="-90" rx="110.583" ry="18"/>
<text text-anchor="middle" x="1744.29" y="-85.8" font-family="Times,serif" font-size="14.00">./example/bizrules/gateways</text>
</g>
<!-- 8&#45;&gt;15 -->
<g id="edge15" class="edge"><title>8&#45;&gt;15</title>
<path fill="none" stroke="black" d="M1614.92,-144.588C1639.22,-134.519 1670.51,-121.559 1696.23,-110.906"/>
<polygon fill="black" stroke="black" points="1697.89,-114.008 1705.79,-106.947 1695.21,-107.541 1697.89,-114.008"/>
</g>
<!-- 16 -->
<g id="node17" class="node"><title>16</title>
<ellipse fill="paleturquoise" stroke="paleturquoise" cx="1458.29" cy="-90" rx="157.423" ry="18"/>
<text text-anchor="middle" x="1458.29" y="-85.8" font-family="Times,serif" font-size="14.00">./example/bizrules/usecases/add_sprint/io</text>
</g>
<!-- 8&#45;&gt;16 -->
<g id="edge16" class="edge"><title>8&#45;&gt;16</title>
<path fill="none" stroke="black" d="M1547.27,-144.233C1531.75,-134.951 1512.27,-123.294 1495.49,-113.257"/>
<polygon fill="black" stroke="black" points="1496.87,-110.003 1486.49,-107.873 1493.28,-116.01 1496.87,-110.003"/>
</g>
<!-- 14 -->
<g id="node15" class="node"><title>14</title>
<ellipse fill="paleturquoise" stroke="paleturquoise" cx="1744.29" cy="-18" rx="103.359" ry="18"/>
<text text-anchor="middle" x="1744.29" y="-13.8" font-family="Times,serif" font-size="14.00">./example/bizrules/entities</text>
</g>
<!-- 9&#45;&gt;14 -->
<g id="edge17" class="edge"><title>9&#45;&gt;14</title>
<path fill="none" stroke="black" d="M1250.85,-143.687C1256.1,-122.968 1268.02,-88.9536 1292.29,-72 1345.34,-34.9451 1515.57,-23.6109 1631.29,-20.253"/>
<polygon fill="black" stroke="black" points="1631.71,-23.7428 1641.62,-19.9703 1631.52,-16.7455 1631.71,-23.7428"/>
</g>
<!-- 9&#45;&gt;16 -->
<g id="edge18" class="edge"><title>9&#45;&gt;16</title>
<path fill="none" stroke="black" d="M1296.23,-144.765C1327.12,-134.516 1367.2,-121.22 1399.77,-110.415"/>
<polygon fill="black" stroke="black" points="1401.23,-113.618 1409.62,-107.147 1399.03,-106.974 1401.23,-113.618"/>
</g>
<!-- 10&#45;&gt;15 -->
<g id="edge20" class="edge"><title>10&#45;&gt;15</title>
<path fill="none" stroke="black" d="M1853.4,-144.411C1833.4,-134.62 1807.91,-122.143 1786.6,-111.71"/>
<polygon fill="black" stroke="black" points="1787.97,-108.482 1777.44,-107.228 1784.89,-114.769 1787.97,-108.482"/>
</g>
<!-- 17 -->
<g id="node18" class="node"><title>17</title>
<ellipse fill="paleturquoise" stroke="paleturquoise" cx="2028.29" cy="-90" rx="155.494" ry="18"/>
<text text-anchor="middle" x="2028.29" y="-85.8" font-family="Times,serif" font-size="14.00">./example/bizrules/usecases/get_sprint/io</text>
</g>
<!-- 10&#45;&gt;17 -->
<g id="edge21" class="edge"><title>10&#45;&gt;17</title>
<path fill="none" stroke="black" d="M1920.71,-144.411C1940.14,-134.761 1964.84,-122.501 1985.67,-112.162"/>
<polygon fill="black" stroke="black" points="1987.23,-115.294 1994.63,-107.713 1984.11,-109.024 1987.23,-115.294"/>
</g>
<!-- 11&#45;&gt;14 -->
<g id="edge22" class="edge"><title>11&#45;&gt;14</title>
<path fill="none" stroke="black" d="M2213.02,-143.742C2214.01,-123.404 2212.14,-90.0933 2192.29,-72 2167.52,-49.4208 1975.55,-33.3395 1851.07,-25.1624"/>
<polygon fill="black" stroke="black" points="1850.94,-21.6468 1840.74,-24.4915 1850.49,-28.6321 1850.94,-21.6468"/>
</g>
<!-- 11&#45;&gt;17 -->
<g id="edge23" class="edge"><title>11&#45;&gt;17</title>
<path fill="none" stroke="black" d="M2168.39,-144.588C2142.12,-134.539 2108.31,-121.61 2080.5,-110.969"/>
<polygon fill="black" stroke="black" points="2081.52,-107.613 2070.93,-107.309 2079.02,-114.151 2081.52,-107.613"/>
</g>
<!-- 18 -->
<g id="node19" class="node"><title>18</title>
<ellipse fill="paleturquoise" stroke="paleturquoise" cx="2657.29" cy="-90" rx="135.699" ry="18"/>
<text text-anchor="middle" x="2657.29" y="-85.8" font-family="Times,serif" font-size="14.00">./example/bizrules/usecases/ping/io</text>
</g>
<!-- 12&#45;&gt;18 -->
<g id="edge25" class="edge"><title>12&#45;&gt;18</title>
<path fill="none" stroke="black" d="M2548.58,-144.588C2568.29,-134.873 2593.46,-122.465 2614.62,-112.036"/>
<polygon fill="black" stroke="black" points="2616.29,-115.112 2623.72,-107.552 2613.2,-108.834 2616.29,-115.112"/>
</g>
<!-- 13&#45;&gt;18 -->
<g id="edge26" class="edge"><title>13&#45;&gt;18</title>
<path fill="none" stroke="black" d="M2765.64,-144.411C2745.92,-134.691 2720.83,-122.322 2699.76,-111.936"/>
<polygon fill="black" stroke="black" points="2701.22,-108.752 2690.7,-107.47 2698.12,-115.031 2701.22,-108.752"/>
</g>
<!-- 15&#45;&gt;14 -->
<g id="edge14" class="edge"><title>15&#45;&gt;14</title>
<path fill="none" stroke="black" d="M1744.29,-71.6966C1744.29,-63.9827 1744.29,-54.7125 1744.29,-46.1124"/>
<polygon fill="black" stroke="black" points="1747.79,-46.1043 1744.29,-36.1043 1740.79,-46.1044 1747.79,-46.1043"/>
</g>
<!-- 16&#45;&gt;14 -->
<g id="edge19" class="edge"><title>16&#45;&gt;14</title>
<path fill="none" stroke="black" d="M1521.76,-73.4647C1567.86,-62.1836 1630.11,-46.9467 1677.05,-35.4576"/>
<polygon fill="black" stroke="black" points="1677.94,-38.8427 1686.82,-33.0656 1676.28,-32.0434 1677.94,-38.8427"/>
</g>
<!-- 17&#45;&gt;14 -->
<g id="edge24" class="edge"><title>17&#45;&gt;14</title>
<path fill="none" stroke="black" d="M1965.26,-73.4647C1919.59,-62.2072 1857.93,-47.0104 1811.36,-35.5297"/>
<polygon fill="black" stroke="black" points="1811.91,-32.0605 1801.36,-33.0656 1810.23,-38.8571 1811.91,-32.0605"/>
</g>
</g>
</svg>
