<?xml version="1.0" encoding="UTF-8" standalone="no"?>
<!DOCTYPE svg PUBLIC "-//W3C//DTD SVG 1.1//EN"
 "http://www.w3.org/Graphics/SVG/1.1/DTD/svg11.dtd">
<!-- Generated by graphviz version 2.38.0 (20140413.2041)
 -->
<!-- Title: godep Pages: 1 -->
<svg width="492pt" height="188pt"
 viewBox="0.00 0.00 492.11 188.00" xmlns="http://www.w3.org/2000/svg" xmlns:xlink="http://www.w3.org/1999/xlink">
<g id="graph0" class="graph" transform="scale(1 1) rotate(0) translate(4 184)">
<title>godep</title>
<polygon fill="white" stroke="none" points="-4,4 -4,-184 488.109,-184 488.109,4 -4,4"/>
<!-- 0 -->
<g id="node1" class="node"><title>0</title>
<ellipse fill="paleturquoise" stroke="paleturquoise" cx="110.567" cy="-90" rx="95.6597" ry="18"/>
<text text-anchor="middle" x="110.567" y="-85.8" font-family="Times,serif" font-size="14.00">github.com/jinzhu/gorm</text>
</g>
<!-- 1 -->
<g id="node2" class="node"><title>1</title>
<ellipse fill="paleturquoise" stroke="paleturquoise" cx="110.567" cy="-18" rx="110.635" ry="18"/>
<text text-anchor="middle" x="110.567" y="-13.8" font-family="Times,serif" font-size="14.00">github.com/jinzhu/inflection</text>
</g>
<!-- 0&#45;&gt;1 -->
<g id="edge1" class="edge"><title>0&#45;&gt;1</title>
<path fill="none" stroke="black" d="M110.567,-71.6966C110.567,-63.9827 110.567,-54.7125 110.567,-46.1124"/>
<polygon fill="black" stroke="black" points="114.067,-46.1043 110.567,-36.1043 107.067,-46.1044 114.067,-46.1043"/>
</g>
<!-- 2 -->
<g id="node3" class="node"><title>2</title>
<ellipse fill="paleturquoise" stroke="paleturquoise" cx="234.567" cy="-162" rx="128.968" ry="18"/>
<text text-anchor="middle" x="234.567" y="-157.8" font-family="Times,serif" font-size="14.00">./example/app/repos/sprints/gorm</text>
</g>
<!-- 2&#45;&gt;0 -->
<g id="edge2" class="edge"><title>2&#45;&gt;0</title>
<path fill="none" stroke="black" d="M205.181,-144.411C188.149,-134.796 166.526,-122.59 148.252,-112.274"/>
<polygon fill="black" stroke="black" points="149.744,-109.097 139.315,-107.228 146.303,-115.192 149.744,-109.097"/>
</g>
<!-- 3 -->
<g id="node4" class="node"><title>3</title>
<ellipse fill="paleturquoise" stroke="paleturquoise" cx="357.567" cy="-18" rx="103.359" ry="18"/>
<text text-anchor="middle" x="357.567" y="-13.8" font-family="Times,serif" font-size="14.00">./example/bizrules/entities</text>
</g>
<!-- 2&#45;&gt;3 -->
<g id="edge3" class="edge"><title>2&#45;&gt;3</title>
<path fill="none" stroke="black" d="M234.033,-143.796C234.308,-124.424 237.497,-92.9263 253.567,-72 265.023,-57.0829 281.842,-46.0158 298.63,-37.9677"/>
<polygon fill="black" stroke="black" points="300.227,-41.0875 307.919,-33.8019 297.363,-34.7004 300.227,-41.0875"/>
</g>
<!-- 4 -->
<g id="node5" class="node"><title>4</title>
<ellipse fill="paleturquoise" stroke="paleturquoise" cx="373.567" cy="-90" rx="110.583" ry="18"/>
<text text-anchor="middle" x="373.567" y="-85.8" font-family="Times,serif" font-size="14.00">./example/bizrules/gateways</text>
</g>
<!-- 2&#45;&gt;4 -->
<g id="edge4" class="edge"><title>2&#45;&gt;4</title>
<path fill="none" stroke="black" d="M267.508,-144.411C286.863,-134.664 311.505,-122.255 332.164,-111.851"/>
<polygon fill="black" stroke="black" points="333.985,-114.852 341.342,-107.228 330.837,-108.6 333.985,-114.852"/>
</g>
<!-- 4&#45;&gt;3 -->
<g id="edge5" class="edge"><title>4&#45;&gt;3</title>
<path fill="none" stroke="black" d="M369.612,-71.6966C367.849,-63.9827 365.73,-54.7125 363.765,-46.1124"/>
<polygon fill="black" stroke="black" points="367.117,-45.073 361.477,-36.1043 360.293,-46.6328 367.117,-45.073"/>
</g>
</g>
</svg>
