<?xml version="1.0" encoding="UTF-8" standalone="no"?>
<!DOCTYPE svg PUBLIC "-//W3C//DTD SVG 1.1//EN"
 "http://www.w3.org/Graphics/SVG/1.1/DTD/svg11.dtd">
<!-- Generated by graphviz version 2.38.0 (20140413.2041)
 -->
<!-- Title: godep Pages: 1 -->
<svg width="357pt" height="260pt"
 viewBox="0.00 0.00 356.70 260.00" xmlns="http://www.w3.org/2000/svg" xmlns:xlink="http://www.w3.org/1999/xlink">
<g id="graph0" class="graph" transform="scale(1 1) rotate(0) translate(4 256)">
<title>godep</title>
<polygon fill="white" stroke="none" points="-4,4 -4,-256 352.702,-256 352.702,4 -4,4"/>
<!-- 0 -->
<g id="node1" class="node"><title>0</title>
<ellipse fill="paleturquoise" stroke="paleturquoise" cx="149.858" cy="-234" rx="149.716" ry="18"/>
<text text-anchor="middle" x="149.858" y="-229.8" font-family="Times,serif" font-size="14.00">./app/repositories/sprint/sprintrepomem</text>
</g>
<!-- 1 -->
<g id="node2" class="node"><title>1</title>
<ellipse fill="paleturquoise" stroke="paleturquoise" cx="149.858" cy="-90" rx="115.463" ry="18"/>
<text text-anchor="middle" x="149.858" y="-85.8" font-family="Times,serif" font-size="14.00">./business&#45;rules/entities/sprint</text>
</g>
<!-- 0&#45;&gt;1 -->
<g id="edge1" class="edge"><title>0&#45;&gt;1</title>
<path fill="none" stroke="black" d="M124.027,-216.049C112.488,-206.903 100.103,-194.509 93.8578,-180 87.532,-165.304 87.532,-158.696 93.8578,-144 98.7779,-132.569 107.51,-122.451 116.636,-114.199"/>
<polygon fill="black" stroke="black" points="118.932,-116.842 124.32,-107.719 114.42,-111.49 118.932,-116.842"/>
</g>
<!-- 2 -->
<g id="node3" class="node"><title>2</title>
<ellipse fill="paleturquoise" stroke="paleturquoise" cx="225.858" cy="-162" rx="122.688" ry="18"/>
<text text-anchor="middle" x="225.858" y="-157.8" font-family="Times,serif" font-size="14.00">./business&#45;rules/gateways/sprint</text>
</g>
<!-- 0&#45;&gt;2 -->
<g id="edge2" class="edge"><title>0&#45;&gt;2</title>
<path fill="none" stroke="black" d="M168.255,-216.055C177.707,-207.349 189.387,-196.591 199.754,-187.043"/>
<polygon fill="black" stroke="black" points="202.382,-189.381 207.366,-180.032 197.64,-184.232 202.382,-189.381"/>
</g>
<!-- 3 -->
<g id="node4" class="node"><title>3</title>
<ellipse fill="paleturquoise" stroke="paleturquoise" cx="149.858" cy="-18" rx="116.432" ry="18"/>
<text text-anchor="middle" x="149.858" y="-13.8" font-family="Times,serif" font-size="14.00">./business&#45;rules/entities/issues</text>
</g>
<!-- 1&#45;&gt;3 -->
<g id="edge3" class="edge"><title>1&#45;&gt;3</title>
<path fill="none" stroke="black" d="M149.858,-71.6966C149.858,-63.9827 149.858,-54.7125 149.858,-46.1124"/>
<polygon fill="black" stroke="black" points="153.358,-46.1043 149.858,-36.1043 146.358,-46.1044 153.358,-46.1043"/>
</g>
<!-- 2&#45;&gt;1 -->
<g id="edge4" class="edge"><title>2&#45;&gt;1</title>
<path fill="none" stroke="black" d="M207.46,-144.055C197.938,-135.285 186.155,-124.432 175.732,-114.831"/>
<polygon fill="black" stroke="black" points="177.812,-111.989 168.086,-107.789 173.07,-117.138 177.812,-111.989"/>
</g>
</g>
</svg>
