<?xml version="1.0" encoding="UTF-8" standalone="no"?>
<!DOCTYPE svg PUBLIC "-//W3C//DTD SVG 1.1//EN"
 "http://www.w3.org/Graphics/SVG/1.1/DTD/svg11.dtd">
<!-- Generated by graphviz version 2.38.0 (20140413.2041)
 -->
<!-- Title: godep Pages: 1 -->
<svg width="312pt" height="188pt"
 viewBox="0.00 0.00 311.95 188.00" xmlns="http://www.w3.org/2000/svg" xmlns:xlink="http://www.w3.org/1999/xlink">
<g id="graph0" class="graph" transform="scale(1 1) rotate(0) translate(4 184)">
<title>godep</title>
<polygon fill="white" stroke="none" points="-4,4 -4,-184 307.947,-184 307.947,4 -4,4"/>
<!-- 0 -->
<g id="node1" class="node"><title>0</title>
<ellipse fill="paleturquoise" stroke="paleturquoise" cx="116.466" cy="-162" rx="79.2548" ry="18"/>
<text text-anchor="middle" x="116.466" y="-157.8" font-family="Times,serif" font-size="14.00">./app/entities/issues</text>
</g>
<!-- 1 -->
<g id="node2" class="node"><title>1</title>
<ellipse fill="paleturquoise" stroke="paleturquoise" cx="116.466" cy="-18" rx="116.432" ry="18"/>
<text text-anchor="middle" x="116.466" y="-13.8" font-family="Times,serif" font-size="14.00">./business&#45;rules/entities/issues</text>
</g>
<!-- 0&#45;&gt;1 -->
<g id="edge1" class="edge"><title>0&#45;&gt;1</title>
<path fill="none" stroke="black" d="M93.529,-144.604C82.5036,-135.277 70.4149,-122.558 64.4659,-108 58.4134,-93.1889 58.4134,-86.8111 64.4659,-72 68.9917,-60.925 77.0708,-50.914 85.5318,-42.6513"/>
<polygon fill="black" stroke="black" points="87.9528,-45.1804 92.9859,-35.8574 83.2374,-40.0068 87.9528,-45.1804"/>
</g>
<!-- 2 -->
<g id="node3" class="node"><title>2</title>
<ellipse fill="paleturquoise" stroke="paleturquoise" cx="188.466" cy="-90" rx="115.463" ry="18"/>
<text text-anchor="middle" x="188.466" y="-85.8" font-family="Times,serif" font-size="14.00">./business&#45;rules/entities/sprint</text>
</g>
<!-- 0&#45;&gt;2 -->
<g id="edge2" class="edge"><title>0&#45;&gt;2</title>
<path fill="none" stroke="black" d="M133.529,-144.411C142.542,-135.648 153.77,-124.732 163.722,-115.057"/>
<polygon fill="black" stroke="black" points="166.295,-117.437 171.025,-107.956 161.415,-112.418 166.295,-117.437"/>
</g>
<!-- 2&#45;&gt;1 -->
<g id="edge3" class="edge"><title>2&#45;&gt;1</title>
<path fill="none" stroke="black" d="M171.037,-72.055C162.082,-63.3492 151.017,-52.5913 141.196,-43.0432"/>
<polygon fill="black" stroke="black" points="143.594,-40.4929 133.984,-36.0316 138.714,-45.5119 143.594,-40.4929"/>
</g>
</g>
</svg>
