<?xml version="1.0" encoding="UTF-8" standalone="no"?>
<!DOCTYPE svg PUBLIC "-//W3C//DTD SVG 1.1//EN"
 "http://www.w3.org/Graphics/SVG/1.1/DTD/svg11.dtd">
<!-- Generated by graphviz version 2.38.0 (20140413.2041)
 -->
<!-- Title: godep Pages: 1 -->
<svg width="602pt" height="188pt"
 viewBox="0.00 0.00 601.65 188.00" xmlns="http://www.w3.org/2000/svg" xmlns:xlink="http://www.w3.org/1999/xlink">
<g id="graph0" class="graph" transform="scale(1 1) rotate(0) translate(4 184)">
<title>godep</title>
<polygon fill="white" stroke="none" points="-4,4 -4,-184 597.65,-184 597.65,4 -4,4"/>
<!-- 0 -->
<g id="node1" class="node"><title>0</title>
<ellipse fill="paleturquoise" stroke="paleturquoise" cx="107.109" cy="-18" rx="107.217" ry="18"/>
<text text-anchor="middle" x="107.109" y="-13.8" font-family="Times,serif" font-size="14.00">github.com/moul/cleanarch</text>
</g>
<!-- 1 -->
<g id="node2" class="node"><title>1</title>
<ellipse fill="paleturquoise" stroke="paleturquoise" cx="409.109" cy="-18" rx="103.359" ry="18"/>
<text text-anchor="middle" x="409.109" y="-13.8" font-family="Times,serif" font-size="14.00">./example/bizrules/entities</text>
</g>
<!-- 2 -->
<g id="node3" class="node"><title>2</title>
<ellipse fill="paleturquoise" stroke="paleturquoise" cx="483.109" cy="-90" rx="110.583" ry="18"/>
<text text-anchor="middle" x="483.109" y="-85.8" font-family="Times,serif" font-size="14.00">./example/bizrules/gateways</text>
</g>
<!-- 2&#45;&gt;1 -->
<g id="edge1" class="edge"><title>2&#45;&gt;1</title>
<path fill="none" stroke="black" d="M465.195,-72.055C455.924,-63.2847 444.451,-52.4318 434.302,-42.8312"/>
<polygon fill="black" stroke="black" points="436.527,-40.1184 426.857,-35.789 431.716,-45.2037 436.527,-40.1184"/>
</g>
<!-- 3 -->
<g id="node4" class="node"><title>3</title>
<ellipse fill="paleturquoise" stroke="paleturquoise" cx="199.109" cy="-162" rx="145.822" ry="18"/>
<text text-anchor="middle" x="199.109" y="-157.8" font-family="Times,serif" font-size="14.00">./example/bizrules/usecases/get_sprint</text>
</g>
<!-- 3&#45;&gt;0 -->
<g id="edge2" class="edge"><title>3&#45;&gt;0</title>
<path fill="none" stroke="black" d="M96.9484,-149.036C72.9106,-141.166 49.9864,-128.444 35.1086,-108 25.6938,-95.0632 27.8892,-86.2787 35.1086,-72 41.5332,-59.2933 52.5986,-48.8877 64.154,-40.7656"/>
<polygon fill="black" stroke="black" points="66.135,-43.6522 72.5953,-35.2548 62.3084,-37.7907 66.135,-43.6522"/>
</g>
<!-- 3&#45;&gt;2 -->
<g id="edge3" class="edge"><title>3&#45;&gt;2</title>
<path fill="none" stroke="black" d="M261.434,-145.638C306.86,-134.441 368.371,-119.28 415.074,-107.769"/>
<polygon fill="black" stroke="black" points="415.932,-111.162 424.804,-105.371 414.257,-104.366 415.932,-111.162"/>
</g>
<!-- 4 -->
<g id="node5" class="node"><title>4</title>
<ellipse fill="paleturquoise" stroke="paleturquoise" cx="199.109" cy="-90" rx="155.494" ry="18"/>
<text text-anchor="middle" x="199.109" y="-85.8" font-family="Times,serif" font-size="14.00">./example/bizrules/usecases/get_sprint/io</text>
</g>
<!-- 3&#45;&gt;4 -->
<g id="edge4" class="edge"><title>3&#45;&gt;4</title>
<path fill="none" stroke="black" d="M199.109,-143.697C199.109,-135.983 199.109,-126.712 199.109,-118.112"/>
<polygon fill="black" stroke="black" points="202.609,-118.104 199.109,-108.104 195.609,-118.104 202.609,-118.104"/>
</g>
<!-- 4&#45;&gt;0 -->
<g id="edge5" class="edge"><title>4&#45;&gt;0</title>
<path fill="none" stroke="black" d="M176.838,-72.055C164.972,-63.0268 150.206,-51.7916 137.321,-41.9875"/>
<polygon fill="black" stroke="black" points="139.252,-39.0588 129.174,-35.789 135.013,-44.6297 139.252,-39.0588"/>
</g>
<!-- 4&#45;&gt;1 -->
<g id="edge6" class="edge"><title>4&#45;&gt;1</title>
<path fill="none" stroke="black" d="M247.551,-72.8527C279.301,-62.269 320.887,-48.4071 353.915,-37.3977"/>
<polygon fill="black" stroke="black" points="355.048,-40.7095 363.428,-34.2267 352.835,-34.0687 355.048,-40.7095"/>
</g>
</g>
</svg>
