<?xml version="1.0" encoding="UTF-8" standalone="no"?>
<!DOCTYPE svg PUBLIC "-//W3C//DTD SVG 1.1//EN"
 "http://www.w3.org/Graphics/SVG/1.1/DTD/svg11.dtd">
<!-- Generated by graphviz version 2.38.0 (20140413.2041)
 -->
<!-- Title: godep Pages: 1 -->
<svg width="558pt" height="188pt"
 viewBox="0.00 0.00 557.79 188.00" xmlns="http://www.w3.org/2000/svg" xmlns:xlink="http://www.w3.org/1999/xlink">
<g id="graph0" class="graph" transform="scale(1 1) rotate(0) translate(4 184)">
<title>godep</title>
<polygon fill="white" stroke="none" points="-4,4 -4,-184 553.788,-184 553.788,4 -4,4"/>
<!-- 0 -->
<g id="node1" class="node"><title>0</title>
<ellipse fill="paleturquoise" stroke="paleturquoise" cx="252.541" cy="-18" rx="103.359" ry="18"/>
<text text-anchor="middle" x="252.541" y="-13.8" font-family="Times,serif" font-size="14.00">./example/bizrules/entities</text>
</g>
<!-- 1 -->
<g id="node2" class="node"><title>1</title>
<ellipse fill="paleturquoise" stroke="paleturquoise" cx="110.541" cy="-90" rx="110.583" ry="18"/>
<text text-anchor="middle" x="110.541" y="-85.8" font-family="Times,serif" font-size="14.00">./example/bizrules/gateways</text>
</g>
<!-- 1&#45;&gt;0 -->
<g id="edge1" class="edge"><title>1&#45;&gt;0</title>
<path fill="none" stroke="black" d="M143.476,-72.7646C163.459,-62.9137 189.154,-50.2472 210.584,-39.6831"/>
<polygon fill="black" stroke="black" points="212.364,-42.7082 219.786,-35.1473 209.269,-36.4296 212.364,-42.7082"/>
</g>
<!-- 2 -->
<g id="node3" class="node"><title>2</title>
<ellipse fill="paleturquoise" stroke="paleturquoise" cx="252.541" cy="-162" rx="145.822" ry="18"/>
<text text-anchor="middle" x="252.541" y="-157.8" font-family="Times,serif" font-size="14.00">./example/bizrules/usecases/get_sprint</text>
</g>
<!-- 2&#45;&gt;1 -->
<g id="edge2" class="edge"><title>2&#45;&gt;1</title>
<path fill="none" stroke="black" d="M218.889,-144.411C199.029,-134.62 173.717,-122.143 152.554,-111.71"/>
<polygon fill="black" stroke="black" points="153.979,-108.511 143.462,-107.228 150.884,-114.789 153.979,-108.511"/>
</g>
<!-- 3 -->
<g id="node4" class="node"><title>3</title>
<ellipse fill="paleturquoise" stroke="paleturquoise" cx="394.541" cy="-90" rx="155.494" ry="18"/>
<text text-anchor="middle" x="394.541" y="-85.8" font-family="Times,serif" font-size="14.00">./example/bizrules/usecases/get_sprint/io</text>
</g>
<!-- 2&#45;&gt;3 -->
<g id="edge3" class="edge"><title>2&#45;&gt;3</title>
<path fill="none" stroke="black" d="M286.193,-144.411C305.769,-134.761 330.639,-122.501 351.613,-112.162"/>
<polygon fill="black" stroke="black" points="353.217,-115.273 360.639,-107.713 350.122,-108.995 353.217,-115.273"/>
</g>
<!-- 3&#45;&gt;0 -->
<g id="edge4" class="edge"><title>3&#45;&gt;0</title>
<path fill="none" stroke="black" d="M360.889,-72.411C341.029,-62.6204 315.717,-50.1428 294.554,-39.7103"/>
<polygon fill="black" stroke="black" points="295.979,-36.5108 285.462,-35.2285 292.884,-42.7893 295.979,-36.5108"/>
</g>
</g>
</svg>
