<?xml version="1.0" encoding="UTF-8" standalone="no"?>
<!DOCTYPE svg PUBLIC "-//W3C//DTD SVG 1.1//EN"
 "http://www.w3.org/Graphics/SVG/1.1/DTD/svg11.dtd">
<!-- Generated by graphviz version 2.38.0 (20140413.2041)
 -->
<!-- Title: godep Pages: 1 -->
<svg width="2175pt" height="332pt"
 viewBox="0.00 0.00 2174.73 332.00" xmlns="http://www.w3.org/2000/svg" xmlns:xlink="http://www.w3.org/1999/xlink">
<g id="graph0" class="graph" transform="scale(1 1) rotate(0) translate(4 328)">
<title>godep</title>
<polygon fill="white" stroke="none" points="-4,4 -4,-328 2170.73,-328 2170.73,4 -4,4"/>
<!-- 0 -->
<g id="node1" class="node"><title>0</title>
<ellipse fill="paleturquoise" stroke="paleturquoise" cx="735.886" cy="-234" rx="100.004" ry="18"/>
<text text-anchor="middle" x="735.886" y="-229.8" font-family="Times,serif" font-size="14.00">github.com/gin&#45;gonic/gin</text>
</g>
<!-- 1 -->
<g id="node2" class="node"><title>1</title>
<ellipse fill="paleturquoise" stroke="paleturquoise" cx="598.886" cy="-162" rx="129.963" ry="18"/>
<text text-anchor="middle" x="598.886" y="-157.8" font-family="Times,serif" font-size="14.00">github.com/gin&#45;gonic/gin/binding</text>
</g>
<!-- 0&#45;&gt;1 -->
<g id="edge1" class="edge"><title>0&#45;&gt;1</title>
<path fill="none" stroke="black" d="M704.111,-216.765C685.192,-207.098 660.967,-194.72 640.53,-184.278"/>
<polygon fill="black" stroke="black" points="641.937,-181.067 631.44,-179.633 638.752,-187.3 641.937,-181.067"/>
</g>
<!-- 2 -->
<g id="node3" class="node"><title>2</title>
<ellipse fill="paleturquoise" stroke="paleturquoise" cx="871.886" cy="-162" rx="125.085" ry="18"/>
<text text-anchor="middle" x="871.886" y="-157.8" font-family="Times,serif" font-size="14.00">github.com/gin&#45;gonic/gin/render</text>
</g>
<!-- 0&#45;&gt;2 -->
<g id="edge2" class="edge"><title>0&#45;&gt;2</title>
<path fill="none" stroke="black" d="M767.429,-216.765C786.21,-207.098 810.258,-194.72 830.545,-184.278"/>
<polygon fill="black" stroke="black" points="832.28,-187.322 839.57,-179.633 829.076,-181.098 832.28,-187.322"/>
</g>
<!-- 3 -->
<g id="node4" class="node"><title>3</title>
<ellipse fill="paleturquoise" stroke="paleturquoise" cx="1129.89" cy="-162" rx="114.952" ry="18"/>
<text text-anchor="middle" x="1129.89" y="-157.8" font-family="Times,serif" font-size="14.00">github.com/manucorporat/sse</text>
</g>
<!-- 0&#45;&gt;3 -->
<g id="edge3" class="edge"><title>0&#45;&gt;3</title>
<path fill="none" stroke="black" d="M804.515,-220.807C872.004,-208.817 975.093,-190.501 1047.09,-177.709"/>
<polygon fill="black" stroke="black" points="1047.81,-181.138 1057.04,-175.942 1046.58,-174.246 1047.81,-181.138"/>
</g>
<!-- 4 -->
<g id="node5" class="node"><title>4</title>
<ellipse fill="paleturquoise" stroke="paleturquoise" cx="119.886" cy="-162" rx="119.772" ry="18"/>
<text text-anchor="middle" x="119.886" y="-157.8" font-family="Times,serif" font-size="14.00">github.com/mattn/go&#45;colorable</text>
</g>
<!-- 0&#45;&gt;4 -->
<g id="edge4" class="edge"><title>0&#45;&gt;4</title>
<path fill="none" stroke="black" d="M650.923,-224.342C553.686,-214.297 389.688,-196.937 248.886,-180 238.24,-178.719 227.106,-177.329 216.032,-175.914"/>
<polygon fill="black" stroke="black" points="216.26,-172.415 205.895,-174.61 215.367,-179.357 216.26,-172.415"/>
</g>
<!-- 5 -->
<g id="node6" class="node"><title>5</title>
<ellipse fill="paleturquoise" stroke="paleturquoise" cx="354.886" cy="-162" rx="96.7919" ry="18"/>
<text text-anchor="middle" x="354.886" y="-157.8" font-family="Times,serif" font-size="14.00">golang.org/x/net/context</text>
</g>
<!-- 0&#45;&gt;5 -->
<g id="edge5" class="edge"><title>0&#45;&gt;5</title>
<path fill="none" stroke="black" d="M668.648,-220.647C602.168,-208.432 500.59,-189.77 431.139,-177.01"/>
<polygon fill="black" stroke="black" points="431.601,-173.536 421.133,-175.171 430.336,-180.421 431.601,-173.536"/>
</g>
<!-- 6 -->
<g id="node7" class="node"><title>6</title>
<ellipse fill="paleturquoise" stroke="paleturquoise" cx="598.886" cy="-90" rx="131.391" ry="18"/>
<text text-anchor="middle" x="598.886" y="-85.8" font-family="Times,serif" font-size="14.00">gopkg.in/bluesuncorp/validator.v5</text>
</g>
<!-- 1&#45;&gt;6 -->
<g id="edge6" class="edge"><title>1&#45;&gt;6</title>
<path fill="none" stroke="black" d="M598.886,-143.697C598.886,-135.983 598.886,-126.712 598.886,-118.112"/>
<polygon fill="black" stroke="black" points="602.386,-118.104 598.886,-108.104 595.386,-118.104 602.386,-118.104"/>
</g>
<!-- 7 -->
<g id="node8" class="node"><title>7</title>
<ellipse fill="paleturquoise" stroke="paleturquoise" cx="1445.89" cy="-90" rx="107.217" ry="18"/>
<text text-anchor="middle" x="1445.89" y="-85.8" font-family="Times,serif" font-size="14.00">github.com/moul/cleanarch</text>
</g>
<!-- 8 -->
<g id="node9" class="node"><title>8</title>
<ellipse fill="paleturquoise" stroke="paleturquoise" cx="1654.89" cy="-306" rx="103.86" ry="18"/>
<text text-anchor="middle" x="1654.89" y="-301.8" font-family="Times,serif" font-size="14.00">./app/controllers/api/sprint</text>
</g>
<!-- 8&#45;&gt;0 -->
<g id="edge7" class="edge"><title>8&#45;&gt;0</title>
<path fill="none" stroke="black" d="M1562.14,-297.935C1388.56,-284.714 1016.03,-256.339 836.577,-242.67"/>
<polygon fill="black" stroke="black" points="836.585,-239.16 826.348,-241.89 836.053,-246.14 836.585,-239.16"/>
</g>
<!-- 9 -->
<g id="node10" class="node"><title>9</title>
<ellipse fill="paleturquoise" stroke="paleturquoise" cx="1868.89" cy="-234" rx="111.587" ry="18"/>
<text text-anchor="middle" x="1868.89" y="-229.8" font-family="Times,serif" font-size="14.00">./app/view&#45;models/api/sprint</text>
</g>
<!-- 8&#45;&gt;9 -->
<g id="edge8" class="edge"><title>8&#45;&gt;9</title>
<path fill="none" stroke="black" d="M1701.32,-289.811C1733.91,-279.152 1777.67,-264.838 1812.29,-253.511"/>
<polygon fill="black" stroke="black" points="1813.39,-256.837 1821.8,-250.401 1811.21,-250.183 1813.39,-256.837"/>
</g>
<!-- 10 -->
<g id="node11" class="node"><title>10</title>
<ellipse fill="paleturquoise" stroke="paleturquoise" cx="2043.89" cy="-162" rx="122.688" ry="18"/>
<text text-anchor="middle" x="2043.89" y="-157.8" font-family="Times,serif" font-size="14.00">./business&#45;rules/gateways/sprint</text>
</g>
<!-- 8&#45;&gt;10 -->
<g id="edge9" class="edge"><title>8&#45;&gt;10</title>
<path fill="none" stroke="black" d="M1750.03,-298.842C1834.95,-291.769 1951.63,-277.68 1989.89,-252 2011.94,-237.198 2026.47,-210.063 2034.84,-189.631"/>
<polygon fill="black" stroke="black" points="2038.14,-190.813 2038.47,-180.223 2031.61,-188.297 2038.14,-190.813"/>
</g>
<!-- 11 -->
<g id="node12" class="node"><title>11</title>
<ellipse fill="paleturquoise" stroke="paleturquoise" cx="1388.89" cy="-162" rx="126.071" ry="18"/>
<text text-anchor="middle" x="1388.89" y="-157.8" font-family="Times,serif" font-size="14.00">./business&#45;rules/requestors/sprint</text>
</g>
<!-- 8&#45;&gt;11 -->
<g id="edge10" class="edge"><title>8&#45;&gt;11</title>
<path fill="none" stroke="black" d="M1568.57,-296.02C1530.22,-288.771 1486.11,-275.672 1451.89,-252 1429.04,-236.196 1411.68,-209.263 1401.03,-189.155"/>
<polygon fill="black" stroke="black" points="1404.12,-187.519 1396.48,-180.186 1397.88,-190.687 1404.12,-187.519"/>
</g>
<!-- 12 -->
<g id="node13" class="node"><title>12</title>
<ellipse fill="paleturquoise" stroke="paleturquoise" cx="1774.89" cy="-162" rx="128" ry="18"/>
<text text-anchor="middle" x="1774.89" y="-157.8" font-family="Times,serif" font-size="14.00">./business&#45;rules/responders/sprint</text>
</g>
<!-- 8&#45;&gt;12 -->
<g id="edge11" class="edge"><title>8&#45;&gt;12</title>
<path fill="none" stroke="black" d="M1674.02,-288.093C1684.98,-278.04 1698.73,-264.79 1709.89,-252 1727.61,-231.68 1745.52,-206.758 1758.04,-188.461"/>
<polygon fill="black" stroke="black" points="1761.02,-190.303 1763.73,-180.06 1755.22,-186.379 1761.02,-190.303"/>
</g>
<!-- 13 -->
<g id="node14" class="node"><title>13</title>
<ellipse fill="paleturquoise" stroke="paleturquoise" cx="1580.89" cy="-234" rx="120.274" ry="18"/>
<text text-anchor="middle" x="1580.89" y="-229.8" font-family="Times,serif" font-size="14.00">./business&#45;rules/usecases/sprint</text>
</g>
<!-- 8&#45;&gt;13 -->
<g id="edge12" class="edge"><title>8&#45;&gt;13</title>
<path fill="none" stroke="black" d="M1636.97,-288.055C1627.77,-279.349 1616.4,-268.591 1606.3,-259.043"/>
<polygon fill="black" stroke="black" points="1608.56,-256.361 1598.89,-252.032 1603.75,-261.446 1608.56,-256.361"/>
</g>
<!-- 9&#45;&gt;12 -->
<g id="edge13" class="edge"><title>9&#45;&gt;12</title>
<path fill="none" stroke="black" d="M1846.13,-216.055C1834.01,-207.027 1818.92,-195.792 1805.75,-185.987"/>
<polygon fill="black" stroke="black" points="1807.54,-182.955 1797.43,-179.789 1803.36,-188.569 1807.54,-182.955"/>
</g>
<!-- 15 -->
<g id="node16" class="node"><title>15</title>
<ellipse fill="paleturquoise" stroke="paleturquoise" cx="1748.89" cy="-90" rx="115.463" ry="18"/>
<text text-anchor="middle" x="1748.89" y="-85.8" font-family="Times,serif" font-size="14.00">./business&#45;rules/entities/sprint</text>
</g>
<!-- 10&#45;&gt;15 -->
<g id="edge15" class="edge"><title>10&#45;&gt;15</title>
<path fill="none" stroke="black" d="M1982.4,-146.411C1934.93,-135.146 1869.19,-119.546 1819.55,-107.768"/>
<polygon fill="black" stroke="black" points="1820.07,-104.294 1809.53,-105.39 1818.45,-111.105 1820.07,-104.294"/>
</g>
<!-- 11&#45;&gt;7 -->
<g id="edge16" class="edge"><title>11&#45;&gt;7</title>
<path fill="none" stroke="black" d="M1402.68,-144.055C1409.51,-135.668 1417.89,-125.376 1425.45,-116.096"/>
<polygon fill="black" stroke="black" points="1428.22,-118.24 1431.82,-108.275 1422.79,-113.82 1428.22,-118.24"/>
</g>
<!-- 12&#45;&gt;7 -->
<g id="edge17" class="edge"><title>12&#45;&gt;7</title>
<path fill="none" stroke="black" d="M1707.51,-146.666C1652.8,-135.025 1575.76,-118.632 1519.45,-106.651"/>
<polygon fill="black" stroke="black" points="1520.05,-103.201 1509.54,-104.543 1518.59,-110.047 1520.05,-103.201"/>
</g>
<!-- 12&#45;&gt;15 -->
<g id="edge18" class="edge"><title>12&#45;&gt;15</title>
<path fill="none" stroke="black" d="M1768.46,-143.697C1765.53,-135.813 1762,-126.304 1758.75,-117.546"/>
<polygon fill="black" stroke="black" points="1762,-116.26 1755.24,-108.104 1755.44,-118.697 1762,-116.26"/>
</g>
<!-- 13&#45;&gt;7 -->
<g id="edge19" class="edge"><title>13&#45;&gt;7</title>
<path fill="none" stroke="black" d="M1572.58,-215.828C1562.79,-196.77 1545.13,-165.828 1523.89,-144 1512.36,-132.162 1497.81,-121.422 1484.4,-112.754"/>
<polygon fill="black" stroke="black" points="1486.13,-109.708 1475.8,-107.366 1482.41,-115.64 1486.13,-109.708"/>
</g>
<!-- 13&#45;&gt;10 -->
<g id="edge22" class="edge"><title>13&#45;&gt;10</title>
<path fill="none" stroke="black" d="M1662.33,-220.687C1743.24,-208.454 1867.12,-189.724 1951.62,-176.949"/>
<polygon fill="black" stroke="black" points="1952.36,-180.377 1961.73,-175.421 1951.32,-173.455 1952.36,-180.377"/>
</g>
<!-- 13&#45;&gt;11 -->
<g id="edge23" class="edge"><title>13&#45;&gt;11</title>
<path fill="none" stroke="black" d="M1537.32,-217.116C1509.06,-206.815 1472.07,-193.328 1442.08,-182.395"/>
<polygon fill="black" stroke="black" points="1443.21,-179.079 1432.61,-178.942 1440.81,-185.656 1443.21,-179.079"/>
</g>
<!-- 13&#45;&gt;12 -->
<g id="edge24" class="edge"><title>13&#45;&gt;12</title>
<path fill="none" stroke="black" d="M1624.91,-217.116C1653.46,-206.815 1690.83,-193.328 1721.13,-182.395"/>
<polygon fill="black" stroke="black" points="1722.48,-185.629 1730.7,-178.942 1720.11,-179.044 1722.48,-185.629"/>
</g>
<!-- 14 -->
<g id="node15" class="node"><title>14</title>
<ellipse fill="paleturquoise" stroke="paleturquoise" cx="1664.89" cy="-18" rx="116.432" ry="18"/>
<text text-anchor="middle" x="1664.89" y="-13.8" font-family="Times,serif" font-size="14.00">./business&#45;rules/entities/issues</text>
</g>
<!-- 13&#45;&gt;14 -->
<g id="edge20" class="edge"><title>13&#45;&gt;14</title>
<path fill="none" stroke="black" d="M1583.37,-215.779C1588.21,-185.457 1600.64,-121.104 1624.89,-72 1629.71,-62.2324 1636.42,-52.4541 1642.97,-44.0038"/>
<polygon fill="black" stroke="black" points="1645.84,-46.0266 1649.39,-36.0459 1640.39,-41.6314 1645.84,-46.0266"/>
</g>
<!-- 13&#45;&gt;15 -->
<g id="edge21" class="edge"><title>13&#45;&gt;15</title>
<path fill="none" stroke="black" d="M1588.27,-215.913C1597.45,-196.356 1614.78,-164.403 1637.89,-144 1653.77,-129.974 1674.02,-118.858 1692.86,-110.504"/>
<polygon fill="black" stroke="black" points="1694.43,-113.64 1702.26,-106.505 1691.69,-107.198 1694.43,-113.64"/>
</g>
<!-- 15&#45;&gt;14 -->
<g id="edge14" class="edge"><title>15&#45;&gt;14</title>
<path fill="none" stroke="black" d="M1728.55,-72.055C1717.82,-63.1128 1704.49,-52.0054 1692.81,-42.268"/>
<polygon fill="black" stroke="black" points="1694.96,-39.5021 1685.03,-35.789 1690.47,-44.8797 1694.96,-39.5021"/>
</g>
</g>
</svg>
