<?xml version="1.0" encoding="UTF-8" standalone="no"?>
<!DOCTYPE svg PUBLIC "-//W3C//DTD SVG 1.1//EN"
 "http://www.w3.org/Graphics/SVG/1.1/DTD/svg11.dtd">
<!-- Generated by graphviz version 2.38.0 (20140413.2041)
 -->
<!-- Title: godep Pages: 1 -->
<svg width="254pt" height="188pt"
 viewBox="0.00 0.00 253.69 188.00" xmlns="http://www.w3.org/2000/svg" xmlns:xlink="http://www.w3.org/1999/xlink">
<g id="graph0" class="graph" transform="scale(1 1) rotate(0) translate(4 184)">
<title>godep</title>
<polygon fill="white" stroke="none" points="-4,4 -4,-184 249.687,-184 249.687,4 -4,4"/>
<!-- 0 -->
<g id="node1" class="node"><title>0</title>
<ellipse fill="paleturquoise" stroke="paleturquoise" cx="122.844" cy="-18" rx="116.432" ry="18"/>
<text text-anchor="middle" x="122.844" y="-13.8" font-family="Times,serif" font-size="14.00">./business&#45;rules/entities/issues</text>
</g>
<!-- 1 -->
<g id="node2" class="node"><title>1</title>
<ellipse fill="paleturquoise" stroke="paleturquoise" cx="122.844" cy="-90" rx="115.463" ry="18"/>
<text text-anchor="middle" x="122.844" y="-85.8" font-family="Times,serif" font-size="14.00">./business&#45;rules/entities/sprint</text>
</g>
<!-- 1&#45;&gt;0 -->
<g id="edge1" class="edge"><title>1&#45;&gt;0</title>
<path fill="none" stroke="black" d="M122.844,-71.6966C122.844,-63.9827 122.844,-54.7125 122.844,-46.1124"/>
<polygon fill="black" stroke="black" points="126.344,-46.1043 122.844,-36.1043 119.344,-46.1044 126.344,-46.1043"/>
</g>
<!-- 2 -->
<g id="node3" class="node"><title>2</title>
<ellipse fill="paleturquoise" stroke="paleturquoise" cx="122.844" cy="-162" rx="122.688" ry="18"/>
<text text-anchor="middle" x="122.844" y="-157.8" font-family="Times,serif" font-size="14.00">./business&#45;rules/gateways/sprint</text>
</g>
<!-- 2&#45;&gt;1 -->
<g id="edge2" class="edge"><title>2&#45;&gt;1</title>
<path fill="none" stroke="black" d="M122.844,-143.697C122.844,-135.983 122.844,-126.712 122.844,-118.112"/>
<polygon fill="black" stroke="black" points="126.344,-118.104 122.844,-108.104 119.344,-118.104 126.344,-118.104"/>
</g>
</g>
</svg>
