<?xml version="1.0" encoding="UTF-8" standalone="no"?>
<!DOCTYPE svg PUBLIC "-//W3C//DTD SVG 1.1//EN"
 "http://www.w3.org/Graphics/SVG/1.1/DTD/svg11.dtd">
<!-- Generated by graphviz version 2.38.0 (20140413.2041)
 -->
<!-- Title: godep Pages: 1 -->
<svg width="316pt" height="188pt"
 viewBox="0.00 0.00 316.29 188.00" xmlns="http://www.w3.org/2000/svg" xmlns:xlink="http://www.w3.org/1999/xlink">
<g id="graph0" class="graph" transform="scale(1 1) rotate(0) translate(4 184)">
<title>godep</title>
<polygon fill="white" stroke="none" points="-4,4 -4,-184 312.291,-184 312.291,4 -4,4"/>
<!-- 0 -->
<g id="node1" class="node"><title>0</title>
<ellipse fill="paleturquoise" stroke="paleturquoise" cx="127.749" cy="-162" rx="127.999" ry="18"/>
<text text-anchor="middle" x="127.749" y="-157.8" font-family="Times,serif" font-size="14.00">./example/app/repos/sprints/mem</text>
</g>
<!-- 1 -->
<g id="node2" class="node"><title>1</title>
<ellipse fill="paleturquoise" stroke="paleturquoise" cx="127.749" cy="-18" rx="103.359" ry="18"/>
<text text-anchor="middle" x="127.749" y="-13.8" font-family="Times,serif" font-size="14.00">./example/bizrules/entities</text>
</g>
<!-- 0&#45;&gt;1 -->
<g id="edge1" class="edge"><title>0&#45;&gt;1</title>
<path fill="none" stroke="black" d="M105.415,-144.196C94.8793,-134.843 83.4001,-122.225 77.7491,-108 71.842,-93.1304 71.842,-86.8696 77.7491,-72 82.0756,-61.109 89.8186,-51.1598 97.9387,-42.897"/>
<polygon fill="black" stroke="black" points="100.569,-45.226 105.415,-35.8042 95.7513,-40.1478 100.569,-45.226"/>
</g>
<!-- 2 -->
<g id="node3" class="node"><title>2</title>
<ellipse fill="paleturquoise" stroke="paleturquoise" cx="197.749" cy="-90" rx="110.583" ry="18"/>
<text text-anchor="middle" x="197.749" y="-85.8" font-family="Times,serif" font-size="14.00">./example/bizrules/gateways</text>
</g>
<!-- 0&#45;&gt;2 -->
<g id="edge2" class="edge"><title>0&#45;&gt;2</title>
<path fill="none" stroke="black" d="M144.694,-144.055C153.251,-135.498 163.79,-124.959 173.214,-115.535"/>
<polygon fill="black" stroke="black" points="175.878,-117.821 180.474,-108.275 170.928,-112.872 175.878,-117.821"/>
</g>
<!-- 2&#45;&gt;1 -->
<g id="edge3" class="edge"><title>2&#45;&gt;1</title>
<path fill="none" stroke="black" d="M180.804,-72.055C172.12,-63.3707 161.393,-52.6444 151.863,-43.114"/>
<polygon fill="black" stroke="black" points="154.084,-40.3852 144.538,-35.789 149.134,-45.335 154.084,-40.3852"/>
</g>
</g>
</svg>
