<?xml version="1.0" encoding="UTF-8" standalone="no"?>
<!DOCTYPE svg PUBLIC "-//W3C//DTD SVG 1.1//EN"
 "http://www.w3.org/Graphics/SVG/1.1/DTD/svg11.dtd">
<!-- Generated by graphviz version 2.38.0 (20140413.2041)
 -->
<!-- Title: godep Pages: 1 -->
<svg width="453pt" height="188pt"
 viewBox="0.00 0.00 453.39 188.00" xmlns="http://www.w3.org/2000/svg" xmlns:xlink="http://www.w3.org/1999/xlink">
<g id="graph0" class="graph" transform="scale(1 1) rotate(0) translate(4 184)">
<title>godep</title>
<polygon fill="white" stroke="none" points="-4,4 -4,-184 449.391,-184 449.391,4 -4,4"/>
<!-- 0 -->
<g id="node1" class="node"><title>0</title>
<ellipse fill="paleturquoise" stroke="paleturquoise" cx="331.179" cy="-18" rx="107.217" ry="18"/>
<text text-anchor="middle" x="331.179" y="-13.8" font-family="Times,serif" font-size="14.00">github.com/moul/cleanarch</text>
</g>
<!-- 1 -->
<g id="node2" class="node"><title>1</title>
<ellipse fill="paleturquoise" stroke="paleturquoise" cx="103.179" cy="-18" rx="103.359" ry="18"/>
<text text-anchor="middle" x="103.179" y="-13.8" font-family="Times,serif" font-size="14.00">./example/bizrules/entities</text>
</g>
<!-- 2 -->
<g id="node3" class="node"><title>2</title>
<ellipse fill="paleturquoise" stroke="paleturquoise" cx="195.179" cy="-162" rx="161.767" ry="18"/>
<text text-anchor="middle" x="195.179" y="-157.8" font-family="Times,serif" font-size="14.00">./example/bizrules/usecases/add_sprint/dto</text>
</g>
<!-- 2&#45;&gt;1 -->
<g id="edge1" class="edge"><title>2&#45;&gt;1</title>
<path fill="none" stroke="black" d="M162.073,-144.218C147.726,-135.328 131.998,-123.099 122.179,-108 110.227,-89.62 105.65,-65.0157 103.964,-46.3354"/>
<polygon fill="black" stroke="black" points="107.439,-45.8537 103.271,-36.1131 100.455,-46.3268 107.439,-45.8537"/>
</g>
<!-- 3 -->
<g id="node4" class="node"><title>3</title>
<ellipse fill="paleturquoise" stroke="paleturquoise" cx="288.179" cy="-90" rx="157.423" ry="18"/>
<text text-anchor="middle" x="288.179" y="-85.8" font-family="Times,serif" font-size="14.00">./example/bizrules/usecases/add_sprint/io</text>
</g>
<!-- 2&#45;&gt;3 -->
<g id="edge2" class="edge"><title>2&#45;&gt;3</title>
<path fill="none" stroke="black" d="M217.692,-144.055C229.598,-135.093 244.394,-123.957 257.351,-114.204"/>
<polygon fill="black" stroke="black" points="259.667,-116.842 265.551,-108.032 255.457,-111.249 259.667,-116.842"/>
</g>
<!-- 3&#45;&gt;0 -->
<g id="edge3" class="edge"><title>3&#45;&gt;0</title>
<path fill="none" stroke="black" d="M298.808,-71.6966C303.807,-63.5589 309.87,-53.689 315.391,-44.7013"/>
<polygon fill="black" stroke="black" points="318.42,-46.4571 320.672,-36.1043 312.456,-42.7931 318.42,-46.4571"/>
</g>
<!-- 3&#45;&gt;1 -->
<g id="edge4" class="edge"><title>3&#45;&gt;1</title>
<path fill="none" stroke="black" d="M244.805,-72.5881C217.555,-62.2773 182.291,-48.9344 153.77,-38.1423"/>
<polygon fill="black" stroke="black" points="154.968,-34.8537 144.377,-34.5882 152.491,-41.4007 154.968,-34.8537"/>
</g>
</g>
</svg>
