<?xml version="1.0" encoding="UTF-8" standalone="no"?>
<!DOCTYPE svg PUBLIC "-//W3C//DTD SVG 1.1//EN"
 "http://www.w3.org/Graphics/SVG/1.1/DTD/svg11.dtd">
<!-- Generated by graphviz version 2.38.0 (20140413.2041)
 -->
<!-- Title: godep Pages: 1 -->
<svg width="420pt" height="188pt"
 viewBox="0.00 0.00 419.84 188.00" xmlns="http://www.w3.org/2000/svg" xmlns:xlink="http://www.w3.org/1999/xlink">
<g id="graph0" class="graph" transform="scale(1 1) rotate(0) translate(4 184)">
<title>godep</title>
<polygon fill="white" stroke="none" points="-4,4 -4,-184 415.845,-184 415.845,4 -4,4"/>
<!-- 0 -->
<g id="node1" class="node"><title>0</title>
<ellipse fill="paleturquoise" stroke="paleturquoise" cx="161.633" cy="-18" rx="103.359" ry="18"/>
<text text-anchor="middle" x="161.633" y="-13.8" font-family="Times,serif" font-size="14.00">./example/bizrules/entities</text>
</g>
<!-- 1 -->
<g id="node2" class="node"><title>1</title>
<ellipse fill="paleturquoise" stroke="paleturquoise" cx="161.633" cy="-162" rx="161.767" ry="18"/>
<text text-anchor="middle" x="161.633" y="-157.8" font-family="Times,serif" font-size="14.00">./example/bizrules/usecases/add_sprint/dto</text>
</g>
<!-- 1&#45;&gt;0 -->
<g id="edge1" class="edge"><title>1&#45;&gt;0</title>
<path fill="none" stroke="black" d="M125.887,-144.391C111.568,-135.726 96.5993,-123.628 88.6332,-108 81.367,-93.7451 81.367,-86.2549 88.6332,-72 95.1579,-59.1999 106.38,-48.7679 118.095,-40.6503"/>
<polygon fill="black" stroke="black" points="120.135,-43.5001 126.653,-35.1477 116.349,-37.6123 120.135,-43.5001"/>
</g>
<!-- 2 -->
<g id="node3" class="node"><title>2</title>
<ellipse fill="paleturquoise" stroke="paleturquoise" cx="254.633" cy="-90" rx="157.423" ry="18"/>
<text text-anchor="middle" x="254.633" y="-85.8" font-family="Times,serif" font-size="14.00">./example/bizrules/usecases/add_sprint/io</text>
</g>
<!-- 1&#45;&gt;2 -->
<g id="edge2" class="edge"><title>1&#45;&gt;2</title>
<path fill="none" stroke="black" d="M184.146,-144.055C196.052,-135.093 210.848,-123.957 223.805,-114.204"/>
<polygon fill="black" stroke="black" points="226.121,-116.842 232.005,-108.032 221.911,-111.249 226.121,-116.842"/>
</g>
<!-- 2&#45;&gt;0 -->
<g id="edge3" class="edge"><title>2&#45;&gt;0</title>
<path fill="none" stroke="black" d="M232.121,-72.055C220.126,-63.0268 205.199,-51.7916 192.174,-41.9875"/>
<polygon fill="black" stroke="black" points="194.033,-39.0064 183.939,-35.789 189.823,-44.5992 194.033,-39.0064"/>
</g>
</g>
</svg>
