<?xml version="1.0" encoding="UTF-8" standalone="no"?>
<!DOCTYPE svg PUBLIC "-//W3C//DTD SVG 1.1//EN"
 "http://www.w3.org/Graphics/SVG/1.1/DTD/svg11.dtd">
<!-- Generated by graphviz version 2.38.0 (20140413.2041)
 -->
<!-- Title: godep Pages: 1 -->
<svg width="864pt" height="260pt"
 viewBox="0.00 0.00 863.74 260.00" xmlns="http://www.w3.org/2000/svg" xmlns:xlink="http://www.w3.org/1999/xlink">
<g id="graph0" class="graph" transform="scale(1 1) rotate(0) translate(4 256)">
<title>godep</title>
<polygon fill="white" stroke="none" points="-4,4 -4,-256 859.744,-256 859.744,4 -4,4"/>
<!-- 0 -->
<g id="node1" class="node"><title>0</title>
<ellipse fill="paleturquoise" stroke="paleturquoise" cx="152.901" cy="-90" rx="107.217" ry="18"/>
<text text-anchor="middle" x="152.901" y="-85.8" font-family="Times,serif" font-size="14.00">github.com/moul/cleanarch</text>
</g>
<!-- 1 -->
<g id="node2" class="node"><title>1</title>
<ellipse fill="paleturquoise" stroke="paleturquoise" cx="192.901" cy="-18" rx="116.432" ry="18"/>
<text text-anchor="middle" x="192.901" y="-13.8" font-family="Times,serif" font-size="14.00">./business&#45;rules/entities/issues</text>
</g>
<!-- 2 -->
<g id="node3" class="node"><title>2</title>
<ellipse fill="paleturquoise" stroke="paleturquoise" cx="503.901" cy="-90" rx="115.463" ry="18"/>
<text text-anchor="middle" x="503.901" y="-85.8" font-family="Times,serif" font-size="14.00">./business&#45;rules/entities/sprint</text>
</g>
<!-- 2&#45;&gt;1 -->
<g id="edge1" class="edge"><title>2&#45;&gt;1</title>
<path fill="none" stroke="black" d="M440.965,-74.8345C390.358,-63.4439 319.186,-47.4244 266.048,-35.464"/>
<polygon fill="black" stroke="black" points="266.533,-31.9858 256.009,-33.2044 264.996,-38.8149 266.533,-31.9858"/>
</g>
<!-- 3 -->
<g id="node4" class="node"><title>3</title>
<ellipse fill="paleturquoise" stroke="paleturquoise" cx="732.901" cy="-162" rx="122.688" ry="18"/>
<text text-anchor="middle" x="732.901" y="-157.8" font-family="Times,serif" font-size="14.00">./business&#45;rules/gateways/sprint</text>
</g>
<!-- 3&#45;&gt;2 -->
<g id="edge2" class="edge"><title>3&#45;&gt;2</title>
<path fill="none" stroke="black" d="M682.362,-145.552C647.298,-134.833 600.451,-120.513 563.554,-109.235"/>
<polygon fill="black" stroke="black" points="564.502,-105.865 553.916,-106.288 562.456,-112.559 564.502,-105.865"/>
</g>
<!-- 4 -->
<g id="node5" class="node"><title>4</title>
<ellipse fill="paleturquoise" stroke="paleturquoise" cx="152.901" cy="-162" rx="126.071" ry="18"/>
<text text-anchor="middle" x="152.901" y="-157.8" font-family="Times,serif" font-size="14.00">./business&#45;rules/requestors/sprint</text>
</g>
<!-- 4&#45;&gt;0 -->
<g id="edge3" class="edge"><title>4&#45;&gt;0</title>
<path fill="none" stroke="black" d="M152.901,-143.697C152.901,-135.983 152.901,-126.712 152.901,-118.112"/>
<polygon fill="black" stroke="black" points="156.401,-118.104 152.901,-108.104 149.401,-118.104 156.401,-118.104"/>
</g>
<!-- 5 -->
<g id="node6" class="node"><title>5</title>
<ellipse fill="paleturquoise" stroke="paleturquoise" cx="425.901" cy="-162" rx="128" ry="18"/>
<text text-anchor="middle" x="425.901" y="-157.8" font-family="Times,serif" font-size="14.00">./business&#45;rules/responders/sprint</text>
</g>
<!-- 5&#45;&gt;0 -->
<g id="edge4" class="edge"><title>5&#45;&gt;0</title>
<path fill="none" stroke="black" d="M367.335,-145.983C323.693,-134.793 264.065,-119.504 218.764,-107.888"/>
<polygon fill="black" stroke="black" points="219.592,-104.487 209.036,-105.394 217.853,-111.268 219.592,-104.487"/>
</g>
<!-- 5&#45;&gt;2 -->
<g id="edge5" class="edge"><title>5&#45;&gt;2</title>
<path fill="none" stroke="black" d="M444.782,-144.055C454.651,-135.199 466.886,-124.219 477.66,-114.549"/>
<polygon fill="black" stroke="black" points="480.088,-117.073 485.193,-107.789 475.413,-111.863 480.088,-117.073"/>
</g>
<!-- 6 -->
<g id="node7" class="node"><title>6</title>
<ellipse fill="paleturquoise" stroke="paleturquoise" cx="288.901" cy="-234" rx="120.274" ry="18"/>
<text text-anchor="middle" x="288.901" y="-229.8" font-family="Times,serif" font-size="14.00">./business&#45;rules/usecases/sprint</text>
</g>
<!-- 6&#45;&gt;0 -->
<g id="edge6" class="edge"><title>6&#45;&gt;0</title>
<path fill="none" stroke="black" d="M181.562,-225.762C115.197,-218.796 38.8124,-205.398 17.9007,-180 7.73057,-167.648 8.88831,-157.22 17.9007,-144 30.022,-126.219 49.0962,-114.404 69.13,-106.552"/>
<polygon fill="black" stroke="black" points="70.471,-109.789 78.6967,-103.112 68.1023,-103.202 70.471,-109.789"/>
</g>
<!-- 6&#45;&gt;1 -->
<g id="edge7" class="edge"><title>6&#45;&gt;1</title>
<path fill="none" stroke="black" d="M179.132,-226.533C109.66,-219.886 28.9262,-206.551 6.90073,-180 -17.1409,-151.019 30.9644,-77.5497 36.9007,-72 55.9925,-54.1514 81.3288,-42.2921 106.02,-34.4205"/>
<polygon fill="black" stroke="black" points="107.226,-37.7128 115.802,-31.4918 105.219,-31.0069 107.226,-37.7128"/>
</g>
<!-- 6&#45;&gt;2 -->
<g id="edge8" class="edge"><title>6&#45;&gt;2</title>
<path fill="none" stroke="black" d="M397.05,-225.96C464.229,-219.076 541.701,-205.693 562.901,-180 580.239,-158.987 558.23,-132.771 536.334,-114.25"/>
<polygon fill="black" stroke="black" points="538.324,-111.359 528.345,-107.799 533.926,-116.805 538.324,-111.359"/>
</g>
<!-- 6&#45;&gt;3 -->
<g id="edge9" class="edge"><title>6&#45;&gt;3</title>
<path fill="none" stroke="black" d="M368.535,-220.445C445.475,-208.315 561.877,-189.963 642.315,-177.282"/>
<polygon fill="black" stroke="black" points="643.1,-180.701 652.433,-175.686 642.01,-173.787 643.1,-180.701"/>
</g>
<!-- 6&#45;&gt;4 -->
<g id="edge10" class="edge"><title>6&#45;&gt;4</title>
<path fill="none" stroke="black" d="M257.015,-216.588C238.224,-206.916 214.249,-194.577 194.044,-184.177"/>
<polygon fill="black" stroke="black" points="195.551,-181.016 185.058,-179.552 192.348,-187.24 195.551,-181.016"/>
</g>
<!-- 6&#45;&gt;5 -->
<g id="edge11" class="edge"><title>6&#45;&gt;5</title>
<path fill="none" stroke="black" d="M321.021,-216.588C339.95,-206.916 364.101,-194.577 384.455,-184.177"/>
<polygon fill="black" stroke="black" points="386.194,-187.218 393.507,-179.552 383.009,-180.985 386.194,-187.218"/>
</g>
</g>
</svg>
