<?xml version="1.0" encoding="UTF-8" standalone="no"?>
<!DOCTYPE svg PUBLIC "-//W3C//DTD SVG 1.1//EN"
 "http://www.w3.org/Graphics/SVG/1.1/DTD/svg11.dtd">
<!-- Generated by graphviz version 2.38.0 (20140413.2041)
 -->
<!-- Title: godep Pages: 1 -->
<svg width="342pt" height="188pt"
 viewBox="0.00 0.00 342.07 188.00" xmlns="http://www.w3.org/2000/svg" xmlns:xlink="http://www.w3.org/1999/xlink">
<g id="graph0" class="graph" transform="scale(1 1) rotate(0) translate(4 184)">
<title>godep</title>
<polygon fill="white" stroke="none" points="-4,4 -4,-184 338.07,-184 338.07,4 -4,4"/>
<!-- 0 -->
<g id="node1" class="node"><title>0</title>
<ellipse fill="paleturquoise" stroke="paleturquoise" cx="167.035" cy="-18" rx="107.217" ry="18"/>
<text text-anchor="middle" x="167.035" y="-13.8" font-family="Times,serif" font-size="14.00">github.com/moul/cleanarch</text>
</g>
<!-- 1 -->
<g id="node2" class="node"><title>1</title>
<ellipse fill="paleturquoise" stroke="paleturquoise" cx="167.035" cy="-162" rx="167.07" ry="18"/>
<text text-anchor="middle" x="167.035" y="-157.8" font-family="Times,serif" font-size="14.00">./example/bizrules/usecases/close_sprint/dto</text>
</g>
<!-- 2 -->
<g id="node3" class="node"><title>2</title>
<ellipse fill="paleturquoise" stroke="paleturquoise" cx="167.035" cy="-90" rx="162.727" ry="18"/>
<text text-anchor="middle" x="167.035" y="-85.8" font-family="Times,serif" font-size="14.00">./example/bizrules/usecases/close_sprint/io</text>
</g>
<!-- 1&#45;&gt;2 -->
<g id="edge1" class="edge"><title>1&#45;&gt;2</title>
<path fill="none" stroke="black" d="M167.035,-143.697C167.035,-135.983 167.035,-126.712 167.035,-118.112"/>
<polygon fill="black" stroke="black" points="170.535,-118.104 167.035,-108.104 163.535,-118.104 170.535,-118.104"/>
</g>
<!-- 2&#45;&gt;0 -->
<g id="edge2" class="edge"><title>2&#45;&gt;0</title>
<path fill="none" stroke="black" d="M167.035,-71.6966C167.035,-63.9827 167.035,-54.7125 167.035,-46.1124"/>
<polygon fill="black" stroke="black" points="170.535,-46.1043 167.035,-36.1043 163.535,-46.1044 170.535,-46.1043"/>
</g>
</g>
</svg>
