<?xml version="1.0" encoding="UTF-8" standalone="no"?>
<!DOCTYPE svg PUBLIC "-//W3C//DTD SVG 1.1//EN"
 "http://www.w3.org/Graphics/SVG/1.1/DTD/svg11.dtd">
<!-- Generated by graphviz version 2.38.0 (20140413.2041)
 -->
<!-- Title: godep Pages: 1 -->
<svg width="572pt" height="188pt"
 viewBox="0.00 0.00 572.15 188.00" xmlns="http://www.w3.org/2000/svg" xmlns:xlink="http://www.w3.org/1999/xlink">
<g id="graph0" class="graph" transform="scale(1 1) rotate(0) translate(4 184)">
<title>godep</title>
<polygon fill="white" stroke="none" points="-4,4 -4,-184 568.155,-184 568.155,4 -4,4"/>
<!-- 0 -->
<g id="node1" class="node"><title>0</title>
<ellipse fill="paleturquoise" stroke="paleturquoise" cx="110.541" cy="-18" rx="103.359" ry="18"/>
<text text-anchor="middle" x="110.541" y="-13.8" font-family="Times,serif" font-size="14.00">./example/bizrules/entities</text>
</g>
<!-- 1 -->
<g id="node2" class="node"><title>1</title>
<ellipse fill="paleturquoise" stroke="paleturquoise" cx="110.541" cy="-90" rx="110.583" ry="18"/>
<text text-anchor="middle" x="110.541" y="-85.8" font-family="Times,serif" font-size="14.00">./example/bizrules/gateways</text>
</g>
<!-- 1&#45;&gt;0 -->
<g id="edge1" class="edge"><title>1&#45;&gt;0</title>
<path fill="none" stroke="black" d="M110.541,-71.6966C110.541,-63.9827 110.541,-54.7125 110.541,-46.1124"/>
<polygon fill="black" stroke="black" points="114.042,-46.1043 110.541,-36.1043 107.042,-46.1044 114.042,-46.1043"/>
</g>
<!-- 2 -->
<g id="node3" class="node"><title>2</title>
<ellipse fill="paleturquoise" stroke="paleturquoise" cx="255.541" cy="-162" rx="153.056" ry="18"/>
<text text-anchor="middle" x="255.541" y="-157.8" font-family="Times,serif" font-size="14.00">./example/bizrules/usecases/close_sprint</text>
</g>
<!-- 2&#45;&gt;1 -->
<g id="edge2" class="edge"><title>2&#45;&gt;1</title>
<path fill="none" stroke="black" d="M221.179,-144.411C200.898,-134.62 175.052,-122.143 153.441,-111.71"/>
<polygon fill="black" stroke="black" points="154.685,-108.424 144.158,-107.228 151.641,-114.728 154.685,-108.424"/>
</g>
<!-- 3 -->
<g id="node4" class="node"><title>3</title>
<ellipse fill="paleturquoise" stroke="paleturquoise" cx="401.541" cy="-90" rx="162.727" ry="18"/>
<text text-anchor="middle" x="401.541" y="-85.8" font-family="Times,serif" font-size="14.00">./example/bizrules/usecases/close_sprint/io</text>
</g>
<!-- 2&#45;&gt;3 -->
<g id="edge3" class="edge"><title>2&#45;&gt;3</title>
<path fill="none" stroke="black" d="M290.141,-144.411C310.341,-134.726 336.025,-122.412 357.64,-112.049"/>
<polygon fill="black" stroke="black" points="359.433,-115.07 366.937,-107.591 356.407,-108.758 359.433,-115.07"/>
</g>
</g>
</svg>
