<?xml version="1.0" encoding="UTF-8" standalone="no"?>
<!DOCTYPE svg PUBLIC "-//W3C//DTD SVG 1.1//EN"
 "http://www.w3.org/Graphics/SVG/1.1/DTD/svg11.dtd">
<!-- Generated by graphviz version 2.38.0 (20140413.2041)
 -->
<!-- Title: godep Pages: 1 -->
<svg width="613pt" height="188pt"
 viewBox="0.00 0.00 612.65 188.00" xmlns="http://www.w3.org/2000/svg" xmlns:xlink="http://www.w3.org/1999/xlink">
<g id="graph0" class="graph" transform="scale(1 1) rotate(0) translate(4 184)">
<title>godep</title>
<polygon fill="white" stroke="none" points="-4,4 -4,-184 608.65,-184 608.65,4 -4,4"/>
<!-- 0 -->
<g id="node1" class="node"><title>0</title>
<ellipse fill="paleturquoise" stroke="paleturquoise" cx="107.109" cy="-18" rx="107.217" ry="18"/>
<text text-anchor="middle" x="107.109" y="-13.8" font-family="Times,serif" font-size="14.00">github.com/moul/cleanarch</text>
</g>
<!-- 1 -->
<g id="node2" class="node"><title>1</title>
<ellipse fill="paleturquoise" stroke="paleturquoise" cx="494.109" cy="-18" rx="103.359" ry="18"/>
<text text-anchor="middle" x="494.109" y="-13.8" font-family="Times,serif" font-size="14.00">./example/bizrules/entities</text>
</g>
<!-- 2 -->
<g id="node3" class="node"><title>2</title>
<ellipse fill="paleturquoise" stroke="paleturquoise" cx="494.109" cy="-90" rx="110.583" ry="18"/>
<text text-anchor="middle" x="494.109" y="-85.8" font-family="Times,serif" font-size="14.00">./example/bizrules/gateways</text>
</g>
<!-- 2&#45;&gt;1 -->
<g id="edge1" class="edge"><title>2&#45;&gt;1</title>
<path fill="none" stroke="black" d="M494.109,-71.6966C494.109,-63.9827 494.109,-54.7125 494.109,-46.1124"/>
<polygon fill="black" stroke="black" points="497.609,-46.1043 494.109,-36.1043 490.609,-46.1044 497.609,-46.1043"/>
</g>
<!-- 3 -->
<g id="node4" class="node"><title>3</title>
<ellipse fill="paleturquoise" stroke="paleturquoise" cx="203.109" cy="-162" rx="153.056" ry="18"/>
<text text-anchor="middle" x="203.109" y="-157.8" font-family="Times,serif" font-size="14.00">./example/bizrules/usecases/close_sprint</text>
</g>
<!-- 3&#45;&gt;0 -->
<g id="edge2" class="edge"><title>3&#45;&gt;0</title>
<path fill="none" stroke="black" d="M93.3899,-149.253C69.1612,-141.302 46.2338,-128.488 31.1086,-108 21.6056,-95.1278 23.7071,-86.1851 31.1086,-72 37.8749,-59.0322 49.4229,-48.5899 61.5021,-40.5152"/>
<polygon fill="black" stroke="black" points="63.669,-43.2902 70.3307,-35.0516 59.9854,-37.3378 63.669,-43.2902"/>
</g>
<!-- 3&#45;&gt;2 -->
<g id="edge3" class="edge"><title>3&#45;&gt;2</title>
<path fill="none" stroke="black" d="M267.33,-145.552C314.052,-134.313 377.237,-119.113 425.046,-107.613"/>
<polygon fill="black" stroke="black" points="426.099,-110.96 435.003,-105.218 424.462,-104.154 426.099,-110.96"/>
</g>
<!-- 4 -->
<g id="node5" class="node"><title>4</title>
<ellipse fill="paleturquoise" stroke="paleturquoise" cx="203.109" cy="-90" rx="162.727" ry="18"/>
<text text-anchor="middle" x="203.109" y="-85.8" font-family="Times,serif" font-size="14.00">./example/bizrules/usecases/close_sprint/io</text>
</g>
<!-- 3&#45;&gt;4 -->
<g id="edge4" class="edge"><title>3&#45;&gt;4</title>
<path fill="none" stroke="black" d="M203.109,-143.697C203.109,-135.983 203.109,-126.712 203.109,-118.112"/>
<polygon fill="black" stroke="black" points="206.609,-118.104 203.109,-108.104 199.609,-118.104 206.609,-118.104"/>
</g>
<!-- 4&#45;&gt;0 -->
<g id="edge5" class="edge"><title>4&#45;&gt;0</title>
<path fill="none" stroke="black" d="M179.87,-72.055C167.37,-62.9408 151.786,-51.5774 138.251,-41.7077"/>
<polygon fill="black" stroke="black" points="140.276,-38.8527 130.134,-35.789 136.151,-44.5088 140.276,-38.8527"/>
</g>
</g>
</svg>
